<?xml version="1.0" encoding="UTF-8" standalone="no"?>
<!-- Created with Inkscape (http://www.inkscape.org/) -->

<svg
   width="20"
   height="20"
   viewBox="0 0 5.2916665 5.2916666"
   version="1.1"
   id="svg5"
   xml:space="preserve"
   inkscape:version="1.2.2 (732a01da63, 2022-12-09)"
   sodipodi:docname="Exclamacion.svg"
   xmlns:inkscape="http://www.inkscape.org/namespaces/inkscape"
   xmlns:sodipodi="http://sodipodi.sourceforge.net/DTD/sodipodi-0.dtd"
   xmlns="http://www.w3.org/2000/svg"
   xmlns:svg="http://www.w3.org/2000/svg"><sodipodi:namedview
     id="namedview7"
     pagecolor="#ffffff"
     bordercolor="#000000"
     borderopacity="0.25"
     inkscape:showpageshadow="2"
     inkscape:pageopacity="0.0"
     inkscape:pagecheckerboard="0"
     inkscape:deskcolor="#d1d1d1"
     inkscape:document-units="px"
     showgrid="false"
     inkscape:zoom="16"
     inkscape:cx="26.15625"
     inkscape:cy="11.71875"
     inkscape:window-width="2400"
     inkscape:window-height="1271"
     inkscape:window-x="2391"
     inkscape:window-y="-9"
     inkscape:window-maximized="1"
     inkscape:current-layer="layer1" /><defs
     id="defs2" /><g
     inkscape:label="Capa 1"
     inkscape:groupmode="layer"
     id="layer1"><circle
       style="fill:#0a3871;stroke-width:0.0107793;stroke-dasharray:none"
       id="path3898"
       cx="2.6458333"
       cy="2.6458333"
       r="2.6458333" /><path
       d="m 2.7086432,3.9679534 c 0.39214,-0.08309 0.3424,-0.660476 -0.057,-0.661169 -0.39239,-6.82e-4 -0.47026,0.56111 -0.0909,0.656012 0.0736,0.01841 0.0837,0.01876 0.14789,0.0052 z m 0.009,-0.99941 c 0.0985,-0.04492 0.10673,-0.06728 0.13804,-0.376842 0.1088,-1.075763 0.10545,-1.020993 0.0673,-1.097209 -0.10194,-0.2037 -0.35224,-0.242304 -0.5009,-0.07725 -0.0875,0.09717 -0.0925,0.158332 -0.0464,0.564643 0.003,0.02882 0.058,0.577921 0.066,0.661979 0.0194,0.204793 0.0285,0.23948 0.0747,0.285662 0.0514,0.0514 0.13747,0.06809 0.20124,0.03902 z"
       style="fill:#ffffff;stroke-width:0.007;stroke-dasharray:none"
       id="path4006" /></g></svg>
