<svg width="252" height="152" viewBox="0 0 252 152" fill="none" xmlns="http://www.w3.org/2000/svg">
<path d="M20.478 23V5.54545H32.2393V8.58807H24.1683V12.7472H31.6342V15.7898H24.1683V19.9574H32.2734V23H20.478ZM38.7358 5.54545V23H35.1051V5.54545H38.7358ZM53.1648 23.2557C51.8182 23.2557 50.6591 22.983 49.6875 22.4375C48.7216 21.8864 47.9773 21.108 47.4545 20.1023C46.9318 19.0909 46.6705 17.8949 46.6705 16.5142C46.6705 15.1676 46.9318 13.9858 47.4545 12.9688C47.9773 11.9517 48.7131 11.1591 49.6619 10.5909C50.6165 10.0227 51.7358 9.73864 53.0199 9.73864C53.8835 9.73864 54.6875 9.87784 55.4318 10.1562C56.1818 10.429 56.8352 10.8409 57.392 11.392C57.9545 11.9432 58.392 12.6364 58.7045 13.4716C59.017 14.3011 59.1733 15.2727 59.1733 16.3864V17.3835H48.1193V15.1335H55.7557C55.7557 14.6108 55.642 14.1477 55.4148 13.7443C55.1875 13.3409 54.8722 13.0256 54.4688 12.7983C54.071 12.5653 53.608 12.4489 53.0795 12.4489C52.5284 12.4489 52.0398 12.5767 51.6136 12.8324C51.1932 13.0824 50.8636 13.4205 50.625 13.8466C50.3864 14.267 50.2642 14.7358 50.2585 15.2528V17.392C50.2585 18.0398 50.3778 18.5994 50.6165 19.071C50.8608 19.5426 51.2045 19.9062 51.6477 20.1619C52.0909 20.4176 52.6165 20.5455 53.2244 20.5455C53.6278 20.5455 53.9972 20.4886 54.3324 20.375C54.6676 20.2614 54.9545 20.0909 55.1932 19.8636C55.4318 19.6364 55.6136 19.358 55.7386 19.0284L59.0966 19.25C58.9261 20.0568 58.5767 20.7614 58.0483 21.3636C57.5256 21.9602 56.8494 22.4261 56.0199 22.7614C55.196 23.0909 54.2443 23.2557 53.1648 23.2557ZM65.1733 15.4318V23H61.5426V9.90909H65.0028V12.2188H65.1562C65.446 11.4574 65.9318 10.8551 66.6136 10.4119C67.2955 9.96307 68.1222 9.73864 69.0938 9.73864C70.0028 9.73864 70.7955 9.9375 71.4716 10.3352C72.1477 10.733 72.6733 11.3011 73.0483 12.0398C73.4233 12.7727 73.6108 13.6477 73.6108 14.6648V23H69.9801V15.3125C69.9858 14.5114 69.7813 13.8864 69.3665 13.4375C68.9517 12.983 68.3807 12.7557 67.6534 12.7557C67.1648 12.7557 66.733 12.8608 66.358 13.071C65.9886 13.2812 65.6989 13.5881 65.4886 13.9915C65.2841 14.3892 65.179 14.8693 65.1733 15.4318ZM82.3871 23.2557C81.0462 23.2557 79.8928 22.9716 78.9268 22.4034C77.9666 21.8295 77.228 21.0341 76.7109 20.017C76.1996 19 75.9439 17.8295 75.9439 16.5057C75.9439 15.1648 76.2024 13.9886 76.7195 12.9773C77.2422 11.9602 77.9837 11.1676 78.9439 10.5994C79.9041 10.0256 81.0462 9.73864 82.37 9.73864C83.5121 9.73864 84.5121 9.94602 85.37 10.3608C86.228 10.7756 86.907 11.358 87.407 12.108C87.907 12.858 88.1825 13.7386 88.2337 14.75H84.8075C84.7109 14.0966 84.4553 13.571 84.0405 13.1733C83.6314 12.7699 83.0945 12.5682 82.4297 12.5682C81.8672 12.5682 81.3757 12.7216 80.9553 13.0284C80.5405 13.3295 80.2166 13.7699 79.9837 14.3494C79.7507 14.929 79.6342 15.6307 79.6342 16.4545C79.6342 17.2898 79.7479 18 79.9751 18.5852C80.2081 19.1705 80.5348 19.6165 80.9553 19.9233C81.3757 20.2301 81.8672 20.3835 82.4297 20.3835C82.8445 20.3835 83.2166 20.2983 83.5462 20.1278C83.8814 19.9574 84.157 19.7102 84.3729 19.3864C84.5945 19.0568 84.7393 18.6619 84.8075 18.2017H88.2337C88.1768 19.2017 87.9041 20.0824 87.4155 20.8438C86.9325 21.5994 86.2649 22.1903 85.4126 22.6165C84.5604 23.0426 83.5518 23.2557 82.3871 23.2557ZM90.5582 23V9.90909H94.0781V12.1932H94.2145C94.4531 11.3807 94.8537 10.767 95.4162 10.3523C95.9787 9.93182 96.6264 9.72159 97.3594 9.72159C97.5412 9.72159 97.7372 9.73295 97.9474 9.75568C98.1577 9.77841 98.3423 9.80966 98.5014 9.84943V13.071C98.331 13.0199 98.0952 12.9744 97.794 12.9347C97.4929 12.8949 97.2173 12.875 96.9673 12.875C96.4332 12.875 95.956 12.9915 95.5355 13.2244C95.1207 13.4517 94.7912 13.7699 94.5469 14.179C94.3082 14.5881 94.1889 15.0597 94.1889 15.5938V23H90.5582ZM100.379 23V9.90909H104.009V23H100.379ZM102.202 8.22159C101.663 8.22159 101.2 8.04261 100.813 7.68466C100.433 7.32102 100.242 6.88636 100.242 6.38068C100.242 5.88068 100.433 5.4517 100.813 5.09375C101.2 4.73011 101.663 4.54829 102.202 4.54829C102.742 4.54829 103.202 4.73011 103.583 5.09375C103.969 5.4517 104.163 5.88068 104.163 6.38068C104.163 6.88636 103.969 7.32102 103.583 7.68466C103.202 8.04261 102.742 8.22159 102.202 8.22159ZM106.918 27.9091V9.90909H110.497V12.108H110.659C110.818 11.7557 111.048 11.3977 111.349 11.0341C111.656 10.6648 112.054 10.358 112.543 10.1136C113.037 9.86364 113.651 9.73864 114.384 9.73864C115.338 9.73864 116.219 9.98864 117.026 10.4886C117.832 10.983 118.477 11.7301 118.96 12.7301C119.443 13.7244 119.685 14.9716 119.685 16.4716C119.685 17.9318 119.449 19.1648 118.977 20.1705C118.511 21.1705 117.875 21.929 117.068 22.446C116.267 22.9574 115.369 23.2131 114.375 23.2131C113.67 23.2131 113.071 23.0966 112.577 22.8636C112.088 22.6307 111.688 22.3381 111.375 21.9858C111.062 21.6278 110.824 21.267 110.659 20.9034H110.548V27.9091H106.918ZM110.472 16.4545C110.472 17.233 110.58 17.9119 110.795 18.4915C111.011 19.071 111.324 19.5227 111.733 19.8466C112.142 20.1648 112.639 20.3239 113.224 20.3239C113.815 20.3239 114.315 20.1619 114.724 19.8381C115.134 19.5085 115.443 19.054 115.653 18.4744C115.869 17.8892 115.977 17.2159 115.977 16.4545C115.977 15.6989 115.872 15.0341 115.662 14.4602C115.452 13.8864 115.142 13.4375 114.733 13.1136C114.324 12.7898 113.821 12.6278 113.224 12.6278C112.634 12.6278 112.134 12.7841 111.724 13.0966C111.321 13.4091 111.011 13.8523 110.795 14.4261C110.58 15 110.472 15.6761 110.472 16.4545ZM129.068 9.90909V12.6364H121.185V9.90909H129.068ZM122.974 6.77273H126.605V18.9773C126.605 19.3125 126.656 19.5739 126.759 19.7614C126.861 19.9432 127.003 20.071 127.185 20.1449C127.372 20.2187 127.588 20.2557 127.832 20.2557C128.003 20.2557 128.173 20.2415 128.344 20.2131C128.514 20.179 128.645 20.1534 128.736 20.1364L129.307 22.8381C129.125 22.8949 128.869 22.9602 128.54 23.0341C128.21 23.1136 127.81 23.1619 127.338 23.179C126.463 23.2131 125.696 23.0966 125.037 22.8295C124.384 22.5625 123.875 22.1477 123.511 21.5852C123.148 21.0227 122.969 20.3125 122.974 19.4545V6.77273ZM135.166 23.2472C134.331 23.2472 133.587 23.1023 132.933 22.8125C132.28 22.517 131.763 22.0824 131.382 21.5085C131.007 20.929 130.82 20.2074 130.82 19.3438C130.82 18.6165 130.953 18.0057 131.22 17.5114C131.487 17.017 131.851 16.6193 132.311 16.3182C132.771 16.017 133.294 15.7898 133.879 15.6364C134.47 15.483 135.089 15.375 135.737 15.3125C136.499 15.233 137.112 15.1591 137.578 15.0909C138.044 15.017 138.382 14.9091 138.592 14.767C138.803 14.625 138.908 14.4148 138.908 14.1364V14.0852C138.908 13.5455 138.737 13.1278 138.396 12.8324C138.061 12.5369 137.584 12.3892 136.964 12.3892C136.311 12.3892 135.791 12.5341 135.405 12.8239C135.018 13.108 134.763 13.4659 134.638 13.8977L131.28 13.625C131.45 12.8295 131.786 12.142 132.286 11.5625C132.786 10.9773 133.43 10.5284 134.22 10.2159C135.016 9.89773 135.936 9.73864 136.982 9.73864C137.709 9.73864 138.405 9.82386 139.07 9.99432C139.74 10.1648 140.334 10.429 140.851 10.7869C141.374 11.1449 141.786 11.6051 142.087 12.1676C142.388 12.7244 142.538 13.392 142.538 14.1705V23H139.095V21.1847H138.993C138.783 21.5938 138.501 21.9545 138.149 22.267C137.797 22.5739 137.374 22.8153 136.879 22.9915C136.385 23.1619 135.814 23.2472 135.166 23.2472ZM136.206 20.7415C136.74 20.7415 137.212 20.6364 137.621 20.4261C138.03 20.2102 138.351 19.9205 138.584 19.5568C138.817 19.1932 138.933 18.7812 138.933 18.321V16.9318C138.82 17.0057 138.663 17.0739 138.464 17.1364C138.271 17.1932 138.053 17.2472 137.808 17.2983C137.564 17.3437 137.32 17.3864 137.075 17.4261C136.831 17.4602 136.609 17.4915 136.411 17.5199C135.984 17.5824 135.612 17.6818 135.294 17.8182C134.976 17.9545 134.729 18.1392 134.553 18.3722C134.376 18.5994 134.288 18.8835 134.288 19.2244C134.288 19.7188 134.467 20.0966 134.825 20.358C135.189 20.6136 135.649 20.7415 136.206 20.7415ZM150.179 23.2131C149.185 23.2131 148.284 22.9574 147.477 22.446C146.676 21.929 146.04 21.1705 145.568 20.1705C145.102 19.1648 144.869 17.9318 144.869 16.4716C144.869 14.9716 145.111 13.7244 145.594 12.7301C146.077 11.7301 146.719 10.983 147.52 10.4886C148.327 9.98864 149.21 9.73864 150.17 9.73864C150.903 9.73864 151.514 9.86364 152.003 10.1136C152.497 10.358 152.895 10.6648 153.196 11.0341C153.503 11.3977 153.736 11.7557 153.895 12.108H154.006V5.54545H157.628V23H154.048V20.9034H153.895C153.724 21.267 153.483 21.6278 153.17 21.9858C152.864 22.3381 152.463 22.6307 151.969 22.8636C151.48 23.0966 150.884 23.2131 150.179 23.2131ZM151.33 20.3239C151.915 20.3239 152.409 20.1648 152.812 19.8466C153.222 19.5227 153.534 19.071 153.75 18.4915C153.972 17.9119 154.082 17.233 154.082 16.4545C154.082 15.6761 153.974 15 153.759 14.4261C153.543 13.8523 153.23 13.4091 152.821 13.0966C152.412 12.7841 151.915 12.6278 151.33 12.6278C150.733 12.6278 150.23 12.7898 149.821 13.1136C149.412 13.4375 149.102 13.8864 148.892 14.4602C148.682 15.0341 148.577 15.6989 148.577 16.4545C148.577 17.2159 148.682 17.8892 148.892 18.4744C149.108 19.054 149.418 19.5085 149.821 19.8381C150.23 20.1619 150.733 20.3239 151.33 20.3239ZM166.528 23.2557C165.204 23.2557 164.059 22.9744 163.093 22.4119C162.133 21.8437 161.391 21.054 160.869 20.0426C160.346 19.0256 160.085 17.8466 160.085 16.5057C160.085 15.1534 160.346 13.9716 160.869 12.9602C161.391 11.9432 162.133 11.1534 163.093 10.5909C164.059 10.0227 165.204 9.73864 166.528 9.73864C167.852 9.73864 168.994 10.0227 169.954 10.5909C170.92 11.1534 171.664 11.9432 172.187 12.9602C172.71 13.9716 172.971 15.1534 172.971 16.5057C172.971 17.8466 172.71 19.0256 172.187 20.0426C171.664 21.054 170.92 21.8437 169.954 22.4119C168.994 22.9744 167.852 23.2557 166.528 23.2557ZM166.545 20.4432C167.147 20.4432 167.65 20.2727 168.053 19.9318C168.457 19.5852 168.761 19.1136 168.965 18.517C169.175 17.9205 169.281 17.2415 169.281 16.4801C169.281 15.7188 169.175 15.0398 168.965 14.4432C168.761 13.8466 168.457 13.375 168.053 13.0284C167.65 12.6818 167.147 12.5085 166.545 12.5085C165.937 12.5085 165.425 12.6818 165.011 13.0284C164.602 13.375 164.292 13.8466 164.082 14.4432C163.877 15.0398 163.775 15.7188 163.775 16.4801C163.775 17.2415 163.877 17.9205 164.082 18.517C164.292 19.1136 164.602 19.5852 165.011 19.9318C165.425 20.2727 165.937 20.4432 166.545 20.4432ZM175.332 23V9.90909H178.852V12.1932H178.988C179.227 11.3807 179.627 10.767 180.19 10.3523C180.752 9.93182 181.4 9.72159 182.133 9.72159C182.315 9.72159 182.511 9.73295 182.721 9.75568C182.931 9.77841 183.116 9.80966 183.275 9.84943V13.071C183.104 13.0199 182.869 12.9744 182.567 12.9347C182.266 12.8949 181.991 12.875 181.741 12.875C181.207 12.875 180.729 12.9915 180.309 13.2244C179.894 13.4517 179.565 13.7699 179.32 14.179C179.082 14.5881 178.962 15.0597 178.962 15.5938V23H175.332ZM194.44 23.2472C193.604 23.2472 192.86 23.1023 192.207 22.8125C191.553 22.517 191.036 22.0824 190.656 21.5085C190.281 20.929 190.093 20.2074 190.093 19.3438C190.093 18.6165 190.227 18.0057 190.494 17.5114C190.761 17.017 191.124 16.6193 191.585 16.3182C192.045 16.017 192.567 15.7898 193.153 15.6364C193.744 15.483 194.363 15.375 195.011 15.3125C195.772 15.233 196.386 15.1591 196.852 15.0909C197.317 15.017 197.656 14.9091 197.866 14.767C198.076 14.625 198.181 14.4148 198.181 14.1364V14.0852C198.181 13.5455 198.011 13.1278 197.67 12.8324C197.335 12.5369 196.857 12.3892 196.238 12.3892C195.585 12.3892 195.065 12.5341 194.678 12.8239C194.292 13.108 194.036 13.4659 193.911 13.8977L190.553 13.625C190.724 12.8295 191.059 12.142 191.559 11.5625C192.059 10.9773 192.704 10.5284 193.494 10.2159C194.289 9.89773 195.21 9.73864 196.255 9.73864C196.982 9.73864 197.678 9.82386 198.343 9.99432C199.013 10.1648 199.607 10.429 200.124 10.7869C200.647 11.1449 201.059 11.6051 201.36 12.1676C201.661 12.7244 201.812 13.392 201.812 14.1705V23H198.369V21.1847H198.266C198.056 21.5938 197.775 21.9545 197.423 22.267C197.07 22.5739 196.647 22.8153 196.153 22.9915C195.658 23.1619 195.087 23.2472 194.44 23.2472ZM195.479 20.7415C196.013 20.7415 196.485 20.6364 196.894 20.4261C197.303 20.2102 197.624 19.9205 197.857 19.5568C198.09 19.1932 198.207 18.7812 198.207 18.321V16.9318C198.093 17.0057 197.937 17.0739 197.738 17.1364C197.545 17.1932 197.326 17.2472 197.082 17.2983C196.837 17.3437 196.593 17.3864 196.349 17.4261C196.104 17.4602 195.883 17.4915 195.684 17.5199C195.258 17.5824 194.886 17.6818 194.567 17.8182C194.249 17.9545 194.002 18.1392 193.826 18.3722C193.65 18.5994 193.562 18.8835 193.562 19.2244C193.562 19.7188 193.741 20.0966 194.099 20.358C194.462 20.6136 194.923 20.7415 195.479 20.7415ZM213.023 17.4261V9.90909H216.654V23H213.168V20.6222H213.032C212.737 21.3892 212.245 22.0057 211.558 22.4716C210.876 22.9375 210.043 23.1705 209.06 23.1705C208.185 23.1705 207.415 22.9716 206.751 22.5739C206.086 22.1761 205.566 21.6108 205.191 20.8778C204.822 20.1449 204.634 19.267 204.629 18.2443V9.90909H208.259V17.5966C208.265 18.3693 208.472 18.9801 208.881 19.429C209.29 19.8778 209.839 20.1023 210.526 20.1023C210.964 20.1023 211.373 20.0028 211.754 19.804C212.134 19.5994 212.441 19.2983 212.674 18.9006C212.913 18.5028 213.029 18.0114 213.023 17.4261ZM209.35 8.22159L211.157 4.34375H214.515L211.915 8.22159H209.35ZM223.189 15.4318V23H219.558V9.90909H223.018V12.2188H223.172C223.462 11.4574 223.947 10.8551 224.629 10.4119C225.311 9.96307 226.138 9.73864 227.109 9.73864C228.018 9.73864 228.811 9.9375 229.487 10.3352C230.163 10.733 230.689 11.3011 231.064 12.0398C231.439 12.7727 231.626 13.6477 231.626 14.6648V23H227.996V15.3125C228.001 14.5114 227.797 13.8864 227.382 13.4375C226.967 12.983 226.396 12.7557 225.669 12.7557C225.18 12.7557 224.749 12.8608 224.374 13.071C224.004 13.2812 223.714 13.5881 223.504 13.9915C223.3 14.3892 223.195 14.8693 223.189 15.4318ZM28.8217 44.4318V52H25.1911V38.9091H28.6513V41.2188H28.8047C29.0945 40.4574 29.5803 39.8551 30.2621 39.4119C30.9439 38.9631 31.7706 38.7386 32.7422 38.7386C33.6513 38.7386 34.4439 38.9375 35.12 39.3352C35.7962 39.733 36.3217 40.3011 36.6967 41.0398C37.0717 41.7727 37.2592 42.6477 37.2592 43.6648V52H33.6286V44.3125C33.6342 43.5114 33.4297 42.8864 33.0149 42.4375C32.6001 41.983 32.0291 41.7557 31.3018 41.7557C30.8132 41.7557 30.3814 41.8608 30.0064 42.071C29.6371 42.2812 29.3473 42.5881 29.1371 42.9915C28.9325 43.3892 28.8274 43.8693 28.8217 44.4318ZM46.0355 52.2557C44.7116 52.2557 43.5668 51.9744 42.6009 51.4119C41.6406 50.8437 40.8991 50.054 40.3764 49.0426C39.8537 48.0256 39.5923 46.8466 39.5923 45.5057C39.5923 44.1534 39.8537 42.9716 40.3764 41.9602C40.8991 40.9432 41.6406 40.1534 42.6009 39.5909C43.5668 39.0227 44.7116 38.7386 46.0355 38.7386C47.3594 38.7386 48.5014 39.0227 49.4616 39.5909C50.4276 40.1534 51.1719 40.9432 51.6946 41.9602C52.2173 42.9716 52.4787 44.1534 52.4787 45.5057C52.4787 46.8466 52.2173 48.0256 51.6946 49.0426C51.1719 50.054 50.4276 50.8437 49.4616 51.4119C48.5014 51.9744 47.3594 52.2557 46.0355 52.2557ZM46.0526 49.4432C46.6548 49.4432 47.1577 49.2727 47.5611 48.9318C47.9645 48.5852 48.2685 48.1136 48.473 47.517C48.6832 46.9205 48.7884 46.2415 48.7884 45.4801C48.7884 44.7188 48.6832 44.0398 48.473 43.4432C48.2685 42.8466 47.9645 42.375 47.5611 42.0284C47.1577 41.6818 46.6548 41.5085 46.0526 41.5085C45.4446 41.5085 44.9332 41.6818 44.5185 42.0284C44.1094 42.375 43.7997 42.8466 43.5895 43.4432C43.3849 44.0398 43.2827 44.7188 43.2827 45.4801C43.2827 46.2415 43.3849 46.9205 43.5895 47.517C43.7997 48.1136 44.1094 48.5852 44.5185 48.9318C44.9332 49.2727 45.4446 49.4432 46.0526 49.4432ZM71.2862 42.642L67.9624 42.8466C67.9055 42.5625 67.7834 42.3068 67.5959 42.0795C67.4084 41.8466 67.1612 41.6619 66.8544 41.5256C66.5533 41.3835 66.1925 41.3125 65.772 41.3125C65.2095 41.3125 64.7351 41.4318 64.3487 41.6705C63.9624 41.9034 63.7692 42.2159 63.7692 42.608C63.7692 42.9205 63.8942 43.1847 64.1442 43.4006C64.3942 43.6165 64.8232 43.7898 65.4311 43.9205L67.8004 44.3977C69.0732 44.6591 70.022 45.0795 70.647 45.6591C71.272 46.2386 71.5845 47 71.5845 47.9432C71.5845 48.8011 71.3317 49.554 70.826 50.2017C70.326 50.8494 69.6385 51.3551 68.7635 51.7188C67.8942 52.0767 66.8913 52.2557 65.755 52.2557C64.022 52.2557 62.6413 51.8949 61.6129 51.1733C60.5902 50.446 59.9908 49.4574 59.8146 48.2074L63.3857 48.0199C63.4936 48.5483 63.755 48.9517 64.1697 49.2301C64.5845 49.5028 65.1158 49.6392 65.7635 49.6392C66.3999 49.6392 66.9112 49.517 67.2976 49.2727C67.6896 49.0227 67.8885 48.7017 67.8942 48.3097C67.8885 47.9801 67.7493 47.7102 67.4766 47.5C67.2038 47.2841 66.7834 47.1193 66.2152 47.0057L63.9482 46.554C62.6697 46.2983 61.718 45.8551 61.093 45.2244C60.4737 44.5937 60.1641 43.7898 60.1641 42.8125C60.1641 41.9716 60.3913 41.2472 60.8459 40.6392C61.3061 40.0312 61.951 39.5625 62.7805 39.233C63.6158 38.9034 64.593 38.7386 65.7124 38.7386C67.3658 38.7386 68.6669 39.0881 69.6158 39.7869C70.5703 40.4858 71.1271 41.4375 71.2862 42.642ZM79.8366 52.2557C78.4901 52.2557 77.331 51.983 76.3594 51.4375C75.3935 50.8864 74.6491 50.108 74.1264 49.1023C73.6037 48.0909 73.3423 46.8949 73.3423 45.5142C73.3423 44.1676 73.6037 42.9858 74.1264 41.9688C74.6491 40.9517 75.3849 40.1591 76.3338 39.5909C77.2884 39.0227 78.4077 38.7386 79.6918 38.7386C80.5554 38.7386 81.3594 38.8778 82.1037 39.1562C82.8537 39.429 83.5071 39.8409 84.0639 40.392C84.6264 40.9432 85.0639 41.6364 85.3764 42.4716C85.6889 43.3011 85.8452 44.2727 85.8452 45.3864V46.3835H74.7912V44.1335H82.4276C82.4276 43.6108 82.3139 43.1477 82.0866 42.7443C81.8594 42.3409 81.544 42.0256 81.1406 41.7983C80.7429 41.5653 80.2798 41.4489 79.7514 41.4489C79.2003 41.4489 78.7116 41.5767 78.2855 41.8324C77.8651 42.0824 77.5355 42.4205 77.2969 42.8466C77.0582 43.267 76.9361 43.7358 76.9304 44.2528V46.392C76.9304 47.0398 77.0497 47.5994 77.2884 48.071C77.5327 48.5426 77.8764 48.9062 78.3196 49.1619C78.7628 49.4176 79.2884 49.5455 79.8963 49.5455C80.2997 49.5455 80.669 49.4886 81.0043 49.375C81.3395 49.2614 81.6264 49.0909 81.8651 48.8636C82.1037 48.6364 82.2855 48.358 82.4105 48.0284L85.7685 48.25C85.598 49.0568 85.2486 49.7614 84.7202 50.3636C84.1974 50.9602 83.5213 51.4261 82.6918 51.7614C81.8679 52.0909 80.9162 52.2557 79.8366 52.2557ZM97.3999 44.4318V52H93.7692V34.5455H97.2976V41.2188H97.451C97.7464 40.446 98.2237 39.8409 98.8828 39.4034C99.5419 38.9602 100.369 38.7386 101.363 38.7386C102.272 38.7386 103.065 38.9375 103.741 39.3352C104.423 39.7273 104.951 40.2926 105.326 41.0312C105.707 41.7642 105.894 42.642 105.888 43.6648V52H102.258V44.3125C102.263 43.5057 102.059 42.8778 101.644 42.429C101.235 41.9801 100.661 41.7557 99.9226 41.7557C99.4283 41.7557 98.9908 41.8608 98.6101 42.071C98.2351 42.2812 97.9396 42.5881 97.7237 42.9915C97.5135 43.3892 97.4055 43.8693 97.3999 44.4318ZM112.479 52.2472C111.643 52.2472 110.899 52.1023 110.246 51.8125C109.592 51.517 109.075 51.0824 108.695 50.5085C108.32 49.929 108.132 49.2074 108.132 48.3438C108.132 47.6165 108.266 47.0057 108.533 46.5114C108.8 46.017 109.163 45.6193 109.624 45.3182C110.084 45.017 110.607 44.7898 111.192 44.6364C111.783 44.483 112.402 44.375 113.05 44.3125C113.811 44.233 114.425 44.1591 114.891 44.0909C115.357 44.017 115.695 43.9091 115.905 43.767C116.115 43.625 116.22 43.4148 116.22 43.1364V43.0852C116.22 42.5455 116.05 42.1278 115.709 41.8324C115.374 41.5369 114.896 41.3892 114.277 41.3892C113.624 41.3892 113.104 41.5341 112.717 41.8239C112.331 42.108 112.075 42.4659 111.95 42.8977L108.592 42.625C108.763 41.8295 109.098 41.142 109.598 40.5625C110.098 39.9773 110.743 39.5284 111.533 39.2159C112.328 38.8977 113.249 38.7386 114.294 38.7386C115.021 38.7386 115.717 38.8239 116.382 38.9943C117.053 39.1648 117.646 39.429 118.163 39.7869C118.686 40.1449 119.098 40.6051 119.399 41.1676C119.7 41.7244 119.851 42.392 119.851 43.1705V52H116.408V50.1847H116.305C116.095 50.5938 115.814 50.9545 115.462 51.267C115.109 51.5739 114.686 51.8153 114.192 51.9915C113.697 52.1619 113.126 52.2472 112.479 52.2472ZM113.518 49.7415C114.053 49.7415 114.524 49.6364 114.933 49.4261C115.342 49.2102 115.663 48.9205 115.896 48.5568C116.129 48.1932 116.246 47.7812 116.246 47.321V45.9318C116.132 46.0057 115.976 46.0739 115.777 46.1364C115.584 46.1932 115.365 46.2472 115.121 46.2983C114.876 46.3437 114.632 46.3864 114.388 46.4261C114.143 46.4602 113.922 46.4915 113.723 46.5199C113.297 46.5824 112.925 46.6818 112.607 46.8182C112.288 46.9545 112.041 47.1392 111.865 47.3722C111.689 47.5994 111.601 47.8835 111.601 48.2244C111.601 48.7188 111.78 49.0966 112.138 49.358C112.501 49.6136 112.962 49.7415 113.518 49.7415ZM131.955 52.2472C131.12 52.2472 130.376 52.1023 129.722 51.8125C129.069 51.517 128.552 51.0824 128.171 50.5085C127.796 49.929 127.609 49.2074 127.609 48.3438C127.609 47.6165 127.742 47.0057 128.009 46.5114C128.276 46.017 128.64 45.6193 129.1 45.3182C129.56 45.017 130.083 44.7898 130.668 44.6364C131.259 44.483 131.879 44.375 132.526 44.3125C133.288 44.233 133.901 44.1591 134.367 44.0909C134.833 44.017 135.171 43.9091 135.381 43.767C135.592 43.625 135.697 43.4148 135.697 43.1364V43.0852C135.697 42.5455 135.526 42.1278 135.185 41.8324C134.85 41.5369 134.373 41.3892 133.754 41.3892C133.1 41.3892 132.58 41.5341 132.194 41.8239C131.808 42.108 131.552 42.4659 131.427 42.8977L128.069 42.625C128.239 41.8295 128.575 41.142 129.075 40.5625C129.575 39.9773 130.219 39.5284 131.009 39.2159C131.805 38.8977 132.725 38.7386 133.771 38.7386C134.498 38.7386 135.194 38.8239 135.859 38.9943C136.529 39.1648 137.123 39.429 137.64 39.7869C138.163 40.1449 138.575 40.6051 138.876 41.1676C139.177 41.7244 139.327 42.392 139.327 43.1705V52H135.884V50.1847H135.782C135.572 50.5938 135.29 50.9545 134.938 51.267C134.586 51.5739 134.163 51.8153 133.668 51.9915C133.174 52.1619 132.603 52.2472 131.955 52.2472ZM132.995 49.7415C133.529 49.7415 134.001 49.6364 134.41 49.4261C134.819 49.2102 135.14 48.9205 135.373 48.5568C135.606 48.1932 135.722 47.7812 135.722 47.321V45.9318C135.609 46.0057 135.452 46.0739 135.254 46.1364C135.06 46.1932 134.842 46.2472 134.597 46.2983C134.353 46.3437 134.109 46.3864 133.864 46.4261C133.62 46.4602 133.398 46.4915 133.2 46.5199C132.773 46.5824 132.401 46.6818 132.083 46.8182C131.765 46.9545 131.518 47.1392 131.342 47.3722C131.165 47.5994 131.077 47.8835 131.077 48.2244C131.077 48.7188 131.256 49.0966 131.614 49.358C131.978 49.6136 132.438 49.7415 132.995 49.7415ZM148.059 52.2557C146.718 52.2557 145.565 51.9716 144.599 51.4034C143.638 50.8295 142.9 50.0341 142.383 49.017C141.871 48 141.616 46.8295 141.616 45.5057C141.616 44.1648 141.874 42.9886 142.391 41.9773C142.914 40.9602 143.656 40.1676 144.616 39.5994C145.576 39.0256 146.718 38.7386 148.042 38.7386C149.184 38.7386 150.184 38.946 151.042 39.3608C151.9 39.7756 152.579 40.358 153.079 41.108C153.579 41.858 153.854 42.7386 153.906 43.75H150.479C150.383 43.0966 150.127 42.571 149.712 42.1733C149.303 41.7699 148.766 41.5682 148.102 41.5682C147.539 41.5682 147.048 41.7216 146.627 42.0284C146.212 42.3295 145.888 42.7699 145.656 43.3494C145.423 43.929 145.306 44.6307 145.306 45.4545C145.306 46.2898 145.42 47 145.647 47.5852C145.88 48.1705 146.207 48.6165 146.627 48.9233C147.048 49.2301 147.539 49.3835 148.102 49.3835C148.516 49.3835 148.888 49.2983 149.218 49.1278C149.553 48.9574 149.829 48.7102 150.045 48.3864C150.266 48.0568 150.411 47.6619 150.479 47.2017H153.906C153.849 48.2017 153.576 49.0824 153.087 49.8438C152.604 50.5994 151.937 51.1903 151.085 51.6165C150.232 52.0426 149.224 52.2557 148.059 52.2557ZM163.193 38.9091V41.6364H155.31V38.9091H163.193ZM157.099 35.7727H160.73V47.9773C160.73 48.3125 160.781 48.5739 160.884 48.7614C160.986 48.9432 161.128 49.071 161.31 49.1449C161.497 49.2187 161.713 49.2557 161.957 49.2557C162.128 49.2557 162.298 49.2415 162.469 49.2131C162.639 49.179 162.77 49.1534 162.861 49.1364L163.432 51.8381C163.25 51.8949 162.994 51.9602 162.665 52.0341C162.335 52.1136 161.935 52.1619 161.463 52.179C160.588 52.2131 159.821 52.0966 159.162 51.8295C158.509 51.5625 158 51.1477 157.636 50.5852C157.273 50.0227 157.094 49.3125 157.099 48.4545V35.7727ZM165.558 52V38.9091H169.189V52H165.558ZM167.382 37.2216C166.842 37.2216 166.379 37.0426 165.993 36.6847C165.612 36.321 165.422 35.8864 165.422 35.3807C165.422 34.8807 165.612 34.4517 165.993 34.0938C166.379 33.7301 166.842 33.5483 167.382 33.5483C167.922 33.5483 168.382 33.7301 168.763 34.0938C169.149 34.4517 169.342 34.8807 169.342 35.3807C169.342 35.8864 169.149 36.321 168.763 36.6847C168.382 37.0426 167.922 37.2216 167.382 37.2216ZM184.302 38.9091L179.725 52H175.634L171.058 38.9091H174.893L177.612 48.2756H177.748L180.458 38.9091H184.302ZM189.541 52.2472C188.706 52.2472 187.962 52.1023 187.308 51.8125C186.655 51.517 186.138 51.0824 185.757 50.5085C185.382 49.929 185.195 49.2074 185.195 48.3438C185.195 47.6165 185.328 47.0057 185.595 46.5114C185.862 46.017 186.226 45.6193 186.686 45.3182C187.146 45.017 187.669 44.7898 188.254 44.6364C188.845 44.483 189.464 44.375 190.112 44.3125C190.874 44.233 191.487 44.1591 191.953 44.0909C192.419 44.017 192.757 43.9091 192.967 43.767C193.178 43.625 193.283 43.4148 193.283 43.1364V43.0852C193.283 42.5455 193.112 42.1278 192.771 41.8324C192.436 41.5369 191.959 41.3892 191.339 41.3892C190.686 41.3892 190.166 41.5341 189.78 41.8239C189.393 42.108 189.138 42.4659 189.013 42.8977L185.655 42.625C185.825 41.8295 186.161 41.142 186.661 40.5625C187.161 39.9773 187.805 39.5284 188.595 39.2159C189.391 38.8977 190.311 38.7386 191.357 38.7386C192.084 38.7386 192.78 38.8239 193.445 38.9943C194.115 39.1648 194.709 39.429 195.226 39.7869C195.749 40.1449 196.161 40.6051 196.462 41.1676C196.763 41.7244 196.913 42.392 196.913 43.1705V52H193.47V50.1847H193.368C193.158 50.5938 192.876 50.9545 192.524 51.267C192.172 51.5739 191.749 51.8153 191.254 51.9915C190.76 52.1619 190.189 52.2472 189.541 52.2472ZM190.581 49.7415C191.115 49.7415 191.587 49.6364 191.996 49.4261C192.405 49.2102 192.726 48.9205 192.959 48.5568C193.192 48.1932 193.308 47.7812 193.308 47.321V45.9318C193.195 46.0057 193.038 46.0739 192.839 46.1364C192.646 46.1932 192.428 46.2472 192.183 46.2983C191.939 46.3437 191.695 46.3864 191.45 46.4261C191.206 46.4602 190.984 46.4915 190.786 46.5199C190.359 46.5824 189.987 46.6818 189.669 46.8182C189.351 46.9545 189.104 47.1392 188.928 47.3722C188.751 47.5994 188.663 47.8835 188.663 48.2244C188.663 48.7188 188.842 49.0966 189.2 49.358C189.564 49.6136 190.024 49.7415 190.581 49.7415ZM204.554 52.2131C203.56 52.2131 202.659 51.9574 201.852 51.446C201.051 50.929 200.415 50.1705 199.943 49.1705C199.477 48.1648 199.244 46.9318 199.244 45.4716C199.244 43.9716 199.486 42.7244 199.969 41.7301C200.452 40.7301 201.094 39.983 201.895 39.4886C202.702 38.9886 203.585 38.7386 204.545 38.7386C205.278 38.7386 205.889 38.8636 206.378 39.1136C206.872 39.358 207.27 39.6648 207.571 40.0341C207.878 40.3977 208.111 40.7557 208.27 41.108H208.381V34.5455H212.003V52H208.423V49.9034H208.27C208.099 50.267 207.858 50.6278 207.545 50.9858C207.239 51.3381 206.838 51.6307 206.344 51.8636C205.855 52.0966 205.259 52.2131 204.554 52.2131ZM205.705 49.3239C206.29 49.3239 206.784 49.1648 207.188 48.8466C207.597 48.5227 207.909 48.071 208.125 47.4915C208.347 46.9119 208.457 46.233 208.457 45.4545C208.457 44.6761 208.349 44 208.134 43.4261C207.918 42.8523 207.605 42.4091 207.196 42.0966C206.787 41.7841 206.29 41.6278 205.705 41.6278C205.108 41.6278 204.605 41.7898 204.196 42.1136C203.787 42.4375 203.477 42.8864 203.267 43.4602C203.057 44.0341 202.952 44.6989 202.952 45.4545C202.952 46.2159 203.057 46.8892 203.267 47.4744C203.483 48.054 203.793 48.5085 204.196 48.8381C204.605 49.1619 205.108 49.3239 205.705 49.3239ZM220.903 52.2557C219.579 52.2557 218.434 51.9744 217.468 51.4119C216.508 50.8437 215.766 50.054 215.244 49.0426C214.721 48.0256 214.46 46.8466 214.46 45.5057C214.46 44.1534 214.721 42.9716 215.244 41.9602C215.766 40.9432 216.508 40.1534 217.468 39.5909C218.434 39.0227 219.579 38.7386 220.903 38.7386C222.227 38.7386 223.369 39.0227 224.329 39.5909C225.295 40.1534 226.039 40.9432 226.562 41.9602C227.085 42.9716 227.346 44.1534 227.346 45.5057C227.346 46.8466 227.085 48.0256 226.562 49.0426C226.039 50.054 225.295 50.8437 224.329 51.4119C223.369 51.9744 222.227 52.2557 220.903 52.2557ZM220.92 49.4432C221.522 49.4432 222.025 49.2727 222.428 48.9318C222.832 48.5852 223.136 48.1136 223.34 47.517C223.55 46.9205 223.656 46.2415 223.656 45.4801C223.656 44.7188 223.55 44.0398 223.34 43.4432C223.136 42.8466 222.832 42.375 222.428 42.0284C222.025 41.6818 221.522 41.5085 220.92 41.5085C220.312 41.5085 219.8 41.6818 219.386 42.0284C218.977 42.375 218.667 42.8466 218.457 43.4432C218.252 44.0398 218.15 44.7188 218.15 45.4801C218.15 46.2415 218.252 46.9205 218.457 47.517C218.667 48.1136 218.977 48.5852 219.386 48.9318C219.8 49.2727 220.312 49.4432 220.92 49.4432Z" fill="#343A40"/>
<path d="M20.2322 80.3636V92H18.8232V80.3636H20.2322ZM24.2166 86.75V92H22.8757V83.2727H24.1712V84.6364H24.2848C24.4893 84.1932 24.8 83.8371 25.2166 83.5682C25.6333 83.2955 26.1712 83.1591 26.8303 83.1591C27.4212 83.1591 27.9382 83.2803 28.3814 83.5227C28.8246 83.7614 29.1693 84.125 29.4155 84.6136C29.6617 85.0985 29.7848 85.7121 29.7848 86.4545V92H28.4439V86.5455C28.4439 85.8598 28.2659 85.3258 27.9098 84.9432C27.5537 84.5568 27.0651 84.3636 26.4439 84.3636C26.0159 84.3636 25.6333 84.4564 25.2962 84.642C24.9628 84.8277 24.6996 85.0985 24.5064 85.4545C24.3132 85.8106 24.2166 86.2424 24.2166 86.75ZM35.7578 95.4545C35.1101 95.4545 34.5533 95.3712 34.0874 95.2045C33.6214 95.0417 33.2332 94.8258 32.9226 94.5568C32.6158 94.2917 32.3714 94.0076 32.1896 93.7045L33.2578 92.9545C33.379 93.1136 33.5324 93.2955 33.718 93.5C33.9036 93.7083 34.1574 93.8883 34.4794 94.0398C34.8052 94.1951 35.2313 94.2727 35.7578 94.2727C36.4624 94.2727 37.0438 94.1023 37.5021 93.7614C37.9605 93.4205 38.1896 92.8864 38.1896 92.1591V90.3864H38.076C37.9775 90.5455 37.8374 90.7424 37.6555 90.9773C37.4775 91.2083 37.2199 91.4148 36.8828 91.5966C36.5495 91.7746 36.0987 91.8636 35.5305 91.8636C34.826 91.8636 34.1934 91.697 33.6328 91.3636C33.076 91.0303 32.6347 90.5455 32.3089 89.9091C31.987 89.2727 31.826 88.5 31.826 87.5909C31.826 86.697 31.9832 85.9186 32.2976 85.2557C32.612 84.589 33.0495 84.0739 33.6101 83.7102C34.1707 83.3428 34.8184 83.1591 35.5533 83.1591C36.1214 83.1591 36.5722 83.2538 36.9055 83.4432C37.2427 83.6288 37.5002 83.8409 37.6783 84.0795C37.8601 84.3144 38.0002 84.5076 38.0987 84.6591H38.2351V83.2727H39.5305V92.25C39.5305 93 39.3601 93.6098 39.0192 94.0795C38.6821 94.553 38.2275 94.8996 37.6555 95.1193C37.0874 95.3428 36.4548 95.4545 35.7578 95.4545ZM35.7124 90.6591C36.2502 90.6591 36.7048 90.536 37.076 90.2898C37.4472 90.0436 37.7294 89.6894 37.9226 89.2273C38.1158 88.7652 38.2124 88.2121 38.2124 87.5682C38.2124 86.9394 38.1177 86.3845 37.9283 85.9034C37.7389 85.4223 37.4586 85.0455 37.0874 84.7727C36.7161 84.5 36.2578 84.3636 35.7124 84.3636C35.1442 84.3636 34.6707 84.5076 34.2919 84.7955C33.9169 85.0833 33.6347 85.4697 33.4453 85.9545C33.2597 86.4394 33.1669 86.9773 33.1669 87.5682C33.1669 88.1742 33.2616 88.7102 33.451 89.1761C33.6442 89.6383 33.9283 90.0019 34.3033 90.267C34.6821 90.5284 35.1518 90.6591 35.7124 90.6591ZM41.9851 92V83.2727H43.2805V84.5909H43.3714C43.5305 84.1591 43.8184 83.8087 44.2351 83.5398C44.6518 83.2708 45.1214 83.1364 45.6442 83.1364C45.7427 83.1364 45.8658 83.1383 46.0135 83.142C46.1612 83.1458 46.273 83.1515 46.3487 83.1591V84.5227C46.3033 84.5114 46.1991 84.4943 46.0362 84.4716C45.8771 84.4451 45.7086 84.4318 45.5305 84.4318C45.1063 84.4318 44.7275 84.5208 44.3942 84.6989C44.0646 84.8731 43.8033 85.1155 43.6101 85.4261C43.4207 85.733 43.326 86.0833 43.326 86.4773V92H41.9851ZM51.3317 92.1818C50.4908 92.1818 49.7654 91.9962 49.1555 91.625C48.5495 91.25 48.0817 90.7273 47.7521 90.0568C47.4264 89.3826 47.2635 88.5985 47.2635 87.7045C47.2635 86.8106 47.4264 86.0227 47.7521 85.3409C48.0817 84.6553 48.54 84.1212 49.1271 83.7386C49.718 83.3523 50.4074 83.1591 51.1953 83.1591C51.6499 83.1591 52.0987 83.2348 52.5419 83.3864C52.9851 83.5379 53.3885 83.7841 53.7521 84.125C54.1158 84.4621 54.4055 84.9091 54.6214 85.4659C54.8374 86.0227 54.9453 86.7083 54.9453 87.5227V88.0909H48.218V86.9318H53.5817C53.5817 86.4394 53.4832 86 53.2862 85.6136C53.093 85.2273 52.8165 84.9223 52.4567 84.6989C52.1006 84.4754 51.6802 84.3636 51.1953 84.3636C50.6612 84.3636 50.1991 84.4962 49.8089 84.7614C49.4226 85.0227 49.1252 85.3636 48.9169 85.7841C48.7086 86.2045 48.6044 86.6553 48.6044 87.1364V87.9091C48.6044 88.5682 48.718 89.1269 48.9453 89.5852C49.1764 90.0398 49.4964 90.3864 49.9055 90.625C50.3146 90.8598 50.79 90.9773 51.3317 90.9773C51.6839 90.9773 52.0021 90.928 52.2862 90.8295C52.5741 90.7273 52.8222 90.5758 53.0305 90.375C53.2389 90.1705 53.3999 89.9167 53.5135 89.6136L54.8089 89.9773C54.6726 90.4167 54.4434 90.803 54.1214 91.1364C53.7995 91.4659 53.4018 91.7235 52.9283 91.9091C52.4548 92.0909 51.9226 92.1818 51.3317 92.1818ZM63.1669 85.2273L61.9624 85.5682C61.8866 85.3674 61.7749 85.1723 61.6271 84.983C61.4832 84.7898 61.2862 84.6307 61.0362 84.5057C60.7862 84.3807 60.4661 84.3182 60.076 84.3182C59.5419 84.3182 59.0968 84.4413 58.7408 84.6875C58.3885 84.9299 58.2124 85.2386 58.2124 85.6136C58.2124 85.947 58.3336 86.2102 58.576 86.4034C58.8184 86.5966 59.1972 86.7576 59.7124 86.8864L61.0078 87.2045C61.7881 87.3939 62.3696 87.6837 62.7521 88.0739C63.1347 88.4602 63.326 88.9583 63.326 89.5682C63.326 90.0682 63.1821 90.5152 62.8942 90.9091C62.6101 91.303 62.2124 91.6136 61.701 91.8409C61.1896 92.0682 60.5949 92.1818 59.9169 92.1818C59.0268 92.1818 58.29 91.9886 57.7067 91.6023C57.1233 91.2159 56.754 90.6515 56.5987 89.9091L57.8714 89.5909C57.9927 90.0606 58.2218 90.4129 58.5589 90.6477C58.8999 90.8826 59.3449 91 59.8942 91C60.5192 91 61.0154 90.8674 61.3828 90.6023C61.754 90.3333 61.9396 90.0114 61.9396 89.6364C61.9396 89.3333 61.8336 89.0795 61.6214 88.875C61.4093 88.6667 61.0836 88.5114 60.6442 88.4091L59.1896 88.0682C58.3904 87.8788 57.8033 87.5852 57.4283 87.1875C57.0571 86.786 56.8714 86.2841 56.8714 85.6818C56.8714 85.1894 57.0097 84.7538 57.2862 84.375C57.5665 83.9962 57.9472 83.6989 58.4283 83.483C58.9131 83.267 59.4624 83.1591 60.076 83.1591C60.9396 83.1591 61.6177 83.3485 62.1101 83.7273C62.6063 84.1061 62.9586 84.6061 63.1669 85.2273ZM67.9126 92.2045C67.3596 92.2045 66.8577 92.1004 66.407 91.892C65.9562 91.6799 65.5982 91.375 65.3331 90.9773C65.0679 90.5758 64.9354 90.0909 64.9354 89.5227C64.9354 89.0227 65.0339 88.6174 65.2308 88.3068C65.4278 87.9924 65.6911 87.7462 66.0206 87.5682C66.3501 87.3902 66.7138 87.2576 67.1115 87.1705C67.513 87.0795 67.9164 87.0076 68.3217 86.9545C68.852 86.8864 69.282 86.8352 69.6115 86.8011C69.9448 86.7633 70.1873 86.7008 70.3388 86.6136C70.4941 86.5265 70.5717 86.375 70.5717 86.1591V86.1136C70.5717 85.553 70.4183 85.1174 70.1115 84.8068C69.8085 84.4962 69.3482 84.3409 68.7308 84.3409C68.0907 84.3409 67.5888 84.4811 67.2251 84.7614C66.8615 85.0417 66.6058 85.3409 66.4581 85.6591L65.1854 85.2045C65.4126 84.6742 65.7157 84.2614 66.0945 83.9659C66.477 83.6667 66.8937 83.4583 67.3445 83.3409C67.799 83.2197 68.246 83.1591 68.6854 83.1591C68.9657 83.1591 69.2876 83.1932 69.6513 83.2614C70.0187 83.3258 70.3729 83.4602 70.7138 83.6648C71.0585 83.8693 71.3445 84.178 71.5717 84.5909C71.799 85.0038 71.9126 85.5568 71.9126 86.25V92H70.5717V90.8182H70.5036C70.4126 91.0076 70.2611 91.2102 70.049 91.4261C69.8369 91.642 69.5547 91.8258 69.2024 91.9773C68.8501 92.1288 68.4202 92.2045 67.9126 92.2045ZM68.1172 91C68.6475 91 69.0945 90.8958 69.4581 90.6875C69.8255 90.4792 70.102 90.2102 70.2876 89.8807C70.477 89.5511 70.5717 89.2045 70.5717 88.8409V87.6136C70.5149 87.6818 70.3899 87.7443 70.1967 87.8011C70.0073 87.8542 69.7876 87.9015 69.5376 87.9432C69.2914 87.9811 69.0509 88.0152 68.8161 88.0455C68.585 88.072 68.3975 88.0947 68.2536 88.1136C67.9051 88.1591 67.5793 88.233 67.2763 88.3352C66.977 88.4337 66.7346 88.5833 66.549 88.7841C66.3672 88.9811 66.2763 89.25 66.2763 89.5909C66.2763 90.0568 66.4486 90.4091 66.7933 90.6477C67.1418 90.8826 67.5831 91 68.1172 91ZM82.5192 92.1818C81.6783 92.1818 80.9529 91.9962 80.343 91.625C79.737 91.25 79.2692 90.7273 78.9396 90.0568C78.6139 89.3826 78.451 88.5985 78.451 87.7045C78.451 86.8106 78.6139 86.0227 78.9396 85.3409C79.2692 84.6553 79.7275 84.1212 80.3146 83.7386C80.9055 83.3523 81.5949 83.1591 82.3828 83.1591C82.8374 83.1591 83.2862 83.2348 83.7294 83.3864C84.1726 83.5379 84.576 83.7841 84.9396 84.125C85.3033 84.4621 85.593 84.9091 85.8089 85.4659C86.0249 86.0227 86.1328 86.7083 86.1328 87.5227V88.0909H79.4055V86.9318H84.7692C84.7692 86.4394 84.6707 86 84.4737 85.6136C84.2805 85.2273 84.004 84.9223 83.6442 84.6989C83.2881 84.4754 82.8677 84.3636 82.3828 84.3636C81.8487 84.3636 81.3866 84.4962 80.9964 84.7614C80.6101 85.0227 80.3127 85.3636 80.1044 85.7841C79.8961 86.2045 79.7919 86.6553 79.7919 87.1364V87.9091C79.7919 88.5682 79.9055 89.1269 80.1328 89.5852C80.3639 90.0398 80.6839 90.3864 81.093 90.625C81.5021 90.8598 81.9775 90.9773 82.5192 90.9773C82.8714 90.9773 83.1896 90.928 83.4737 90.8295C83.7616 90.7273 84.0097 90.5758 84.218 90.375C84.4264 90.1705 84.5874 89.9167 84.701 89.6136L85.9964 89.9773C85.8601 90.4167 85.6309 90.803 85.3089 91.1364C84.987 91.4659 84.5893 91.7235 84.1158 91.9091C83.6423 92.0909 83.1101 92.1818 82.5192 92.1818ZM89.5135 80.3636V92H88.1726V80.3636H89.5135ZM100.265 83.2727V84.4091H95.7422V83.2727H100.265ZM97.0604 81.1818H98.4013V89.5C98.4013 89.8788 98.4562 90.1629 98.5661 90.3523C98.6797 90.5379 98.8236 90.6629 98.9979 90.7273C99.1759 90.7879 99.3634 90.8182 99.5604 90.8182C99.7081 90.8182 99.8293 90.8106 99.924 90.7955C100.019 90.7765 100.094 90.7614 100.151 90.75L100.424 91.9545C100.333 91.9886 100.206 92.0227 100.043 92.0568C99.8804 92.0947 99.674 92.1136 99.424 92.1136C99.0452 92.1136 98.674 92.0322 98.3104 91.8693C97.9505 91.7064 97.6513 91.4583 97.4126 91.125C97.1778 90.7917 97.0604 90.3712 97.0604 89.8636V81.1818ZM105.847 92.1818C105.006 92.1818 104.281 91.9962 103.671 91.625C103.065 91.25 102.597 90.7273 102.268 90.0568C101.942 89.3826 101.779 88.5985 101.779 87.7045C101.779 86.8106 101.942 86.0227 102.268 85.3409C102.597 84.6553 103.056 84.1212 103.643 83.7386C104.234 83.3523 104.923 83.1591 105.711 83.1591C106.165 83.1591 106.614 83.2348 107.058 83.3864C107.501 83.5379 107.904 83.7841 108.268 84.125C108.631 84.4621 108.921 84.9091 109.137 85.4659C109.353 86.0227 109.461 86.7083 109.461 87.5227V88.0909H102.734V86.9318H108.097C108.097 86.4394 107.999 86 107.802 85.6136C107.609 85.2273 107.332 84.9223 106.972 84.6989C106.616 84.4754 106.196 84.3636 105.711 84.3636C105.177 84.3636 104.715 84.4962 104.325 84.7614C103.938 85.0227 103.641 85.3636 103.433 85.7841C103.224 86.2045 103.12 86.6553 103.12 87.1364V87.9091C103.12 88.5682 103.234 89.1269 103.461 89.5852C103.692 90.0398 104.012 90.3864 104.421 90.625C104.83 90.8598 105.306 90.9773 105.847 90.9773C106.2 90.9773 106.518 90.928 106.802 90.8295C107.09 90.7273 107.338 90.5758 107.546 90.375C107.754 90.1705 107.915 89.9167 108.029 89.6136L109.325 89.9773C109.188 90.4167 108.959 90.803 108.637 91.1364C108.315 91.4659 107.917 91.7235 107.444 91.9091C106.97 92.0909 106.438 92.1818 105.847 92.1818ZM112.266 83.2727L114.357 86.8409L116.448 83.2727H117.994L115.175 87.6364L117.994 92H116.448L114.357 88.6136L112.266 92H110.721L113.494 87.6364L110.721 83.2727H112.266ZM123.702 83.2727V84.4091H119.18V83.2727H123.702ZM120.498 81.1818H121.839V89.5C121.839 89.8788 121.894 90.1629 122.004 90.3523C122.117 90.5379 122.261 90.6629 122.435 90.7273C122.613 90.7879 122.801 90.8182 122.998 90.8182C123.146 90.8182 123.267 90.8106 123.362 90.7955C123.456 90.7765 123.532 90.7614 123.589 90.75L123.862 91.9545C123.771 91.9886 123.644 92.0227 123.481 92.0568C123.318 92.0947 123.112 92.1136 122.862 92.1136C122.483 92.1136 122.112 92.0322 121.748 91.8693C121.388 91.7064 121.089 91.4583 120.85 91.125C120.615 90.7917 120.498 90.3712 120.498 89.8636V81.1818ZM129.171 92.1818C128.383 92.1818 127.692 91.9943 127.097 91.6193C126.506 91.2443 126.044 90.7197 125.711 90.0455C125.381 89.3712 125.217 88.5833 125.217 87.6818C125.217 86.7727 125.381 85.9792 125.711 85.3011C126.044 84.6231 126.506 84.0966 127.097 83.7216C127.692 83.3466 128.383 83.1591 129.171 83.1591C129.959 83.1591 130.648 83.3466 131.239 83.7216C131.834 84.0966 132.296 84.6231 132.626 85.3011C132.959 85.9792 133.126 86.7727 133.126 87.6818C133.126 88.5833 132.959 89.3712 132.626 90.0455C132.296 90.7197 131.834 91.2443 131.239 91.6193C130.648 91.9943 129.959 92.1818 129.171 92.1818ZM129.171 90.9773C129.77 90.9773 130.262 90.8239 130.648 90.517C131.035 90.2102 131.321 89.8068 131.506 89.3068C131.692 88.8068 131.785 88.2652 131.785 87.6818C131.785 87.0985 131.692 86.5549 131.506 86.0511C131.321 85.5473 131.035 85.1402 130.648 84.8295C130.262 84.5189 129.77 84.3636 129.171 84.3636C128.573 84.3636 128.08 84.5189 127.694 84.8295C127.308 85.1402 127.022 85.5473 126.836 86.0511C126.65 86.5549 126.558 87.0985 126.558 87.6818C126.558 88.2652 126.65 88.8068 126.836 89.3068C127.022 89.8068 127.308 90.2102 127.694 90.517C128.08 90.8239 128.573 90.9773 129.171 90.9773ZM140.536 95.2727C140.309 95.2727 140.106 95.2538 139.928 95.2159C139.75 95.1818 139.627 95.1477 139.559 95.1136L139.9 93.9318C140.226 94.0152 140.513 94.0455 140.763 94.0227C141.013 94 141.235 93.8883 141.428 93.6875C141.625 93.4905 141.805 93.1705 141.968 92.7273L142.218 92.0455L138.991 83.2727H140.445L142.854 90.2273H142.945L145.354 83.2727H146.809L143.104 93.2727C142.938 93.7235 142.731 94.0966 142.485 94.392C142.239 94.6913 141.953 94.9129 141.627 95.0568C141.305 95.2008 140.942 95.2727 140.536 95.2727ZM153.079 95.2727V83.2727H154.374V84.6591H154.533C154.632 84.5076 154.768 84.3144 154.942 84.0795C155.121 83.8409 155.374 83.6288 155.704 83.4432C156.037 83.2538 156.488 83.1591 157.056 83.1591C157.791 83.1591 158.439 83.3428 158.999 83.7102C159.56 84.0777 159.997 84.5985 160.312 85.2727C160.626 85.947 160.783 86.7424 160.783 87.6591C160.783 88.5833 160.626 89.3845 160.312 90.0625C159.997 90.7367 159.562 91.2595 159.005 91.6307C158.448 91.9981 157.806 92.1818 157.079 92.1818C156.518 92.1818 156.069 92.089 155.732 91.9034C155.395 91.714 155.136 91.5 154.954 91.2614C154.772 91.0189 154.632 90.8182 154.533 90.6591H154.42V95.2727H153.079ZM154.397 87.6364C154.397 88.2955 154.494 88.8769 154.687 89.3807C154.88 89.8807 155.162 90.2727 155.533 90.5568C155.905 90.8371 156.359 90.9773 156.897 90.9773C157.458 90.9773 157.925 90.8295 158.3 90.5341C158.679 90.2348 158.963 89.8333 159.153 89.3295C159.346 88.822 159.442 88.2576 159.442 87.6364C159.442 87.0227 159.348 86.4697 159.158 85.9773C158.973 85.4811 158.691 85.089 158.312 84.8011C157.937 84.5095 157.465 84.3636 156.897 84.3636C156.352 84.3636 155.893 84.5019 155.522 84.7784C155.151 85.0511 154.871 85.4337 154.681 85.9261C154.492 86.4148 154.397 86.9848 154.397 87.6364ZM162.829 92V83.2727H164.124V84.5909H164.215C164.374 84.1591 164.662 83.8087 165.079 83.5398C165.496 83.2708 165.965 83.1364 166.488 83.1364C166.586 83.1364 166.71 83.1383 166.857 83.142C167.005 83.1458 167.117 83.1515 167.192 83.1591V84.5227C167.147 84.5114 167.043 84.4943 166.88 84.4716C166.721 84.4451 166.552 84.4318 166.374 84.4318C165.95 84.4318 165.571 84.5208 165.238 84.6989C164.908 84.8731 164.647 85.1155 164.454 85.4261C164.264 85.733 164.17 86.0833 164.17 86.4773V92H162.829ZM172.175 92.1818C171.335 92.1818 170.609 91.9962 169.999 91.625C169.393 91.25 168.925 90.7273 168.596 90.0568C168.27 89.3826 168.107 88.5985 168.107 87.7045C168.107 86.8106 168.27 86.0227 168.596 85.3409C168.925 84.6553 169.384 84.1212 169.971 83.7386C170.562 83.3523 171.251 83.1591 172.039 83.1591C172.494 83.1591 172.942 83.2348 173.386 83.3864C173.829 83.5379 174.232 83.7841 174.596 84.125C174.96 84.4621 175.249 84.9091 175.465 85.4659C175.681 86.0227 175.789 86.7083 175.789 87.5227V88.0909H169.062V86.9318H174.425C174.425 86.4394 174.327 86 174.13 85.6136C173.937 85.2273 173.66 84.9223 173.3 84.6989C172.944 84.4754 172.524 84.3636 172.039 84.3636C171.505 84.3636 171.043 84.4962 170.653 84.7614C170.266 85.0227 169.969 85.3636 169.761 85.7841C169.552 86.2045 169.448 86.6553 169.448 87.1364V87.9091C169.448 88.5682 169.562 89.1269 169.789 89.5852C170.02 90.0398 170.34 90.3864 170.749 90.625C171.158 90.8598 171.634 90.9773 172.175 90.9773C172.528 90.9773 172.846 90.928 173.13 90.8295C173.418 90.7273 173.666 90.5758 173.874 90.375C174.083 90.1705 174.244 89.9167 174.357 89.6136L175.653 89.9773C175.516 90.4167 175.287 90.803 174.965 91.1364C174.643 91.4659 174.246 91.7235 173.772 91.9091C173.299 92.0909 172.766 92.1818 172.175 92.1818ZM184.011 85.2273L182.806 85.5682C182.73 85.3674 182.619 85.1723 182.471 84.983C182.327 84.7898 182.13 84.6307 181.88 84.5057C181.63 84.3807 181.31 84.3182 180.92 84.3182C180.386 84.3182 179.941 84.4413 179.585 84.6875C179.232 84.9299 179.056 85.2386 179.056 85.6136C179.056 85.947 179.177 86.2102 179.42 86.4034C179.662 86.5966 180.041 86.7576 180.556 86.8864L181.852 87.2045C182.632 87.3939 183.213 87.6837 183.596 88.0739C183.978 88.4602 184.17 88.9583 184.17 89.5682C184.17 90.0682 184.026 90.5152 183.738 90.9091C183.454 91.303 183.056 91.6136 182.545 91.8409C182.033 92.0682 181.439 92.1818 180.761 92.1818C179.871 92.1818 179.134 91.9886 178.55 91.6023C177.967 91.2159 177.598 90.6515 177.442 89.9091L178.715 89.5909C178.836 90.0606 179.066 90.4129 179.403 90.6477C179.744 90.8826 180.189 91 180.738 91C181.363 91 181.859 90.8674 182.227 90.6023C182.598 90.3333 182.783 90.0114 182.783 89.6364C182.783 89.3333 182.677 89.0795 182.465 88.875C182.253 88.6667 181.927 88.5114 181.488 88.4091L180.033 88.0682C179.234 87.8788 178.647 87.5852 178.272 87.1875C177.901 86.786 177.715 86.2841 177.715 85.6818C177.715 85.1894 177.853 84.7538 178.13 84.375C178.41 83.9962 178.791 83.6989 179.272 83.483C179.757 83.267 180.306 83.1591 180.92 83.1591C181.783 83.1591 182.461 83.3485 182.954 83.7273C183.45 84.1061 183.802 84.6061 184.011 85.2273ZM186.188 92V83.2727H187.529V92H186.188ZM186.87 81.8182C186.609 81.8182 186.383 81.7292 186.194 81.5511C186.008 81.3731 185.915 81.1591 185.915 80.9091C185.915 80.6591 186.008 80.4451 186.194 80.267C186.383 80.089 186.609 80 186.87 80C187.131 80 187.355 80.089 187.54 80.267C187.73 80.4451 187.825 80.6591 187.825 80.9091C187.825 81.1591 187.73 81.3731 187.54 81.5511C187.355 81.7292 187.131 81.8182 186.87 81.8182ZM193.531 92.1818C192.743 92.1818 192.051 91.9943 191.457 91.6193C190.866 91.2443 190.404 90.7197 190.07 90.0455C189.741 89.3712 189.576 88.5833 189.576 87.6818C189.576 86.7727 189.741 85.9792 190.07 85.3011C190.404 84.6231 190.866 84.0966 191.457 83.7216C192.051 83.3466 192.743 83.1591 193.531 83.1591C194.318 83.1591 195.008 83.3466 195.599 83.7216C196.193 84.0966 196.656 84.6231 196.985 85.3011C197.318 85.9792 197.485 86.7727 197.485 87.6818C197.485 88.5833 197.318 89.3712 196.985 90.0455C196.656 90.7197 196.193 91.2443 195.599 91.6193C195.008 91.9943 194.318 92.1818 193.531 92.1818ZM193.531 90.9773C194.129 90.9773 194.621 90.8239 195.008 90.517C195.394 90.2102 195.68 89.8068 195.866 89.3068C196.051 88.8068 196.144 88.2652 196.144 87.6818C196.144 87.0985 196.051 86.5549 195.866 86.0511C195.68 85.5473 195.394 85.1402 195.008 84.8295C194.621 84.5189 194.129 84.3636 193.531 84.3636C192.932 84.3636 192.44 84.5189 192.053 84.8295C191.667 85.1402 191.381 85.5473 191.195 86.0511C191.01 86.5549 190.917 87.0985 190.917 87.6818C190.917 88.2652 191.01 88.8068 191.195 89.3068C191.381 89.8068 191.667 90.2102 192.053 90.517C192.44 90.8239 192.932 90.9773 193.531 90.9773ZM200.873 86.75V92H199.532V83.2727H200.827V84.6364H200.941C201.146 84.1932 201.456 83.8371 201.873 83.5682C202.29 83.2955 202.827 83.1591 203.487 83.1591C204.077 83.1591 204.594 83.2803 205.038 83.5227C205.481 83.7614 205.826 84.125 206.072 84.6136C206.318 85.0985 206.441 85.7121 206.441 86.4545V92H205.1V86.5455C205.1 85.8598 204.922 85.3258 204.566 84.9432C204.21 84.5568 203.721 84.3636 203.1 84.3636C202.672 84.3636 202.29 84.4564 201.952 84.642C201.619 84.8277 201.356 85.0985 201.163 85.4545C200.969 85.8106 200.873 86.2424 200.873 86.75ZM212.55 92.1818C211.71 92.1818 210.984 91.9962 210.374 91.625C209.768 91.25 209.3 90.7273 208.971 90.0568C208.645 89.3826 208.482 88.5985 208.482 87.7045C208.482 86.8106 208.645 86.0227 208.971 85.3409C209.3 84.6553 209.759 84.1212 210.346 83.7386C210.937 83.3523 211.626 83.1591 212.414 83.1591C212.869 83.1591 213.317 83.2348 213.761 83.3864C214.204 83.5379 214.607 83.7841 214.971 84.125C215.335 84.4621 215.624 84.9091 215.84 85.4659C216.056 86.0227 216.164 86.7083 216.164 87.5227V88.0909H209.437V86.9318H214.8C214.8 86.4394 214.702 86 214.505 85.6136C214.312 85.2273 214.035 84.9223 213.675 84.6989C213.319 84.4754 212.899 84.3636 212.414 84.3636C211.88 84.3636 211.418 84.4962 211.028 84.7614C210.641 85.0227 210.344 85.3636 210.136 85.7841C209.927 86.2045 209.823 86.6553 209.823 87.1364V87.9091C209.823 88.5682 209.937 89.1269 210.164 89.5852C210.395 90.0398 210.715 90.3864 211.124 90.625C211.533 90.8598 212.009 90.9773 212.55 90.9773C212.903 90.9773 213.221 90.928 213.505 90.8295C213.793 90.7273 214.041 90.5758 214.249 90.375C214.458 90.1705 214.619 89.9167 214.732 89.6136L216.028 89.9773C215.891 90.4167 215.662 90.803 215.34 91.1364C215.018 91.4659 214.621 91.7235 214.147 91.9091C213.674 92.0909 213.141 92.1818 212.55 92.1818ZM226.363 92.1818C225.522 92.1818 224.797 91.9962 224.187 91.625C223.581 91.25 223.113 90.7273 222.783 90.0568C222.458 89.3826 222.295 88.5985 222.295 87.7045C222.295 86.8106 222.458 86.0227 222.783 85.3409C223.113 84.6553 223.571 84.1212 224.158 83.7386C224.749 83.3523 225.439 83.1591 226.227 83.1591C226.681 83.1591 227.13 83.2348 227.573 83.3864C228.016 83.5379 228.42 83.7841 228.783 84.125C229.147 84.4621 229.437 84.9091 229.653 85.4659C229.869 86.0227 229.977 86.7083 229.977 87.5227V88.0909H223.249V86.9318H228.613C228.613 86.4394 228.514 86 228.317 85.6136C228.124 85.2273 227.848 84.9223 227.488 84.6989C227.132 84.4754 226.711 84.3636 226.227 84.3636C225.692 84.3636 225.23 84.4962 224.84 84.7614C224.454 85.0227 224.156 85.3636 223.948 85.7841C223.74 86.2045 223.636 86.6553 223.636 87.1364V87.9091C223.636 88.5682 223.749 89.1269 223.977 89.5852C224.208 90.0398 224.528 90.3864 224.937 90.625C225.346 90.8598 225.821 90.9773 226.363 90.9773C226.715 90.9773 227.033 90.928 227.317 90.8295C227.605 90.7273 227.853 90.5758 228.062 90.375C228.27 90.1705 228.431 89.9167 228.545 89.6136L229.84 89.9773C229.704 90.4167 229.475 90.803 229.153 91.1364C228.831 91.4659 228.433 91.7235 227.96 91.9091C227.486 92.0909 226.954 92.1818 226.363 92.1818ZM233.357 80.3636V92H232.016V80.3636H233.357ZM50.2607 116V104.364H51.6016V108.659H51.7152C51.8137 108.508 51.95 108.314 52.1243 108.08C52.3023 107.841 52.5561 107.629 52.8857 107.443C53.219 107.254 53.6697 107.159 54.2379 107.159C54.9728 107.159 55.6205 107.343 56.1811 107.71C56.7417 108.078 57.1792 108.598 57.4936 109.273C57.808 109.947 57.9652 110.742 57.9652 111.659C57.9652 112.583 57.808 113.384 57.4936 114.062C57.1792 114.737 56.7436 115.259 56.1868 115.631C55.63 115.998 54.9879 116.182 54.2607 116.182C53.7 116.182 53.2512 116.089 52.9141 115.903C52.5769 115.714 52.3175 115.5 52.1357 115.261C51.9538 115.019 51.8137 114.818 51.7152 114.659H51.5561V116H50.2607ZM51.5788 111.636C51.5788 112.295 51.6754 112.877 51.8686 113.381C52.0618 113.881 52.344 114.273 52.7152 114.557C53.0864 114.837 53.541 114.977 54.0788 114.977C54.6394 114.977 55.1072 114.83 55.4822 114.534C55.861 114.235 56.1451 113.833 56.3345 113.33C56.5277 112.822 56.6243 112.258 56.6243 111.636C56.6243 111.023 56.5296 110.47 56.3402 109.977C56.1546 109.481 55.8724 109.089 55.4936 108.801C55.1186 108.509 54.647 108.364 54.0788 108.364C53.5334 108.364 53.075 108.502 52.7038 108.778C52.3326 109.051 52.0523 109.434 51.8629 109.926C51.6735 110.415 51.5788 110.985 51.5788 111.636ZM63.5618 116.182C62.7739 116.182 62.0826 115.994 61.4879 115.619C60.897 115.244 60.4349 114.72 60.1016 114.045C59.772 113.371 59.6072 112.583 59.6072 111.682C59.6072 110.773 59.772 109.979 60.1016 109.301C60.4349 108.623 60.897 108.097 61.4879 107.722C62.0826 107.347 62.7739 107.159 63.5618 107.159C64.3497 107.159 65.0391 107.347 65.63 107.722C66.2247 108.097 66.6868 108.623 67.0163 109.301C67.3497 109.979 67.5163 110.773 67.5163 111.682C67.5163 112.583 67.3497 113.371 67.0163 114.045C66.6868 114.72 66.2247 115.244 65.63 115.619C65.0391 115.994 64.3497 116.182 63.5618 116.182ZM63.5618 114.977C64.1603 114.977 64.6527 114.824 65.0391 114.517C65.4254 114.21 65.7114 113.807 65.897 113.307C66.0826 112.807 66.1754 112.265 66.1754 111.682C66.1754 111.098 66.0826 110.555 65.897 110.051C65.7114 109.547 65.4254 109.14 65.0391 108.83C64.6527 108.519 64.1603 108.364 63.5618 108.364C62.9633 108.364 62.4709 108.519 62.0845 108.83C61.6982 109.14 61.4122 109.547 61.2266 110.051C61.041 110.555 60.9482 111.098 60.9482 111.682C60.9482 112.265 61.041 112.807 61.2266 113.307C61.4122 113.807 61.6982 114.21 62.0845 114.517C62.4709 114.824 62.9633 114.977 63.5618 114.977ZM73.3587 107.273V108.409H68.8359V107.273H73.3587ZM70.1541 105.182H71.495V113.5C71.495 113.879 71.55 114.163 71.6598 114.352C71.7734 114.538 71.9174 114.663 72.0916 114.727C72.2696 114.788 72.4571 114.818 72.6541 114.818C72.8018 114.818 72.9231 114.811 73.0178 114.795C73.1125 114.777 73.1882 114.761 73.245 114.75L73.5178 115.955C73.4268 115.989 73.3 116.023 73.1371 116.057C72.9742 116.095 72.7678 116.114 72.5178 116.114C72.139 116.114 71.7678 116.032 71.4041 115.869C71.0443 115.706 70.745 115.458 70.5064 115.125C70.2715 114.792 70.1541 114.371 70.1541 113.864V105.182ZM78.8274 116.182C78.0395 116.182 77.3482 115.994 76.7536 115.619C76.1626 115.244 75.7005 114.72 75.3672 114.045C75.0376 113.371 74.8729 112.583 74.8729 111.682C74.8729 110.773 75.0376 109.979 75.3672 109.301C75.7005 108.623 76.1626 108.097 76.7536 107.722C77.3482 107.347 78.0395 107.159 78.8274 107.159C79.6153 107.159 80.3047 107.347 80.8956 107.722C81.4903 108.097 81.9524 108.623 82.282 109.301C82.6153 109.979 82.782 110.773 82.782 111.682C82.782 112.583 82.6153 113.371 82.282 114.045C81.9524 114.72 81.4903 115.244 80.8956 115.619C80.3047 115.994 79.6153 116.182 78.8274 116.182ZM78.8274 114.977C79.4259 114.977 79.9183 114.824 80.3047 114.517C80.6911 114.21 80.977 113.807 81.1626 113.307C81.3482 112.807 81.4411 112.265 81.4411 111.682C81.4411 111.098 81.3482 110.555 81.1626 110.051C80.977 109.547 80.6911 109.14 80.3047 108.83C79.9183 108.519 79.4259 108.364 78.8274 108.364C78.2289 108.364 77.7365 108.519 77.3501 108.83C76.9638 109.14 76.6778 109.547 76.4922 110.051C76.3066 110.555 76.2138 111.098 76.2138 111.682C76.2138 112.265 76.3066 112.807 76.4922 113.307C76.6778 113.807 76.9638 114.21 77.3501 114.517C77.7365 114.824 78.2289 114.977 78.8274 114.977ZM78.2138 106.091L79.6001 103.455H81.1683L79.3956 106.091H78.2138ZM86.1697 110.75V116H84.8288V107.273H86.1243V108.636H86.2379C86.4425 108.193 86.7531 107.837 87.1697 107.568C87.5864 107.295 88.1243 107.159 88.7834 107.159C89.3743 107.159 89.8913 107.28 90.3345 107.523C90.7777 107.761 91.1224 108.125 91.3686 108.614C91.6148 109.098 91.7379 109.712 91.7379 110.455V116H90.397V110.545C90.397 109.86 90.219 109.326 89.8629 108.943C89.5069 108.557 89.0182 108.364 88.397 108.364C87.969 108.364 87.5864 108.456 87.2493 108.642C86.916 108.828 86.6527 109.098 86.4595 109.455C86.2663 109.811 86.1697 110.242 86.1697 110.75ZM101.984 116.182C101.256 116.182 100.614 115.998 100.058 115.631C99.5007 115.259 99.0651 114.737 98.7507 114.062C98.4363 113.384 98.2791 112.583 98.2791 111.659C98.2791 110.742 98.4363 109.947 98.7507 109.273C99.0651 108.598 99.5026 108.078 100.063 107.71C100.624 107.343 101.272 107.159 102.006 107.159C102.575 107.159 103.023 107.254 103.353 107.443C103.686 107.629 103.94 107.841 104.114 108.08C104.292 108.314 104.431 108.508 104.529 108.659H104.643V104.364H105.984V116H104.688V114.659H104.529C104.431 114.818 104.29 115.019 104.109 115.261C103.927 115.5 103.667 115.714 103.33 115.903C102.993 116.089 102.544 116.182 101.984 116.182ZM102.165 114.977C102.703 114.977 103.158 114.837 103.529 114.557C103.9 114.273 104.183 113.881 104.376 113.381C104.569 112.877 104.665 112.295 104.665 111.636C104.665 110.985 104.571 110.415 104.381 109.926C104.192 109.434 103.912 109.051 103.54 108.778C103.169 108.502 102.711 108.364 102.165 108.364C101.597 108.364 101.124 108.509 100.745 108.801C100.37 109.089 100.088 109.481 99.8984 109.977C99.7128 110.47 99.62 111.023 99.62 111.636C99.62 112.258 99.7147 112.822 99.9041 113.33C100.097 113.833 100.381 114.235 100.756 114.534C101.135 114.83 101.605 114.977 102.165 114.977ZM112.285 116.182C111.444 116.182 110.719 115.996 110.109 115.625C109.503 115.25 109.035 114.727 108.705 114.057C108.379 113.383 108.217 112.598 108.217 111.705C108.217 110.811 108.379 110.023 108.705 109.341C109.035 108.655 109.493 108.121 110.08 107.739C110.671 107.352 111.361 107.159 112.148 107.159C112.603 107.159 113.052 107.235 113.495 107.386C113.938 107.538 114.342 107.784 114.705 108.125C115.069 108.462 115.359 108.909 115.575 109.466C115.79 110.023 115.898 110.708 115.898 111.523V112.091H109.171V110.932H114.535C114.535 110.439 114.436 110 114.239 109.614C114.046 109.227 113.77 108.922 113.41 108.699C113.054 108.475 112.633 108.364 112.148 108.364C111.614 108.364 111.152 108.496 110.762 108.761C110.376 109.023 110.078 109.364 109.87 109.784C109.662 110.205 109.558 110.655 109.558 111.136V111.909C109.558 112.568 109.671 113.127 109.898 113.585C110.129 114.04 110.45 114.386 110.859 114.625C111.268 114.86 111.743 114.977 112.285 114.977C112.637 114.977 112.955 114.928 113.239 114.83C113.527 114.727 113.775 114.576 113.984 114.375C114.192 114.17 114.353 113.917 114.467 113.614L115.762 113.977C115.626 114.417 115.397 114.803 115.075 115.136C114.753 115.466 114.355 115.723 113.881 115.909C113.408 116.091 112.876 116.182 112.285 116.182ZM126.097 116.182C125.256 116.182 124.531 115.996 123.921 115.625C123.315 115.25 122.847 114.727 122.518 114.057C122.192 113.383 122.029 112.598 122.029 111.705C122.029 110.811 122.192 110.023 122.518 109.341C122.847 108.655 123.306 108.121 123.893 107.739C124.484 107.352 125.173 107.159 125.961 107.159C126.415 107.159 126.864 107.235 127.308 107.386C127.751 107.538 128.154 107.784 128.518 108.125C128.881 108.462 129.171 108.909 129.387 109.466C129.603 110.023 129.711 110.708 129.711 111.523V112.091H122.984V110.932H128.347C128.347 110.439 128.249 110 128.052 109.614C127.859 109.227 127.582 108.922 127.222 108.699C126.866 108.475 126.446 108.364 125.961 108.364C125.427 108.364 124.965 108.496 124.575 108.761C124.188 109.023 123.891 109.364 123.683 109.784C123.474 110.205 123.37 110.655 123.37 111.136V111.909C123.37 112.568 123.484 113.127 123.711 113.585C123.942 114.04 124.262 114.386 124.671 114.625C125.08 114.86 125.556 114.977 126.097 114.977C126.45 114.977 126.768 114.928 127.052 114.83C127.34 114.727 127.588 114.576 127.796 114.375C128.004 114.17 128.165 113.917 128.279 113.614L129.575 113.977C129.438 114.417 129.209 114.803 128.887 115.136C128.565 115.466 128.167 115.723 127.694 115.909C127.22 116.091 126.688 116.182 126.097 116.182ZM133.092 110.75V116H131.751V107.273H133.046V108.636H133.16C133.364 108.193 133.675 107.837 134.092 107.568C134.508 107.295 135.046 107.159 135.705 107.159C136.296 107.159 136.813 107.28 137.256 107.523C137.7 107.761 138.044 108.125 138.29 108.614C138.537 109.098 138.66 109.712 138.66 110.455V116H137.319V110.545C137.319 109.86 137.141 109.326 136.785 108.943C136.429 108.557 135.94 108.364 135.319 108.364C134.891 108.364 134.508 108.456 134.171 108.642C133.838 108.828 133.575 109.098 133.381 109.455C133.188 109.811 133.092 110.242 133.092 110.75ZM144.656 116.182C143.837 116.182 143.133 115.989 142.542 115.602C141.951 115.216 141.496 114.684 141.178 114.006C140.86 113.328 140.701 112.553 140.701 111.682C140.701 110.795 140.864 110.013 141.19 109.335C141.519 108.653 141.978 108.121 142.565 107.739C143.156 107.352 143.845 107.159 144.633 107.159C145.246 107.159 145.799 107.273 146.292 107.5C146.784 107.727 147.188 108.045 147.502 108.455C147.817 108.864 148.012 109.341 148.087 109.886H146.746C146.644 109.489 146.417 109.136 146.065 108.83C145.716 108.519 145.246 108.364 144.656 108.364C144.133 108.364 143.674 108.5 143.281 108.773C142.89 109.042 142.585 109.422 142.366 109.915C142.15 110.403 142.042 110.977 142.042 111.636C142.042 112.311 142.148 112.898 142.36 113.398C142.576 113.898 142.879 114.286 143.269 114.562C143.663 114.839 144.125 114.977 144.656 114.977C145.004 114.977 145.32 114.917 145.604 114.795C145.888 114.674 146.129 114.5 146.326 114.273C146.523 114.045 146.663 113.773 146.746 113.455H148.087C148.012 113.97 147.824 114.434 147.525 114.847C147.229 115.256 146.837 115.581 146.349 115.824C145.864 116.062 145.299 116.182 144.656 116.182ZM150.048 116V107.273H151.343V108.591H151.434C151.593 108.159 151.881 107.809 152.298 107.54C152.714 107.271 153.184 107.136 153.707 107.136C153.805 107.136 153.928 107.138 154.076 107.142C154.224 107.146 154.335 107.152 154.411 107.159V108.523C154.366 108.511 154.262 108.494 154.099 108.472C153.94 108.445 153.771 108.432 153.593 108.432C153.169 108.432 152.79 108.521 152.457 108.699C152.127 108.873 151.866 109.116 151.673 109.426C151.483 109.733 151.388 110.083 151.388 110.477V116H150.048ZM156.001 116V107.273H157.342V116H156.001ZM156.683 105.818C156.421 105.818 156.196 105.729 156.006 105.551C155.821 105.373 155.728 105.159 155.728 104.909C155.728 104.659 155.821 104.445 156.006 104.267C156.196 104.089 156.421 104 156.683 104C156.944 104 157.167 104.089 157.353 104.267C157.542 104.445 157.637 104.659 157.637 104.909C157.637 105.159 157.542 105.373 157.353 105.551C157.167 105.729 156.944 105.818 156.683 105.818ZM159.798 119.273V107.273H161.093V108.659H161.252C161.351 108.508 161.487 108.314 161.661 108.08C161.839 107.841 162.093 107.629 162.423 107.443C162.756 107.254 163.207 107.159 163.775 107.159C164.51 107.159 165.157 107.343 165.718 107.71C166.279 108.078 166.716 108.598 167.031 109.273C167.345 109.947 167.502 110.742 167.502 111.659C167.502 112.583 167.345 113.384 167.031 114.062C166.716 114.737 166.281 115.259 165.724 115.631C165.167 115.998 164.525 116.182 163.798 116.182C163.237 116.182 162.788 116.089 162.451 115.903C162.114 115.714 161.854 115.5 161.673 115.261C161.491 115.019 161.351 114.818 161.252 114.659H161.138V119.273H159.798ZM161.116 111.636C161.116 112.295 161.212 112.877 161.406 113.381C161.599 113.881 161.881 114.273 162.252 114.557C162.623 114.837 163.078 114.977 163.616 114.977C164.176 114.977 164.644 114.83 165.019 114.534C165.398 114.235 165.682 113.833 165.871 113.33C166.065 112.822 166.161 112.258 166.161 111.636C166.161 111.023 166.067 110.47 165.877 109.977C165.692 109.481 165.409 109.089 165.031 108.801C164.656 108.509 164.184 108.364 163.616 108.364C163.07 108.364 162.612 108.502 162.241 108.778C161.87 109.051 161.589 109.434 161.4 109.926C161.21 110.415 161.116 110.985 161.116 111.636ZM173.343 107.273V108.409H168.82V107.273H173.343ZM170.138 105.182H171.479V113.5C171.479 113.879 171.534 114.163 171.644 114.352C171.758 114.538 171.902 114.663 172.076 114.727C172.254 114.788 172.442 114.818 172.638 114.818C172.786 114.818 172.907 114.811 173.002 114.795C173.097 114.777 173.173 114.761 173.229 114.75L173.502 115.955C173.411 115.989 173.284 116.023 173.121 116.057C172.959 116.095 172.752 116.114 172.502 116.114C172.123 116.114 171.752 116.032 171.388 115.869C171.029 115.706 170.729 115.458 170.491 115.125C170.256 114.792 170.138 114.371 170.138 113.864V105.182ZM177.928 116.205C177.375 116.205 176.873 116.1 176.423 115.892C175.972 115.68 175.614 115.375 175.349 114.977C175.084 114.576 174.951 114.091 174.951 113.523C174.951 113.023 175.049 112.617 175.246 112.307C175.443 111.992 175.707 111.746 176.036 111.568C176.366 111.39 176.729 111.258 177.127 111.17C177.529 111.08 177.932 111.008 178.337 110.955C178.868 110.886 179.298 110.835 179.627 110.801C179.96 110.763 180.203 110.701 180.354 110.614C180.51 110.527 180.587 110.375 180.587 110.159V110.114C180.587 109.553 180.434 109.117 180.127 108.807C179.824 108.496 179.364 108.341 178.746 108.341C178.106 108.341 177.604 108.481 177.241 108.761C176.877 109.042 176.621 109.341 176.474 109.659L175.201 109.205C175.428 108.674 175.731 108.261 176.11 107.966C176.493 107.667 176.909 107.458 177.36 107.341C177.815 107.22 178.262 107.159 178.701 107.159C178.981 107.159 179.303 107.193 179.667 107.261C180.034 107.326 180.388 107.46 180.729 107.665C181.074 107.869 181.36 108.178 181.587 108.591C181.815 109.004 181.928 109.557 181.928 110.25V116H180.587V114.818H180.519C180.428 115.008 180.277 115.21 180.065 115.426C179.853 115.642 179.57 115.826 179.218 115.977C178.866 116.129 178.436 116.205 177.928 116.205ZM178.133 115C178.663 115 179.11 114.896 179.474 114.688C179.841 114.479 180.118 114.21 180.303 113.881C180.493 113.551 180.587 113.205 180.587 112.841V111.614C180.531 111.682 180.406 111.744 180.212 111.801C180.023 111.854 179.803 111.902 179.553 111.943C179.307 111.981 179.067 112.015 178.832 112.045C178.601 112.072 178.413 112.095 178.269 112.114C177.921 112.159 177.595 112.233 177.292 112.335C176.993 112.434 176.75 112.583 176.565 112.784C176.383 112.981 176.292 113.25 176.292 113.591C176.292 114.057 176.464 114.409 176.809 114.648C177.157 114.883 177.599 115 178.133 115ZM184.376 116V107.273H185.671V108.591H185.762C185.921 108.159 186.209 107.809 186.626 107.54C187.042 107.271 187.512 107.136 188.035 107.136C188.133 107.136 188.256 107.138 188.404 107.142C188.552 107.146 188.664 107.152 188.739 107.159V108.523C188.694 108.511 188.59 108.494 188.427 108.472C188.268 108.445 188.099 108.432 187.921 108.432C187.497 108.432 187.118 108.521 186.785 108.699C186.455 108.873 186.194 109.116 186.001 109.426C185.811 109.733 185.717 110.083 185.717 110.477V116H184.376ZM198.374 116.182C197.586 116.182 196.895 115.994 196.3 115.619C195.71 115.244 195.247 114.72 194.914 114.045C194.585 113.371 194.42 112.583 194.42 111.682C194.42 110.773 194.585 109.979 194.914 109.301C195.247 108.623 195.71 108.097 196.3 107.722C196.895 107.347 197.586 107.159 198.374 107.159C199.162 107.159 199.852 107.347 200.442 107.722C201.037 108.097 201.499 108.623 201.829 109.301C202.162 109.979 202.329 110.773 202.329 111.682C202.329 112.583 202.162 113.371 201.829 114.045C201.499 114.72 201.037 115.244 200.442 115.619C199.852 115.994 199.162 116.182 198.374 116.182ZM198.374 114.977C198.973 114.977 199.465 114.824 199.852 114.517C200.238 114.21 200.524 113.807 200.71 113.307C200.895 112.807 200.988 112.265 200.988 111.682C200.988 111.098 200.895 110.555 200.71 110.051C200.524 109.547 200.238 109.14 199.852 108.83C199.465 108.519 198.973 108.364 198.374 108.364C197.776 108.364 197.283 108.519 196.897 108.83C196.511 109.14 196.225 109.547 196.039 110.051C195.853 110.555 195.761 111.098 195.761 111.682C195.761 112.265 195.853 112.807 196.039 113.307C196.225 113.807 196.511 114.21 196.897 114.517C197.283 114.824 197.776 114.977 198.374 114.977ZM81.0696 140.182C80.3423 140.182 79.7003 139.998 79.1435 139.631C78.5866 139.259 78.151 138.737 77.8366 138.062C77.5223 137.384 77.3651 136.583 77.3651 135.659C77.3651 134.742 77.5223 133.947 77.8366 133.273C78.151 132.598 78.5885 132.078 79.1491 131.71C79.7098 131.343 80.3575 131.159 81.0923 131.159C81.6605 131.159 82.1094 131.254 82.4389 131.443C82.7723 131.629 83.026 131.841 83.2003 132.08C83.3783 132.314 83.5166 132.508 83.6151 132.659H83.7287V128.364H85.0696V140H83.7741V138.659H83.6151C83.5166 138.818 83.3764 139.019 83.1946 139.261C83.0128 139.5 82.7533 139.714 82.4162 139.903C82.0791 140.089 81.6302 140.182 81.0696 140.182ZM81.2514 138.977C81.7893 138.977 82.2438 138.837 82.6151 138.557C82.9863 138.273 83.2685 137.881 83.4616 137.381C83.6548 136.877 83.7514 136.295 83.7514 135.636C83.7514 134.985 83.6567 134.415 83.4673 133.926C83.2779 133.434 82.9976 133.051 82.6264 132.778C82.2552 132.502 81.7969 132.364 81.2514 132.364C80.6832 132.364 80.2098 132.509 79.831 132.801C79.456 133.089 79.1738 133.481 78.9844 133.977C78.7988 134.47 78.706 135.023 78.706 135.636C78.706 136.258 78.8007 136.822 78.9901 137.33C79.1832 137.833 79.4673 138.235 79.8423 138.534C80.2211 138.83 80.6908 138.977 81.2514 138.977ZM91.3707 140.182C90.5298 140.182 89.8045 139.996 89.1946 139.625C88.5885 139.25 88.1207 138.727 87.7912 138.057C87.4654 137.383 87.3026 136.598 87.3026 135.705C87.3026 134.811 87.4654 134.023 87.7912 133.341C88.1207 132.655 88.5791 132.121 89.1662 131.739C89.7571 131.352 90.4465 131.159 91.2344 131.159C91.6889 131.159 92.1378 131.235 92.581 131.386C93.0241 131.538 93.4276 131.784 93.7912 132.125C94.1548 132.462 94.4446 132.909 94.6605 133.466C94.8764 134.023 94.9844 134.708 94.9844 135.523V136.091H88.2571V134.932H93.6207C93.6207 134.439 93.5223 134 93.3253 133.614C93.1321 133.227 92.8556 132.922 92.4957 132.699C92.1397 132.475 91.7192 132.364 91.2344 132.364C90.7003 132.364 90.2382 132.496 89.848 132.761C89.4616 133.023 89.1643 133.364 88.956 133.784C88.7476 134.205 88.6435 134.655 88.6435 135.136V135.909C88.6435 136.568 88.7571 137.127 88.9844 137.585C89.2154 138.04 89.5355 138.386 89.9446 138.625C90.3537 138.86 90.8291 138.977 91.3707 138.977C91.723 138.977 92.0412 138.928 92.3253 138.83C92.6132 138.727 92.8613 138.576 93.0696 138.375C93.2779 138.17 93.4389 137.917 93.5526 137.614L94.848 137.977C94.7116 138.417 94.4825 138.803 94.1605 139.136C93.8385 139.466 93.4408 139.723 92.9673 139.909C92.4938 140.091 91.9616 140.182 91.3707 140.182ZM103.206 133.227L102.001 133.568C101.926 133.367 101.814 133.172 101.666 132.983C101.522 132.79 101.325 132.631 101.075 132.506C100.825 132.381 100.505 132.318 100.115 132.318C99.581 132.318 99.1359 132.441 98.7798 132.688C98.4276 132.93 98.2514 133.239 98.2514 133.614C98.2514 133.947 98.3726 134.21 98.6151 134.403C98.8575 134.597 99.2363 134.758 99.7514 134.886L101.047 135.205C101.827 135.394 102.409 135.684 102.791 136.074C103.174 136.46 103.365 136.958 103.365 137.568C103.365 138.068 103.221 138.515 102.933 138.909C102.649 139.303 102.251 139.614 101.74 139.841C101.229 140.068 100.634 140.182 99.956 140.182C99.0658 140.182 98.3291 139.989 97.7457 139.602C97.1624 139.216 96.7931 138.652 96.6378 137.909L97.9105 137.591C98.0317 138.061 98.2609 138.413 98.598 138.648C98.9389 138.883 99.384 139 99.9332 139C100.558 139 101.054 138.867 101.422 138.602C101.793 138.333 101.979 138.011 101.979 137.636C101.979 137.333 101.873 137.08 101.661 136.875C101.448 136.667 101.123 136.511 100.683 136.409L99.2287 136.068C98.4295 135.879 97.8423 135.585 97.4673 135.188C97.0961 134.786 96.9105 134.284 96.9105 133.682C96.9105 133.189 97.0488 132.754 97.3253 132.375C97.6056 131.996 97.9863 131.699 98.4673 131.483C98.9522 131.267 99.5014 131.159 100.115 131.159C100.979 131.159 101.657 131.348 102.149 131.727C102.645 132.106 102.998 132.606 103.206 133.227ZM109.043 140.182C108.202 140.182 107.476 139.996 106.866 139.625C106.26 139.25 105.793 138.727 105.463 138.057C105.137 137.383 104.974 136.598 104.974 135.705C104.974 134.811 105.137 134.023 105.463 133.341C105.793 132.655 106.251 132.121 106.838 131.739C107.429 131.352 108.118 131.159 108.906 131.159C109.361 131.159 109.81 131.235 110.253 131.386C110.696 131.538 111.099 131.784 111.463 132.125C111.827 132.462 112.116 132.909 112.332 133.466C112.548 134.023 112.656 134.708 112.656 135.523V136.091H105.929V134.932H111.293C111.293 134.439 111.194 134 110.997 133.614C110.804 133.227 110.527 132.922 110.168 132.699C109.812 132.475 109.391 132.364 108.906 132.364C108.372 132.364 107.91 132.496 107.52 132.761C107.134 133.023 106.836 133.364 106.628 133.784C106.42 134.205 106.315 134.655 106.315 135.136V135.909C106.315 136.568 106.429 137.127 106.656 137.585C106.887 138.04 107.207 138.386 107.616 138.625C108.026 138.86 108.501 138.977 109.043 138.977C109.395 138.977 109.713 138.928 109.997 138.83C110.285 138.727 110.533 138.576 110.741 138.375C110.95 138.17 111.111 137.917 111.224 137.614L112.52 137.977C112.384 138.417 112.154 138.803 111.832 139.136C111.51 139.466 111.113 139.723 110.639 139.909C110.166 140.091 109.634 140.182 109.043 140.182ZM116.037 134.75V140H114.696V131.273H115.991V132.636H116.105C116.31 132.193 116.62 131.837 117.037 131.568C117.454 131.295 117.991 131.159 118.651 131.159C119.241 131.159 119.759 131.28 120.202 131.523C120.645 131.761 120.99 132.125 121.236 132.614C121.482 133.098 121.605 133.712 121.605 134.455V140H120.264V134.545C120.264 133.86 120.086 133.326 119.73 132.943C119.374 132.557 118.885 132.364 118.264 132.364C117.836 132.364 117.454 132.456 117.116 132.642C116.783 132.828 116.52 133.098 116.327 133.455C116.134 133.811 116.037 134.242 116.037 134.75ZM127.601 140.182C126.783 140.182 126.078 139.989 125.487 139.602C124.896 139.216 124.442 138.684 124.124 138.006C123.805 137.328 123.646 136.553 123.646 135.682C123.646 134.795 123.809 134.013 124.135 133.335C124.464 132.653 124.923 132.121 125.51 131.739C126.101 131.352 126.79 131.159 127.578 131.159C128.192 131.159 128.745 131.273 129.237 131.5C129.73 131.727 130.133 132.045 130.447 132.455C130.762 132.864 130.957 133.341 131.033 133.886H129.692C129.589 133.489 129.362 133.136 129.01 132.83C128.661 132.519 128.192 132.364 127.601 132.364C127.078 132.364 126.62 132.5 126.226 132.773C125.836 133.042 125.531 133.422 125.311 133.915C125.095 134.403 124.987 134.977 124.987 135.636C124.987 136.311 125.093 136.898 125.305 137.398C125.521 137.898 125.824 138.286 126.214 138.562C126.608 138.839 127.071 138.977 127.601 138.977C127.949 138.977 128.266 138.917 128.55 138.795C128.834 138.674 129.074 138.5 129.271 138.273C129.468 138.045 129.608 137.773 129.692 137.455H131.033C130.957 137.97 130.769 138.434 130.47 138.847C130.175 139.256 129.783 139.581 129.294 139.824C128.809 140.062 128.245 140.182 127.601 140.182ZM132.993 140V131.273H134.288V132.591H134.379C134.538 132.159 134.826 131.809 135.243 131.54C135.66 131.271 136.129 131.136 136.652 131.136C136.75 131.136 136.874 131.138 137.021 131.142C137.169 131.146 137.281 131.152 137.357 131.159V132.523C137.311 132.511 137.207 132.494 137.044 132.472C136.885 132.445 136.716 132.432 136.538 132.432C136.114 132.432 135.735 132.521 135.402 132.699C135.072 132.873 134.811 133.116 134.618 133.426C134.429 133.733 134.334 134.083 134.334 134.477V140H132.993ZM138.946 140V131.273H140.287V140H138.946ZM139.628 129.818C139.366 129.818 139.141 129.729 138.952 129.551C138.766 129.373 138.673 129.159 138.673 128.909C138.673 128.659 138.766 128.445 138.952 128.267C139.141 128.089 139.366 128 139.628 128C139.889 128 140.113 128.089 140.298 128.267C140.488 128.445 140.582 128.659 140.582 128.909C140.582 129.159 140.488 129.373 140.298 129.551C140.113 129.729 139.889 129.818 139.628 129.818ZM142.743 143.273V131.273H144.038V132.659H144.197C144.296 132.508 144.432 132.314 144.607 132.08C144.785 131.841 145.038 131.629 145.368 131.443C145.701 131.254 146.152 131.159 146.72 131.159C147.455 131.159 148.103 131.343 148.663 131.71C149.224 132.078 149.661 132.598 149.976 133.273C150.29 133.947 150.447 134.742 150.447 135.659C150.447 136.583 150.29 137.384 149.976 138.062C149.661 138.737 149.226 139.259 148.669 139.631C148.112 139.998 147.47 140.182 146.743 140.182C146.182 140.182 145.733 140.089 145.396 139.903C145.059 139.714 144.8 139.5 144.618 139.261C144.436 139.019 144.296 138.818 144.197 138.659H144.084V143.273H142.743ZM144.061 135.636C144.061 136.295 144.158 136.877 144.351 137.381C144.544 137.881 144.826 138.273 145.197 138.557C145.569 138.837 146.023 138.977 146.561 138.977C147.122 138.977 147.589 138.83 147.964 138.534C148.343 138.235 148.627 137.833 148.817 137.33C149.01 136.822 149.107 136.258 149.107 135.636C149.107 135.023 149.012 134.47 148.822 133.977C148.637 133.481 148.355 133.089 147.976 132.801C147.601 132.509 147.129 132.364 146.561 132.364C146.016 132.364 145.557 132.502 145.186 132.778C144.815 133.051 144.535 133.434 144.345 133.926C144.156 134.415 144.061 134.985 144.061 135.636ZM156.288 131.273V132.409H151.766V131.273H156.288ZM153.084 129.182H154.425V137.5C154.425 137.879 154.48 138.163 154.589 138.352C154.703 138.538 154.847 138.663 155.021 138.727C155.199 138.788 155.387 138.818 155.584 138.818C155.732 138.818 155.853 138.811 155.947 138.795C156.042 138.777 156.118 138.761 156.175 138.75L156.447 139.955C156.357 139.989 156.23 140.023 156.067 140.057C155.904 140.095 155.697 140.114 155.447 140.114C155.069 140.114 154.697 140.032 154.334 139.869C153.974 139.706 153.675 139.458 153.436 139.125C153.201 138.792 153.084 138.371 153.084 137.864V129.182ZM160.874 140.205C160.321 140.205 159.819 140.1 159.368 139.892C158.917 139.68 158.559 139.375 158.294 138.977C158.029 138.576 157.896 138.091 157.896 137.523C157.896 137.023 157.995 136.617 158.192 136.307C158.389 135.992 158.652 135.746 158.982 135.568C159.311 135.39 159.675 135.258 160.072 135.17C160.474 135.08 160.877 135.008 161.283 134.955C161.813 134.886 162.243 134.835 162.572 134.801C162.906 134.763 163.148 134.701 163.3 134.614C163.455 134.527 163.533 134.375 163.533 134.159V134.114C163.533 133.553 163.379 133.117 163.072 132.807C162.769 132.496 162.309 132.341 161.692 132.341C161.052 132.341 160.55 132.481 160.186 132.761C159.822 133.042 159.567 133.341 159.419 133.659L158.146 133.205C158.374 132.674 158.677 132.261 159.055 131.966C159.438 131.667 159.855 131.458 160.305 131.341C160.76 131.22 161.207 131.159 161.646 131.159C161.927 131.159 162.249 131.193 162.612 131.261C162.98 131.326 163.334 131.46 163.675 131.665C164.019 131.869 164.305 132.178 164.533 132.591C164.76 133.004 164.874 133.557 164.874 134.25V140H163.533V138.818H163.464C163.374 139.008 163.222 139.21 163.01 139.426C162.798 139.642 162.516 139.826 162.163 139.977C161.811 140.129 161.381 140.205 160.874 140.205ZM161.078 139C161.608 139 162.055 138.896 162.419 138.688C162.786 138.479 163.063 138.21 163.249 137.881C163.438 137.551 163.533 137.205 163.533 136.841V135.614C163.476 135.682 163.351 135.744 163.158 135.801C162.968 135.854 162.749 135.902 162.499 135.943C162.252 135.981 162.012 136.015 161.777 136.045C161.546 136.072 161.358 136.095 161.214 136.114C160.866 136.159 160.54 136.233 160.237 136.335C159.938 136.434 159.696 136.583 159.51 136.784C159.328 136.981 159.237 137.25 159.237 137.591C159.237 138.057 159.41 138.409 159.754 138.648C160.103 138.883 160.544 139 161.078 139ZM167.321 140V131.273H168.616V132.591H168.707C168.866 132.159 169.154 131.809 169.571 131.54C169.988 131.271 170.457 131.136 170.98 131.136C171.079 131.136 171.202 131.138 171.349 131.142C171.497 131.146 171.609 131.152 171.685 131.159V132.523C171.639 132.511 171.535 132.494 171.372 132.472C171.213 132.445 171.045 132.432 170.866 132.432C170.442 132.432 170.063 132.521 169.73 132.699C169.401 132.873 169.139 133.116 168.946 133.426C168.757 133.733 168.662 134.083 168.662 134.477V140H167.321ZM173.251 140.091C172.971 140.091 172.731 139.991 172.53 139.79C172.329 139.589 172.229 139.348 172.229 139.068C172.229 138.788 172.329 138.547 172.53 138.347C172.731 138.146 172.971 138.045 173.251 138.045C173.532 138.045 173.772 138.146 173.973 138.347C174.174 138.547 174.274 138.788 174.274 139.068C174.274 139.254 174.227 139.424 174.132 139.58C174.041 139.735 173.918 139.86 173.763 139.955C173.611 140.045 173.441 140.091 173.251 140.091Z" fill="#495057"/>
</svg>
