<svg width="341" height="126" viewBox="0 0 341 126" fill="none" xmlns="http://www.w3.org/2000/svg">
<path d="M64.978 23V5.54545H76.7393V8.58807H68.6683V12.7472H76.1342V15.7898H68.6683V19.9574H76.7734V23H64.978ZM83.2358 5.54545V23H79.6051V5.54545H83.2358ZM97.6648 23.2557C96.3182 23.2557 95.1591 22.983 94.1875 22.4375C93.2216 21.8864 92.4773 21.108 91.9545 20.1023C91.4318 19.0909 91.1705 17.8949 91.1705 16.5142C91.1705 15.1676 91.4318 13.9858 91.9545 12.9688C92.4773 11.9517 93.2131 11.1591 94.1619 10.5909C95.1165 10.0227 96.2358 9.73864 97.5199 9.73864C98.3835 9.73864 99.1875 9.87784 99.9318 10.1562C100.682 10.429 101.335 10.8409 101.892 11.392C102.455 11.9432 102.892 12.6364 103.205 13.4716C103.517 14.3011 103.673 15.2727 103.673 16.3864V17.3835H92.6193V15.1335H100.256C100.256 14.6108 100.142 14.1477 99.9148 13.7443C99.6875 13.3409 99.3722 13.0256 98.9688 12.7983C98.571 12.5653 98.108 12.4489 97.5795 12.4489C97.0284 12.4489 96.5398 12.5767 96.1136 12.8324C95.6932 13.0824 95.3636 13.4205 95.125 13.8466C94.8864 14.267 94.7642 14.7358 94.7585 15.2528V17.392C94.7585 18.0398 94.8778 18.5994 95.1165 19.071C95.3608 19.5426 95.7045 19.9062 96.1477 20.1619C96.5909 20.4176 97.1165 20.5455 97.7244 20.5455C98.1278 20.5455 98.4972 20.4886 98.8324 20.375C99.1676 20.2614 99.4545 20.0909 99.6932 19.8636C99.9318 19.6364 100.114 19.358 100.239 19.0284L103.597 19.25C103.426 20.0568 103.077 20.7614 102.548 21.3636C102.026 21.9602 101.349 22.4261 100.52 22.7614C99.696 23.0909 98.7443 23.2557 97.6648 23.2557ZM109.673 15.4318V23H106.043V9.90909H109.503V12.2188H109.656C109.946 11.4574 110.432 10.8551 111.114 10.4119C111.795 9.96307 112.622 9.73864 113.594 9.73864C114.503 9.73864 115.295 9.9375 115.972 10.3352C116.648 10.733 117.173 11.3011 117.548 12.0398C117.923 12.7727 118.111 13.6477 118.111 14.6648V23H114.48V15.3125C114.486 14.5114 114.281 13.8864 113.866 13.4375C113.452 12.983 112.881 12.7557 112.153 12.7557C111.665 12.7557 111.233 12.8608 110.858 13.071C110.489 13.2812 110.199 13.5881 109.989 13.9915C109.784 14.3892 109.679 14.8693 109.673 15.4318ZM126.887 23.2557C125.546 23.2557 124.393 22.9716 123.427 22.4034C122.467 21.8295 121.728 21.0341 121.211 20.017C120.7 19 120.444 17.8295 120.444 16.5057C120.444 15.1648 120.702 13.9886 121.219 12.9773C121.742 11.9602 122.484 11.1676 123.444 10.5994C124.404 10.0256 125.546 9.73864 126.87 9.73864C128.012 9.73864 129.012 9.94602 129.87 10.3608C130.728 10.7756 131.407 11.358 131.907 12.108C132.407 12.858 132.683 13.7386 132.734 14.75H129.308C129.211 14.0966 128.955 13.571 128.54 13.1733C128.131 12.7699 127.594 12.5682 126.93 12.5682C126.367 12.5682 125.876 12.7216 125.455 13.0284C125.04 13.3295 124.717 13.7699 124.484 14.3494C124.251 14.929 124.134 15.6307 124.134 16.4545C124.134 17.2898 124.248 18 124.475 18.5852C124.708 19.1705 125.035 19.6165 125.455 19.9233C125.876 20.2301 126.367 20.3835 126.93 20.3835C127.344 20.3835 127.717 20.2983 128.046 20.1278C128.381 19.9574 128.657 19.7102 128.873 19.3864C129.094 19.0568 129.239 18.6619 129.308 18.2017H132.734C132.677 19.2017 132.404 20.0824 131.915 20.8438C131.433 21.5994 130.765 22.1903 129.913 22.6165C129.06 23.0426 128.052 23.2557 126.887 23.2557ZM135.058 23V9.90909H138.578V12.1932H138.714C138.953 11.3807 139.354 10.767 139.916 10.3523C140.479 9.93182 141.126 9.72159 141.859 9.72159C142.041 9.72159 142.237 9.73295 142.447 9.75568C142.658 9.77841 142.842 9.80966 143.001 9.84943V13.071C142.831 13.0199 142.595 12.9744 142.294 12.9347C141.993 12.8949 141.717 12.875 141.467 12.875C140.933 12.875 140.456 12.9915 140.036 13.2244C139.621 13.4517 139.291 13.7699 139.047 14.179C138.808 14.5881 138.689 15.0597 138.689 15.5938V23H135.058ZM144.879 23V9.90909H148.509V23H144.879ZM146.702 8.22159C146.163 8.22159 145.7 8.04261 145.313 7.68466C144.933 7.32102 144.742 6.88636 144.742 6.38068C144.742 5.88068 144.933 5.4517 145.313 5.09375C145.7 4.73011 146.163 4.54829 146.702 4.54829C147.242 4.54829 147.702 4.73011 148.083 5.09375C148.469 5.4517 148.663 5.88068 148.663 6.38068C148.663 6.88636 148.469 7.32102 148.083 7.68466C147.702 8.04261 147.242 8.22159 146.702 8.22159ZM151.418 27.9091V9.90909H154.997V12.108H155.159C155.318 11.7557 155.548 11.3977 155.849 11.0341C156.156 10.6648 156.554 10.358 157.043 10.1136C157.537 9.86364 158.151 9.73864 158.884 9.73864C159.838 9.73864 160.719 9.98864 161.526 10.4886C162.332 10.983 162.977 11.7301 163.46 12.7301C163.943 13.7244 164.185 14.9716 164.185 16.4716C164.185 17.9318 163.949 19.1648 163.477 20.1705C163.011 21.1705 162.375 21.929 161.568 22.446C160.767 22.9574 159.869 23.2131 158.875 23.2131C158.17 23.2131 157.571 23.0966 157.077 22.8636C156.588 22.6307 156.188 22.3381 155.875 21.9858C155.562 21.6278 155.324 21.267 155.159 20.9034H155.048V27.9091H151.418ZM154.972 16.4545C154.972 17.233 155.08 17.9119 155.295 18.4915C155.511 19.071 155.824 19.5227 156.233 19.8466C156.642 20.1648 157.139 20.3239 157.724 20.3239C158.315 20.3239 158.815 20.1619 159.224 19.8381C159.634 19.5085 159.943 19.054 160.153 18.4744C160.369 17.8892 160.477 17.2159 160.477 16.4545C160.477 15.6989 160.372 15.0341 160.162 14.4602C159.952 13.8864 159.642 13.4375 159.233 13.1136C158.824 12.7898 158.321 12.6278 157.724 12.6278C157.134 12.6278 156.634 12.7841 156.224 13.0966C155.821 13.4091 155.511 13.8523 155.295 14.4261C155.08 15 154.972 15.6761 154.972 16.4545ZM173.568 9.90909V12.6364H165.685V9.90909H173.568ZM167.474 6.77273H171.105V18.9773C171.105 19.3125 171.156 19.5739 171.259 19.7614C171.361 19.9432 171.503 20.071 171.685 20.1449C171.872 20.2187 172.088 20.2557 172.332 20.2557C172.503 20.2557 172.673 20.2415 172.844 20.2131C173.014 20.179 173.145 20.1534 173.236 20.1364L173.807 22.8381C173.625 22.8949 173.369 22.9602 173.04 23.0341C172.71 23.1136 172.31 23.1619 171.838 23.179C170.963 23.2131 170.196 23.0966 169.537 22.8295C168.884 22.5625 168.375 22.1477 168.011 21.5852C167.648 21.0227 167.469 20.3125 167.474 19.4545V6.77273ZM179.666 23.2472C178.831 23.2472 178.087 23.1023 177.433 22.8125C176.78 22.517 176.263 22.0824 175.882 21.5085C175.507 20.929 175.32 20.2074 175.32 19.3438C175.32 18.6165 175.453 18.0057 175.72 17.5114C175.987 17.017 176.351 16.6193 176.811 16.3182C177.271 16.017 177.794 15.7898 178.379 15.6364C178.97 15.483 179.589 15.375 180.237 15.3125C180.999 15.233 181.612 15.1591 182.078 15.0909C182.544 15.017 182.882 14.9091 183.092 14.767C183.303 14.625 183.408 14.4148 183.408 14.1364V14.0852C183.408 13.5455 183.237 13.1278 182.896 12.8324C182.561 12.5369 182.084 12.3892 181.464 12.3892C180.811 12.3892 180.291 12.5341 179.905 12.8239C179.518 13.108 179.263 13.4659 179.138 13.8977L175.78 13.625C175.95 12.8295 176.286 12.142 176.786 11.5625C177.286 10.9773 177.93 10.5284 178.72 10.2159C179.516 9.89773 180.436 9.73864 181.482 9.73864C182.209 9.73864 182.905 9.82386 183.57 9.99432C184.24 10.1648 184.834 10.429 185.351 10.7869C185.874 11.1449 186.286 11.6051 186.587 12.1676C186.888 12.7244 187.038 13.392 187.038 14.1705V23H183.595V21.1847H183.493C183.283 21.5938 183.001 21.9545 182.649 22.267C182.297 22.5739 181.874 22.8153 181.379 22.9915C180.885 23.1619 180.314 23.2472 179.666 23.2472ZM180.706 20.7415C181.24 20.7415 181.712 20.6364 182.121 20.4261C182.53 20.2102 182.851 19.9205 183.084 19.5568C183.317 19.1932 183.433 18.7812 183.433 18.321V16.9318C183.32 17.0057 183.163 17.0739 182.964 17.1364C182.771 17.1932 182.553 17.2472 182.308 17.2983C182.064 17.3437 181.82 17.3864 181.575 17.4261C181.331 17.4602 181.109 17.4915 180.911 17.5199C180.484 17.5824 180.112 17.6818 179.794 17.8182C179.476 17.9545 179.229 18.1392 179.053 18.3722C178.876 18.5994 178.788 18.8835 178.788 19.2244C178.788 19.7188 178.967 20.0966 179.325 20.358C179.689 20.6136 180.149 20.7415 180.706 20.7415ZM194.679 23.2131C193.685 23.2131 192.784 22.9574 191.977 22.446C191.176 21.929 190.54 21.1705 190.068 20.1705C189.602 19.1648 189.369 17.9318 189.369 16.4716C189.369 14.9716 189.611 13.7244 190.094 12.7301C190.577 11.7301 191.219 10.983 192.02 10.4886C192.827 9.98864 193.71 9.73864 194.67 9.73864C195.403 9.73864 196.014 9.86364 196.503 10.1136C196.997 10.358 197.395 10.6648 197.696 11.0341C198.003 11.3977 198.236 11.7557 198.395 12.108H198.506V5.54545H202.128V23H198.548V20.9034H198.395C198.224 21.267 197.983 21.6278 197.67 21.9858C197.364 22.3381 196.963 22.6307 196.469 22.8636C195.98 23.0966 195.384 23.2131 194.679 23.2131ZM195.83 20.3239C196.415 20.3239 196.909 20.1648 197.312 19.8466C197.722 19.5227 198.034 19.071 198.25 18.4915C198.472 17.9119 198.582 17.233 198.582 16.4545C198.582 15.6761 198.474 15 198.259 14.4261C198.043 13.8523 197.73 13.4091 197.321 13.0966C196.912 12.7841 196.415 12.6278 195.83 12.6278C195.233 12.6278 194.73 12.7898 194.321 13.1136C193.912 13.4375 193.602 13.8864 193.392 14.4602C193.182 15.0341 193.077 15.6989 193.077 16.4545C193.077 17.2159 193.182 17.8892 193.392 18.4744C193.608 19.054 193.918 19.5085 194.321 19.8381C194.73 20.1619 195.233 20.3239 195.83 20.3239ZM211.028 23.2557C209.704 23.2557 208.559 22.9744 207.593 22.4119C206.633 21.8437 205.891 21.054 205.369 20.0426C204.846 19.0256 204.585 17.8466 204.585 16.5057C204.585 15.1534 204.846 13.9716 205.369 12.9602C205.891 11.9432 206.633 11.1534 207.593 10.5909C208.559 10.0227 209.704 9.73864 211.028 9.73864C212.352 9.73864 213.494 10.0227 214.454 10.5909C215.42 11.1534 216.164 11.9432 216.687 12.9602C217.21 13.9716 217.471 15.1534 217.471 16.5057C217.471 17.8466 217.21 19.0256 216.687 20.0426C216.164 21.054 215.42 21.8437 214.454 22.4119C213.494 22.9744 212.352 23.2557 211.028 23.2557ZM211.045 20.4432C211.647 20.4432 212.15 20.2727 212.553 19.9318C212.957 19.5852 213.261 19.1136 213.465 18.517C213.675 17.9205 213.781 17.2415 213.781 16.4801C213.781 15.7188 213.675 15.0398 213.465 14.4432C213.261 13.8466 212.957 13.375 212.553 13.0284C212.15 12.6818 211.647 12.5085 211.045 12.5085C210.437 12.5085 209.925 12.6818 209.511 13.0284C209.102 13.375 208.792 13.8466 208.582 14.4432C208.377 15.0398 208.275 15.7188 208.275 16.4801C208.275 17.2415 208.377 17.9205 208.582 18.517C208.792 19.1136 209.102 19.5852 209.511 19.9318C209.925 20.2727 210.437 20.4432 211.045 20.4432ZM219.832 23V9.90909H223.352V12.1932H223.488C223.727 11.3807 224.127 10.767 224.69 10.3523C225.252 9.93182 225.9 9.72159 226.633 9.72159C226.815 9.72159 227.011 9.73295 227.221 9.75568C227.431 9.77841 227.616 9.80966 227.775 9.84943V13.071C227.604 13.0199 227.369 12.9744 227.067 12.9347C226.766 12.8949 226.491 12.875 226.241 12.875C225.707 12.875 225.229 12.9915 224.809 13.2244C224.394 13.4517 224.065 13.7699 223.82 14.179C223.582 14.5881 223.462 15.0597 223.462 15.5938V23H219.832ZM238.94 23.2472C238.104 23.2472 237.36 23.1023 236.707 22.8125C236.053 22.517 235.536 22.0824 235.156 21.5085C234.781 20.929 234.593 20.2074 234.593 19.3438C234.593 18.6165 234.727 18.0057 234.994 17.5114C235.261 17.017 235.624 16.6193 236.085 16.3182C236.545 16.017 237.067 15.7898 237.653 15.6364C238.244 15.483 238.863 15.375 239.511 15.3125C240.272 15.233 240.886 15.1591 241.352 15.0909C241.817 15.017 242.156 14.9091 242.366 14.767C242.576 14.625 242.681 14.4148 242.681 14.1364V14.0852C242.681 13.5455 242.511 13.1278 242.17 12.8324C241.835 12.5369 241.357 12.3892 240.738 12.3892C240.085 12.3892 239.565 12.5341 239.178 12.8239C238.792 13.108 238.536 13.4659 238.411 13.8977L235.053 13.625C235.224 12.8295 235.559 12.142 236.059 11.5625C236.559 10.9773 237.204 10.5284 237.994 10.2159C238.789 9.89773 239.71 9.73864 240.755 9.73864C241.482 9.73864 242.178 9.82386 242.843 9.99432C243.513 10.1648 244.107 10.429 244.624 10.7869C245.147 11.1449 245.559 11.6051 245.86 12.1676C246.161 12.7244 246.312 13.392 246.312 14.1705V23H242.869V21.1847H242.766C242.556 21.5938 242.275 21.9545 241.923 22.267C241.57 22.5739 241.147 22.8153 240.653 22.9915C240.158 23.1619 239.587 23.2472 238.94 23.2472ZM239.979 20.7415C240.513 20.7415 240.985 20.6364 241.394 20.4261C241.803 20.2102 242.124 19.9205 242.357 19.5568C242.59 19.1932 242.707 18.7812 242.707 18.321V16.9318C242.593 17.0057 242.437 17.0739 242.238 17.1364C242.045 17.1932 241.826 17.2472 241.582 17.2983C241.337 17.3437 241.093 17.3864 240.849 17.4261C240.604 17.4602 240.383 17.4915 240.184 17.5199C239.758 17.5824 239.386 17.6818 239.067 17.8182C238.749 17.9545 238.502 18.1392 238.326 18.3722C238.15 18.5994 238.062 18.8835 238.062 19.2244C238.062 19.7188 238.241 20.0966 238.599 20.358C238.962 20.6136 239.423 20.7415 239.979 20.7415ZM257.523 17.4261V9.90909H261.154V23H257.668V20.6222H257.532C257.237 21.3892 256.745 22.0057 256.058 22.4716C255.376 22.9375 254.543 23.1705 253.56 23.1705C252.685 23.1705 251.915 22.9716 251.251 22.5739C250.586 22.1761 250.066 21.6108 249.691 20.8778C249.322 20.1449 249.134 19.267 249.129 18.2443V9.90909H252.759V17.5966C252.765 18.3693 252.972 18.9801 253.381 19.429C253.79 19.8778 254.339 20.1023 255.026 20.1023C255.464 20.1023 255.873 20.0028 256.254 19.804C256.634 19.5994 256.941 19.2983 257.174 18.9006C257.413 18.5028 257.529 18.0114 257.523 17.4261ZM253.85 8.22159L255.657 4.34375H259.015L256.415 8.22159H253.85ZM267.689 15.4318V23H264.058V9.90909H267.518V12.2188H267.672C267.962 11.4574 268.447 10.8551 269.129 10.4119C269.811 9.96307 270.638 9.73864 271.609 9.73864C272.518 9.73864 273.311 9.9375 273.987 10.3352C274.663 10.733 275.189 11.3011 275.564 12.0398C275.939 12.7727 276.126 13.6477 276.126 14.6648V23H272.496V15.3125C272.501 14.5114 272.297 13.8864 271.882 13.4375C271.467 12.983 270.896 12.7557 270.169 12.7557C269.68 12.7557 269.249 12.8608 268.874 13.071C268.504 13.2812 268.214 13.5881 268.004 13.9915C267.8 14.3892 267.695 14.8693 267.689 15.4318ZM73.3217 44.4318V52H69.6911V38.9091H73.1513V41.2188H73.3047C73.5945 40.4574 74.0803 39.8551 74.7621 39.4119C75.4439 38.9631 76.2706 38.7386 77.2422 38.7386C78.1513 38.7386 78.9439 38.9375 79.62 39.3352C80.2962 39.733 80.8217 40.3011 81.1967 41.0398C81.5717 41.7727 81.7592 42.6477 81.7592 43.6648V52H78.1286V44.3125C78.1342 43.5114 77.9297 42.8864 77.5149 42.4375C77.1001 41.983 76.5291 41.7557 75.8018 41.7557C75.3132 41.7557 74.8814 41.8608 74.5064 42.071C74.1371 42.2812 73.8473 42.5881 73.6371 42.9915C73.4325 43.3892 73.3274 43.8693 73.3217 44.4318ZM90.5355 52.2557C89.2116 52.2557 88.0668 51.9744 87.1009 51.4119C86.1406 50.8437 85.3991 50.054 84.8764 49.0426C84.3537 48.0256 84.0923 46.8466 84.0923 45.5057C84.0923 44.1534 84.3537 42.9716 84.8764 41.9602C85.3991 40.9432 86.1406 40.1534 87.1009 39.5909C88.0668 39.0227 89.2116 38.7386 90.5355 38.7386C91.8594 38.7386 93.0014 39.0227 93.9616 39.5909C94.9276 40.1534 95.6719 40.9432 96.1946 41.9602C96.7173 42.9716 96.9787 44.1534 96.9787 45.5057C96.9787 46.8466 96.7173 48.0256 96.1946 49.0426C95.6719 50.054 94.9276 50.8437 93.9616 51.4119C93.0014 51.9744 91.8594 52.2557 90.5355 52.2557ZM90.5526 49.4432C91.1548 49.4432 91.6577 49.2727 92.0611 48.9318C92.4645 48.5852 92.7685 48.1136 92.973 47.517C93.1832 46.9205 93.2884 46.2415 93.2884 45.4801C93.2884 44.7188 93.1832 44.0398 92.973 43.4432C92.7685 42.8466 92.4645 42.375 92.0611 42.0284C91.6577 41.6818 91.1548 41.5085 90.5526 41.5085C89.9446 41.5085 89.4332 41.6818 89.0185 42.0284C88.6094 42.375 88.2997 42.8466 88.0895 43.4432C87.8849 44.0398 87.7827 44.7188 87.7827 45.4801C87.7827 46.2415 87.8849 46.9205 88.0895 47.517C88.2997 48.1136 88.6094 48.5852 89.0185 48.9318C89.4332 49.2727 89.9446 49.4432 90.5526 49.4432ZM115.786 42.642L112.462 42.8466C112.406 42.5625 112.283 42.3068 112.096 42.0795C111.908 41.8466 111.661 41.6619 111.354 41.5256C111.053 41.3835 110.692 41.3125 110.272 41.3125C109.71 41.3125 109.235 41.4318 108.849 41.6705C108.462 41.9034 108.269 42.2159 108.269 42.608C108.269 42.9205 108.394 43.1847 108.644 43.4006C108.894 43.6165 109.323 43.7898 109.931 43.9205L112.3 44.3977C113.573 44.6591 114.522 45.0795 115.147 45.6591C115.772 46.2386 116.085 47 116.085 47.9432C116.085 48.8011 115.832 49.554 115.326 50.2017C114.826 50.8494 114.138 51.3551 113.263 51.7188C112.394 52.0767 111.391 52.2557 110.255 52.2557C108.522 52.2557 107.141 51.8949 106.113 51.1733C105.09 50.446 104.491 49.4574 104.315 48.2074L107.886 48.0199C107.994 48.5483 108.255 48.9517 108.67 49.2301C109.085 49.5028 109.616 49.6392 110.263 49.6392C110.9 49.6392 111.411 49.517 111.798 49.2727C112.19 49.0227 112.388 48.7017 112.394 48.3097C112.388 47.9801 112.249 47.7102 111.977 47.5C111.704 47.2841 111.283 47.1193 110.715 47.0057L108.448 46.554C107.17 46.2983 106.218 45.8551 105.593 45.2244C104.974 44.5937 104.664 43.7898 104.664 42.8125C104.664 41.9716 104.891 41.2472 105.346 40.6392C105.806 40.0312 106.451 39.5625 107.281 39.233C108.116 38.9034 109.093 38.7386 110.212 38.7386C111.866 38.7386 113.167 39.0881 114.116 39.7869C115.07 40.4858 115.627 41.4375 115.786 42.642ZM124.337 52.2557C122.99 52.2557 121.831 51.983 120.859 51.4375C119.893 50.8864 119.149 50.108 118.626 49.1023C118.104 48.0909 117.842 46.8949 117.842 45.5142C117.842 44.1676 118.104 42.9858 118.626 41.9688C119.149 40.9517 119.885 40.1591 120.834 39.5909C121.788 39.0227 122.908 38.7386 124.192 38.7386C125.055 38.7386 125.859 38.8778 126.604 39.1562C127.354 39.429 128.007 39.8409 128.564 40.392C129.126 40.9432 129.564 41.6364 129.876 42.4716C130.189 43.3011 130.345 44.2727 130.345 45.3864V46.3835H119.291V44.1335H126.928C126.928 43.6108 126.814 43.1477 126.587 42.7443C126.359 42.3409 126.044 42.0256 125.641 41.7983C125.243 41.5653 124.78 41.4489 124.251 41.4489C123.7 41.4489 123.212 41.5767 122.786 41.8324C122.365 42.0824 122.036 42.4205 121.797 42.8466C121.558 43.267 121.436 43.7358 121.43 44.2528V46.392C121.43 47.0398 121.55 47.5994 121.788 48.071C122.033 48.5426 122.376 48.9062 122.82 49.1619C123.263 49.4176 123.788 49.5455 124.396 49.5455C124.8 49.5455 125.169 49.4886 125.504 49.375C125.839 49.2614 126.126 49.0909 126.365 48.8636C126.604 48.6364 126.786 48.358 126.911 48.0284L130.268 48.25C130.098 49.0568 129.749 49.7614 129.22 50.3636C128.697 50.9602 128.021 51.4261 127.192 51.7614C126.368 52.0909 125.416 52.2557 124.337 52.2557ZM141.9 44.4318V52H138.269V34.5455H141.798V41.2188H141.951C142.246 40.446 142.724 39.8409 143.383 39.4034C144.042 38.9602 144.869 38.7386 145.863 38.7386C146.772 38.7386 147.565 38.9375 148.241 39.3352C148.923 39.7273 149.451 40.2926 149.826 41.0312C150.207 41.7642 150.394 42.642 150.388 43.6648V52H146.758V44.3125C146.763 43.5057 146.559 42.8778 146.144 42.429C145.735 41.9801 145.161 41.7557 144.423 41.7557C143.928 41.7557 143.491 41.8608 143.11 42.071C142.735 42.2812 142.44 42.5881 142.224 42.9915C142.013 43.3892 141.906 43.8693 141.9 44.4318ZM156.979 52.2472C156.143 52.2472 155.399 52.1023 154.746 51.8125C154.092 51.517 153.575 51.0824 153.195 50.5085C152.82 49.929 152.632 49.2074 152.632 48.3438C152.632 47.6165 152.766 47.0057 153.033 46.5114C153.3 46.017 153.663 45.6193 154.124 45.3182C154.584 45.017 155.107 44.7898 155.692 44.6364C156.283 44.483 156.902 44.375 157.55 44.3125C158.311 44.233 158.925 44.1591 159.391 44.0909C159.857 44.017 160.195 43.9091 160.405 43.767C160.615 43.625 160.72 43.4148 160.72 43.1364V43.0852C160.72 42.5455 160.55 42.1278 160.209 41.8324C159.874 41.5369 159.396 41.3892 158.777 41.3892C158.124 41.3892 157.604 41.5341 157.217 41.8239C156.831 42.108 156.575 42.4659 156.45 42.8977L153.092 42.625C153.263 41.8295 153.598 41.142 154.098 40.5625C154.598 39.9773 155.243 39.5284 156.033 39.2159C156.828 38.8977 157.749 38.7386 158.794 38.7386C159.521 38.7386 160.217 38.8239 160.882 38.9943C161.553 39.1648 162.146 39.429 162.663 39.7869C163.186 40.1449 163.598 40.6051 163.899 41.1676C164.2 41.7244 164.351 42.392 164.351 43.1705V52H160.908V50.1847H160.805C160.595 50.5938 160.314 50.9545 159.962 51.267C159.609 51.5739 159.186 51.8153 158.692 51.9915C158.197 52.1619 157.626 52.2472 156.979 52.2472ZM158.018 49.7415C158.553 49.7415 159.024 49.6364 159.433 49.4261C159.842 49.2102 160.163 48.9205 160.396 48.5568C160.629 48.1932 160.746 47.7812 160.746 47.321V45.9318C160.632 46.0057 160.476 46.0739 160.277 46.1364C160.084 46.1932 159.865 46.2472 159.621 46.2983C159.376 46.3437 159.132 46.3864 158.888 46.4261C158.643 46.4602 158.422 46.4915 158.223 46.5199C157.797 46.5824 157.425 46.6818 157.107 46.8182C156.788 46.9545 156.541 47.1392 156.365 47.3722C156.189 47.5994 156.101 47.8835 156.101 48.2244C156.101 48.7188 156.28 49.0966 156.638 49.358C157.001 49.6136 157.462 49.7415 158.018 49.7415ZM176.455 52.2472C175.62 52.2472 174.876 52.1023 174.222 51.8125C173.569 51.517 173.052 51.0824 172.671 50.5085C172.296 49.929 172.109 49.2074 172.109 48.3438C172.109 47.6165 172.242 47.0057 172.509 46.5114C172.776 46.017 173.14 45.6193 173.6 45.3182C174.06 45.017 174.583 44.7898 175.168 44.6364C175.759 44.483 176.379 44.375 177.026 44.3125C177.788 44.233 178.401 44.1591 178.867 44.0909C179.333 44.017 179.671 43.9091 179.881 43.767C180.092 43.625 180.197 43.4148 180.197 43.1364V43.0852C180.197 42.5455 180.026 42.1278 179.685 41.8324C179.35 41.5369 178.873 41.3892 178.254 41.3892C177.6 41.3892 177.08 41.5341 176.694 41.8239C176.308 42.108 176.052 42.4659 175.927 42.8977L172.569 42.625C172.739 41.8295 173.075 41.142 173.575 40.5625C174.075 39.9773 174.719 39.5284 175.509 39.2159C176.305 38.8977 177.225 38.7386 178.271 38.7386C178.998 38.7386 179.694 38.8239 180.359 38.9943C181.029 39.1648 181.623 39.429 182.14 39.7869C182.663 40.1449 183.075 40.6051 183.376 41.1676C183.677 41.7244 183.827 42.392 183.827 43.1705V52H180.384V50.1847H180.282C180.072 50.5938 179.79 50.9545 179.438 51.267C179.086 51.5739 178.663 51.8153 178.168 51.9915C177.674 52.1619 177.103 52.2472 176.455 52.2472ZM177.495 49.7415C178.029 49.7415 178.501 49.6364 178.91 49.4261C179.319 49.2102 179.64 48.9205 179.873 48.5568C180.106 48.1932 180.222 47.7812 180.222 47.321V45.9318C180.109 46.0057 179.952 46.0739 179.754 46.1364C179.56 46.1932 179.342 46.2472 179.097 46.2983C178.853 46.3437 178.609 46.3864 178.364 46.4261C178.12 46.4602 177.898 46.4915 177.7 46.5199C177.273 46.5824 176.901 46.6818 176.583 46.8182C176.265 46.9545 176.018 47.1392 175.842 47.3722C175.665 47.5994 175.577 47.8835 175.577 48.2244C175.577 48.7188 175.756 49.0966 176.114 49.358C176.478 49.6136 176.938 49.7415 177.495 49.7415ZM192.559 52.2557C191.218 52.2557 190.065 51.9716 189.099 51.4034C188.138 50.8295 187.4 50.0341 186.883 49.017C186.371 48 186.116 46.8295 186.116 45.5057C186.116 44.1648 186.374 42.9886 186.891 41.9773C187.414 40.9602 188.156 40.1676 189.116 39.5994C190.076 39.0256 191.218 38.7386 192.542 38.7386C193.684 38.7386 194.684 38.946 195.542 39.3608C196.4 39.7756 197.079 40.358 197.579 41.108C198.079 41.858 198.354 42.7386 198.406 43.75H194.979C194.883 43.0966 194.627 42.571 194.212 42.1733C193.803 41.7699 193.266 41.5682 192.602 41.5682C192.039 41.5682 191.548 41.7216 191.127 42.0284C190.712 42.3295 190.388 42.7699 190.156 43.3494C189.923 43.929 189.806 44.6307 189.806 45.4545C189.806 46.2898 189.92 47 190.147 47.5852C190.38 48.1705 190.707 48.6165 191.127 48.9233C191.548 49.2301 192.039 49.3835 192.602 49.3835C193.016 49.3835 193.388 49.2983 193.718 49.1278C194.053 48.9574 194.329 48.7102 194.545 48.3864C194.766 48.0568 194.911 47.6619 194.979 47.2017H198.406C198.349 48.2017 198.076 49.0824 197.587 49.8438C197.104 50.5994 196.437 51.1903 195.585 51.6165C194.732 52.0426 193.724 52.2557 192.559 52.2557ZM207.693 38.9091V41.6364H199.81V38.9091H207.693ZM201.599 35.7727H205.23V47.9773C205.23 48.3125 205.281 48.5739 205.384 48.7614C205.486 48.9432 205.628 49.071 205.81 49.1449C205.997 49.2187 206.213 49.2557 206.457 49.2557C206.628 49.2557 206.798 49.2415 206.969 49.2131C207.139 49.179 207.27 49.1534 207.361 49.1364L207.932 51.8381C207.75 51.8949 207.494 51.9602 207.165 52.0341C206.835 52.1136 206.435 52.1619 205.963 52.179C205.088 52.2131 204.321 52.0966 203.662 51.8295C203.009 51.5625 202.5 51.1477 202.136 50.5852C201.773 50.0227 201.594 49.3125 201.599 48.4545V35.7727ZM210.058 52V38.9091H213.689V52H210.058ZM211.882 37.2216C211.342 37.2216 210.879 37.0426 210.493 36.6847C210.112 36.321 209.922 35.8864 209.922 35.3807C209.922 34.8807 210.112 34.4517 210.493 34.0938C210.879 33.7301 211.342 33.5483 211.882 33.5483C212.422 33.5483 212.882 33.7301 213.263 34.0938C213.649 34.4517 213.842 34.8807 213.842 35.3807C213.842 35.8864 213.649 36.321 213.263 36.6847C212.882 37.0426 212.422 37.2216 211.882 37.2216ZM228.802 38.9091L224.225 52H220.134L215.558 38.9091H219.393L222.112 48.2756H222.248L224.958 38.9091H228.802ZM234.041 52.2472C233.206 52.2472 232.462 52.1023 231.808 51.8125C231.155 51.517 230.638 51.0824 230.257 50.5085C229.882 49.929 229.695 49.2074 229.695 48.3438C229.695 47.6165 229.828 47.0057 230.095 46.5114C230.362 46.017 230.726 45.6193 231.186 45.3182C231.646 45.017 232.169 44.7898 232.754 44.6364C233.345 44.483 233.964 44.375 234.612 44.3125C235.374 44.233 235.987 44.1591 236.453 44.0909C236.919 44.017 237.257 43.9091 237.467 43.767C237.678 43.625 237.783 43.4148 237.783 43.1364V43.0852C237.783 42.5455 237.612 42.1278 237.271 41.8324C236.936 41.5369 236.459 41.3892 235.839 41.3892C235.186 41.3892 234.666 41.5341 234.28 41.8239C233.893 42.108 233.638 42.4659 233.513 42.8977L230.155 42.625C230.325 41.8295 230.661 41.142 231.161 40.5625C231.661 39.9773 232.305 39.5284 233.095 39.2159C233.891 38.8977 234.811 38.7386 235.857 38.7386C236.584 38.7386 237.28 38.8239 237.945 38.9943C238.615 39.1648 239.209 39.429 239.726 39.7869C240.249 40.1449 240.661 40.6051 240.962 41.1676C241.263 41.7244 241.413 42.392 241.413 43.1705V52H237.97V50.1847H237.868C237.658 50.5938 237.376 50.9545 237.024 51.267C236.672 51.5739 236.249 51.8153 235.754 51.9915C235.26 52.1619 234.689 52.2472 234.041 52.2472ZM235.081 49.7415C235.615 49.7415 236.087 49.6364 236.496 49.4261C236.905 49.2102 237.226 48.9205 237.459 48.5568C237.692 48.1932 237.808 47.7812 237.808 47.321V45.9318C237.695 46.0057 237.538 46.0739 237.339 46.1364C237.146 46.1932 236.928 46.2472 236.683 46.2983C236.439 46.3437 236.195 46.3864 235.95 46.4261C235.706 46.4602 235.484 46.4915 235.286 46.5199C234.859 46.5824 234.487 46.6818 234.169 46.8182C233.851 46.9545 233.604 47.1392 233.428 47.3722C233.251 47.5994 233.163 47.8835 233.163 48.2244C233.163 48.7188 233.342 49.0966 233.7 49.358C234.064 49.6136 234.524 49.7415 235.081 49.7415ZM249.054 52.2131C248.06 52.2131 247.159 51.9574 246.352 51.446C245.551 50.929 244.915 50.1705 244.443 49.1705C243.977 48.1648 243.744 46.9318 243.744 45.4716C243.744 43.9716 243.986 42.7244 244.469 41.7301C244.952 40.7301 245.594 39.983 246.395 39.4886C247.202 38.9886 248.085 38.7386 249.045 38.7386C249.778 38.7386 250.389 38.8636 250.878 39.1136C251.372 39.358 251.77 39.6648 252.071 40.0341C252.378 40.3977 252.611 40.7557 252.77 41.108H252.881V34.5455H256.503V52H252.923V49.9034H252.77C252.599 50.267 252.358 50.6278 252.045 50.9858C251.739 51.3381 251.338 51.6307 250.844 51.8636C250.355 52.0966 249.759 52.2131 249.054 52.2131ZM250.205 49.3239C250.79 49.3239 251.284 49.1648 251.688 48.8466C252.097 48.5227 252.409 48.071 252.625 47.4915C252.847 46.9119 252.957 46.233 252.957 45.4545C252.957 44.6761 252.849 44 252.634 43.4261C252.418 42.8523 252.105 42.4091 251.696 42.0966C251.287 41.7841 250.79 41.6278 250.205 41.6278C249.608 41.6278 249.105 41.7898 248.696 42.1136C248.287 42.4375 247.977 42.8864 247.767 43.4602C247.557 44.0341 247.452 44.6989 247.452 45.4545C247.452 46.2159 247.557 46.8892 247.767 47.4744C247.983 48.054 248.293 48.5085 248.696 48.8381C249.105 49.1619 249.608 49.3239 250.205 49.3239ZM265.403 52.2557C264.079 52.2557 262.934 51.9744 261.968 51.4119C261.008 50.8437 260.266 50.054 259.744 49.0426C259.221 48.0256 258.96 46.8466 258.96 45.5057C258.96 44.1534 259.221 42.9716 259.744 41.9602C260.266 40.9432 261.008 40.1534 261.968 39.5909C262.934 39.0227 264.079 38.7386 265.403 38.7386C266.727 38.7386 267.869 39.0227 268.829 39.5909C269.795 40.1534 270.539 40.9432 271.062 41.9602C271.585 42.9716 271.846 44.1534 271.846 45.5057C271.846 46.8466 271.585 48.0256 271.062 49.0426C270.539 50.054 269.795 50.8437 268.829 51.4119C267.869 51.9744 266.727 52.2557 265.403 52.2557ZM265.42 49.4432C266.022 49.4432 266.525 49.2727 266.928 48.9318C267.332 48.5852 267.636 48.1136 267.84 47.517C268.05 46.9205 268.156 46.2415 268.156 45.4801C268.156 44.7188 268.05 44.0398 267.84 43.4432C267.636 42.8466 267.332 42.375 266.928 42.0284C266.525 41.6818 266.022 41.5085 265.42 41.5085C264.812 41.5085 264.3 41.6818 263.886 42.0284C263.477 42.375 263.167 42.8466 262.957 43.4432C262.752 44.0398 262.65 44.7188 262.65 45.4801C262.65 46.2415 262.752 46.9205 262.957 47.517C263.167 48.1136 263.477 48.5852 263.886 48.9318C264.3 49.2727 264.812 49.4432 265.42 49.4432Z" fill="#343A40"/>
<path d="M28.5526 80.3636V92H27.1435V80.3636H28.5526ZM32.5369 86.75V92H31.196V83.2727H32.4915V84.6364H32.6051C32.8097 84.1932 33.1203 83.8371 33.5369 83.5682C33.9536 83.2955 34.4915 83.1591 35.1506 83.1591C35.7415 83.1591 36.2585 83.2803 36.7017 83.5227C37.1449 83.7614 37.4896 84.125 37.7358 84.6136C37.982 85.0985 38.1051 85.7121 38.1051 86.4545V92H36.7642V86.5455C36.7642 85.8598 36.5862 85.3258 36.2301 84.9432C35.8741 84.5568 35.3854 84.3636 34.7642 84.3636C34.3362 84.3636 33.9536 84.4564 33.6165 84.642C33.2831 84.8277 33.0199 85.0985 32.8267 85.4545C32.6335 85.8106 32.5369 86.2424 32.5369 86.75ZM44.0781 95.4545C43.4304 95.4545 42.8736 95.3712 42.4077 95.2045C41.9418 95.0417 41.5535 94.8258 41.2429 94.5568C40.9361 94.2917 40.6918 94.0076 40.5099 93.7045L41.5781 92.9545C41.6993 93.1136 41.8527 93.2955 42.0384 93.5C42.224 93.7083 42.4777 93.8883 42.7997 94.0398C43.1255 94.1951 43.5516 94.2727 44.0781 94.2727C44.7827 94.2727 45.3641 94.1023 45.8224 93.7614C46.2808 93.4205 46.5099 92.8864 46.5099 92.1591V90.3864H46.3963C46.2978 90.5455 46.1577 90.7424 45.9759 90.9773C45.7978 91.2083 45.5402 91.4148 45.2031 91.5966C44.8698 91.7746 44.419 91.8636 43.8509 91.8636C43.1463 91.8636 42.5137 91.697 41.9531 91.3636C41.3963 91.0303 40.955 90.5455 40.6293 89.9091C40.3073 89.2727 40.1463 88.5 40.1463 87.5909C40.1463 86.697 40.3035 85.9186 40.6179 85.2557C40.9323 84.589 41.3698 84.0739 41.9304 83.7102C42.491 83.3428 43.1387 83.1591 43.8736 83.1591C44.4418 83.1591 44.8925 83.2538 45.2259 83.4432C45.563 83.6288 45.8205 83.8409 45.9986 84.0795C46.1804 84.3144 46.3205 84.5076 46.419 84.6591H46.5554V83.2727H47.8509V92.25C47.8509 93 47.6804 93.6098 47.3395 94.0795C47.0024 94.553 46.5478 94.8996 45.9759 95.1193C45.4077 95.3428 44.7751 95.4545 44.0781 95.4545ZM44.0327 90.6591C44.5705 90.6591 45.0251 90.536 45.3963 90.2898C45.7675 90.0436 46.0497 89.6894 46.2429 89.2273C46.4361 88.7652 46.5327 88.2121 46.5327 87.5682C46.5327 86.9394 46.438 86.3845 46.2486 85.9034C46.0592 85.4223 45.7789 85.0455 45.4077 84.7727C45.0365 84.5 44.5781 84.3636 44.0327 84.3636C43.4645 84.3636 42.991 84.5076 42.6122 84.7955C42.2372 85.0833 41.955 85.4697 41.7656 85.9545C41.58 86.4394 41.4872 86.9773 41.4872 87.5682C41.4872 88.1742 41.5819 88.7102 41.7713 89.1761C41.9645 89.6383 42.2486 90.0019 42.6236 90.267C43.0024 90.5284 43.4721 90.6591 44.0327 90.6591ZM50.3054 92V83.2727H51.6009V84.5909H51.6918C51.8509 84.1591 52.1387 83.8087 52.5554 83.5398C52.9721 83.2708 53.4418 83.1364 53.9645 83.1364C54.063 83.1364 54.1861 83.1383 54.3338 83.142C54.4815 83.1458 54.5933 83.1515 54.669 83.1591V84.5227C54.6236 84.5114 54.5194 84.4943 54.3565 84.4716C54.1974 84.4451 54.0289 84.4318 53.8509 84.4318C53.4266 84.4318 53.0478 84.5208 52.7145 84.6989C52.3849 84.8731 52.1236 85.1155 51.9304 85.4261C51.741 85.733 51.6463 86.0833 51.6463 86.4773V92H50.3054ZM59.652 92.1818C58.8111 92.1818 58.0857 91.9962 57.4759 91.625C56.8698 91.25 56.402 90.7273 56.0724 90.0568C55.7467 89.3826 55.5838 88.5985 55.5838 87.7045C55.5838 86.8106 55.7467 86.0227 56.0724 85.3409C56.402 84.6553 56.8603 84.1212 57.4474 83.7386C58.0384 83.3523 58.7277 83.1591 59.5156 83.1591C59.9702 83.1591 60.419 83.2348 60.8622 83.3864C61.3054 83.5379 61.7088 83.7841 62.0724 84.125C62.4361 84.4621 62.7259 84.9091 62.9418 85.4659C63.1577 86.0227 63.2656 86.7083 63.2656 87.5227V88.0909H56.5384V86.9318H61.902C61.902 86.4394 61.8035 86 61.6065 85.6136C61.4134 85.2273 61.1368 84.9223 60.777 84.6989C60.4209 84.4754 60.0005 84.3636 59.5156 84.3636C58.9815 84.3636 58.5194 84.4962 58.1293 84.7614C57.7429 85.0227 57.4455 85.3636 57.2372 85.7841C57.0289 86.2045 56.9247 86.6553 56.9247 87.1364V87.9091C56.9247 88.5682 57.0384 89.1269 57.2656 89.5852C57.4967 90.0398 57.8168 90.3864 58.2259 90.625C58.6349 90.8598 59.1103 90.9773 59.652 90.9773C60.0043 90.9773 60.3224 90.928 60.6065 90.8295C60.8944 90.7273 61.1425 90.5758 61.3509 90.375C61.5592 90.1705 61.7202 89.9167 61.8338 89.6136L63.1293 89.9773C62.9929 90.4167 62.7637 90.803 62.4418 91.1364C62.1198 91.4659 61.7221 91.7235 61.2486 91.9091C60.7751 92.0909 60.2429 92.1818 59.652 92.1818ZM71.4872 85.2273L70.2827 85.5682C70.2069 85.3674 70.0952 85.1723 69.9474 84.983C69.8035 84.7898 69.6065 84.6307 69.3565 84.5057C69.1065 84.3807 68.7865 84.3182 68.3963 84.3182C67.8622 84.3182 67.4171 84.4413 67.0611 84.6875C66.7088 84.9299 66.5327 85.2386 66.5327 85.6136C66.5327 85.947 66.6539 86.2102 66.8963 86.4034C67.1387 86.5966 67.5175 86.7576 68.0327 86.8864L69.3281 87.2045C70.1084 87.3939 70.6899 87.6837 71.0724 88.0739C71.455 88.4602 71.6463 88.9583 71.6463 89.5682C71.6463 90.0682 71.5024 90.5152 71.2145 90.9091C70.9304 91.303 70.5327 91.6136 70.0213 91.8409C69.5099 92.0682 68.9152 92.1818 68.2372 92.1818C67.3471 92.1818 66.6103 91.9886 66.027 91.6023C65.4437 91.2159 65.0743 90.6515 64.919 89.9091L66.1918 89.5909C66.313 90.0606 66.5421 90.4129 66.8793 90.6477C67.2202 90.8826 67.6652 91 68.2145 91C68.8395 91 69.3357 90.8674 69.7031 90.6023C70.0743 90.3333 70.2599 90.0114 70.2599 89.6364C70.2599 89.3333 70.1539 89.0795 69.9418 88.875C69.7296 88.6667 69.4039 88.5114 68.9645 88.4091L67.5099 88.0682C66.7107 87.8788 66.1236 87.5852 65.7486 87.1875C65.3774 86.786 65.1918 86.2841 65.1918 85.6818C65.1918 85.1894 65.33 84.7538 65.6065 84.375C65.8868 83.9962 66.2675 83.6989 66.7486 83.483C67.2334 83.267 67.7827 83.1591 68.3963 83.1591C69.2599 83.1591 69.938 83.3485 70.4304 83.7273C70.9266 84.1061 71.2789 84.6061 71.4872 85.2273ZM76.233 92.2045C75.6799 92.2045 75.178 92.1004 74.7273 91.892C74.2765 91.6799 73.9186 91.375 73.6534 90.9773C73.3883 90.5758 73.2557 90.0909 73.2557 89.5227C73.2557 89.0227 73.3542 88.6174 73.5511 88.3068C73.7481 87.9924 74.0114 87.7462 74.3409 87.5682C74.6705 87.3902 75.0341 87.2576 75.4318 87.1705C75.8333 87.0795 76.2367 87.0076 76.642 86.9545C77.1723 86.8864 77.6023 86.8352 77.9318 86.8011C78.2652 86.7633 78.5076 86.7008 78.6591 86.6136C78.8144 86.5265 78.892 86.375 78.892 86.1591V86.1136C78.892 85.553 78.7386 85.1174 78.4318 84.8068C78.1288 84.4962 77.6686 84.3409 77.0511 84.3409C76.411 84.3409 75.9091 84.4811 75.5455 84.7614C75.1818 85.0417 74.9261 85.3409 74.7784 85.6591L73.5057 85.2045C73.733 84.6742 74.036 84.2614 74.4148 83.9659C74.7973 83.6667 75.214 83.4583 75.6648 83.3409C76.1193 83.2197 76.5663 83.1591 77.0057 83.1591C77.286 83.1591 77.608 83.1932 77.9716 83.2614C78.339 83.3258 78.6932 83.4602 79.0341 83.6648C79.3788 83.8693 79.6648 84.178 79.892 84.5909C80.1193 85.0038 80.233 85.5568 80.233 86.25V92H78.892V90.8182H78.8239C78.733 91.0076 78.5814 91.2102 78.3693 91.4261C78.1572 91.642 77.875 91.8258 77.5227 91.9773C77.1705 92.1288 76.7405 92.2045 76.233 92.2045ZM76.4375 91C76.9678 91 77.4148 90.8958 77.7784 90.6875C78.1458 90.4792 78.4223 90.2102 78.608 89.8807C78.7973 89.5511 78.892 89.2045 78.892 88.8409V87.6136C78.8352 87.6818 78.7102 87.7443 78.517 87.8011C78.3277 87.8542 78.108 87.9015 77.858 87.9432C77.6117 87.9811 77.3712 88.0152 77.1364 88.0455C76.9053 88.072 76.7178 88.0947 76.5739 88.1136C76.2254 88.1591 75.8996 88.233 75.5966 88.3352C75.2973 88.4337 75.0549 88.5833 74.8693 88.7841C74.6875 88.9811 74.5966 89.25 74.5966 89.5909C74.5966 90.0568 74.7689 90.4091 75.1136 90.6477C75.4621 90.8826 75.9034 91 76.4375 91ZM90.8395 92.1818C89.9986 92.1818 89.2732 91.9962 88.6634 91.625C88.0573 91.25 87.5895 90.7273 87.2599 90.0568C86.9342 89.3826 86.7713 88.5985 86.7713 87.7045C86.7713 86.8106 86.9342 86.0227 87.2599 85.3409C87.5895 84.6553 88.0478 84.1212 88.6349 83.7386C89.2259 83.3523 89.9152 83.1591 90.7031 83.1591C91.1577 83.1591 91.6065 83.2348 92.0497 83.3864C92.4929 83.5379 92.8963 83.7841 93.2599 84.125C93.6236 84.4621 93.9134 84.9091 94.1293 85.4659C94.3452 86.0227 94.4531 86.7083 94.4531 87.5227V88.0909H87.7259V86.9318H93.0895C93.0895 86.4394 92.991 86 92.794 85.6136C92.6009 85.2273 92.3243 84.9223 91.9645 84.6989C91.6084 84.4754 91.188 84.3636 90.7031 84.3636C90.169 84.3636 89.7069 84.4962 89.3168 84.7614C88.9304 85.0227 88.633 85.3636 88.4247 85.7841C88.2164 86.2045 88.1122 86.6553 88.1122 87.1364V87.9091C88.1122 88.5682 88.2259 89.1269 88.4531 89.5852C88.6842 90.0398 89.0043 90.3864 89.4134 90.625C89.8224 90.8598 90.2978 90.9773 90.8395 90.9773C91.1918 90.9773 91.5099 90.928 91.794 90.8295C92.0819 90.7273 92.33 90.5758 92.5384 90.375C92.7467 90.1705 92.9077 89.9167 93.0213 89.6136L94.3168 89.9773C94.1804 90.4167 93.9512 90.803 93.6293 91.1364C93.3073 91.4659 92.9096 91.7235 92.4361 91.9091C91.9626 92.0909 91.4304 92.1818 90.8395 92.1818ZM97.8338 80.3636V92H96.4929V80.3636H97.8338ZM108.585 83.2727V84.4091H104.062V83.2727H108.585ZM105.381 81.1818H106.722V89.5C106.722 89.8788 106.777 90.1629 106.886 90.3523C107 90.5379 107.144 90.6629 107.318 90.7273C107.496 90.7879 107.684 90.8182 107.881 90.8182C108.028 90.8182 108.15 90.8106 108.244 90.7955C108.339 90.7765 108.415 90.7614 108.472 90.75L108.744 91.9545C108.653 91.9886 108.527 92.0227 108.364 92.0568C108.201 92.0947 107.994 92.1136 107.744 92.1136C107.366 92.1136 106.994 92.0322 106.631 91.8693C106.271 91.7064 105.972 91.4583 105.733 91.125C105.498 90.7917 105.381 90.3712 105.381 89.8636V81.1818ZM114.168 92.1818C113.327 92.1818 112.601 91.9962 111.991 91.625C111.385 91.25 110.918 90.7273 110.588 90.0568C110.262 89.3826 110.099 88.5985 110.099 87.7045C110.099 86.8106 110.262 86.0227 110.588 85.3409C110.918 84.6553 111.376 84.1212 111.963 83.7386C112.554 83.3523 113.243 83.1591 114.031 83.1591C114.486 83.1591 114.935 83.2348 115.378 83.3864C115.821 83.5379 116.224 83.7841 116.588 84.125C116.952 84.4621 117.241 84.9091 117.457 85.4659C117.673 86.0227 117.781 86.7083 117.781 87.5227V88.0909H111.054V86.9318H116.418C116.418 86.4394 116.319 86 116.122 85.6136C115.929 85.2273 115.652 84.9223 115.293 84.6989C114.937 84.4754 114.516 84.3636 114.031 84.3636C113.497 84.3636 113.035 84.4962 112.645 84.7614C112.259 85.0227 111.961 85.3636 111.753 85.7841C111.545 86.2045 111.44 86.6553 111.44 87.1364V87.9091C111.44 88.5682 111.554 89.1269 111.781 89.5852C112.012 90.0398 112.332 90.3864 112.741 90.625C113.151 90.8598 113.626 90.9773 114.168 90.9773C114.52 90.9773 114.838 90.928 115.122 90.8295C115.41 90.7273 115.658 90.5758 115.866 90.375C116.075 90.1705 116.236 89.9167 116.349 89.6136L117.645 89.9773C117.509 90.4167 117.279 90.803 116.957 91.1364C116.635 91.4659 116.238 91.7235 115.764 91.9091C115.291 92.0909 114.759 92.1818 114.168 92.1818ZM120.587 83.2727L122.678 86.8409L124.768 83.2727H126.314L123.496 87.6364L126.314 92H124.768L122.678 88.6136L120.587 92H119.041L121.814 87.6364L119.041 83.2727H120.587ZM132.023 83.2727V84.4091H127.5V83.2727H132.023ZM128.818 81.1818H130.159V89.5C130.159 89.8788 130.214 90.1629 130.324 90.3523C130.438 90.5379 130.581 90.6629 130.756 90.7273C130.934 90.7879 131.121 90.8182 131.318 90.8182C131.466 90.8182 131.587 90.8106 131.682 90.7955C131.777 90.7765 131.852 90.7614 131.909 90.75L132.182 91.9545C132.091 91.9886 131.964 92.0227 131.801 92.0568C131.638 92.0947 131.432 92.1136 131.182 92.1136C130.803 92.1136 130.432 92.0322 130.068 91.8693C129.708 91.7064 129.409 91.4583 129.17 91.125C128.936 90.7917 128.818 90.3712 128.818 89.8636V81.1818ZM137.491 92.1818C136.704 92.1818 136.012 91.9943 135.418 91.6193C134.827 91.2443 134.365 90.7197 134.031 90.0455C133.702 89.3712 133.537 88.5833 133.537 87.6818C133.537 86.7727 133.702 85.9792 134.031 85.3011C134.365 84.6231 134.827 84.0966 135.418 83.7216C136.012 83.3466 136.704 83.1591 137.491 83.1591C138.279 83.1591 138.969 83.3466 139.56 83.7216C140.154 84.0966 140.616 84.6231 140.946 85.3011C141.279 85.9792 141.446 86.7727 141.446 87.6818C141.446 88.5833 141.279 89.3712 140.946 90.0455C140.616 90.7197 140.154 91.2443 139.56 91.6193C138.969 91.9943 138.279 92.1818 137.491 92.1818ZM137.491 90.9773C138.09 90.9773 138.582 90.8239 138.969 90.517C139.355 90.2102 139.641 89.8068 139.827 89.3068C140.012 88.8068 140.105 88.2652 140.105 87.6818C140.105 87.0985 140.012 86.5549 139.827 86.0511C139.641 85.5473 139.355 85.1402 138.969 84.8295C138.582 84.5189 138.09 84.3636 137.491 84.3636C136.893 84.3636 136.401 84.5189 136.014 84.8295C135.628 85.1402 135.342 85.5473 135.156 86.0511C134.971 86.5549 134.878 87.0985 134.878 87.6818C134.878 88.2652 134.971 88.8068 135.156 89.3068C135.342 89.8068 135.628 90.2102 136.014 90.517C136.401 90.8239 136.893 90.9773 137.491 90.9773ZM148.857 95.2727C148.629 95.2727 148.427 95.2538 148.249 95.2159C148.071 95.1818 147.947 95.1477 147.879 95.1136L148.22 93.9318C148.546 94.0152 148.834 94.0455 149.084 94.0227C149.334 94 149.555 93.8883 149.749 93.6875C149.946 93.4905 150.125 93.1705 150.288 92.7273L150.538 92.0455L147.311 83.2727H148.766L151.175 90.2273H151.266L153.675 83.2727H155.129L151.425 93.2727C151.258 93.7235 151.052 94.0966 150.805 94.392C150.559 94.6913 150.273 94.9129 149.947 95.0568C149.625 95.2008 149.262 95.2727 148.857 95.2727ZM161.399 95.2727V83.2727H162.695V84.6591H162.854C162.952 84.5076 163.089 84.3144 163.263 84.0795C163.441 83.8409 163.695 83.6288 164.024 83.4432C164.357 83.2538 164.808 83.1591 165.376 83.1591C166.111 83.1591 166.759 83.3428 167.32 83.7102C167.88 84.0777 168.318 84.5985 168.632 85.2727C168.946 85.947 169.104 86.7424 169.104 87.6591C169.104 88.5833 168.946 89.3845 168.632 90.0625C168.318 90.7367 167.882 91.2595 167.325 91.6307C166.768 91.9981 166.126 92.1818 165.399 92.1818C164.839 92.1818 164.39 92.089 164.053 91.9034C163.715 91.714 163.456 91.5 163.274 91.2614C163.092 91.0189 162.952 90.8182 162.854 90.6591H162.74V95.2727H161.399ZM162.717 87.6364C162.717 88.2955 162.814 88.8769 163.007 89.3807C163.2 89.8807 163.482 90.2727 163.854 90.5568C164.225 90.8371 164.679 90.9773 165.217 90.9773C165.778 90.9773 166.246 90.8295 166.621 90.5341C167 90.2348 167.284 89.8333 167.473 89.3295C167.666 88.822 167.763 88.2576 167.763 87.6364C167.763 87.0227 167.668 86.4697 167.479 85.9773C167.293 85.4811 167.011 85.089 166.632 84.8011C166.257 84.5095 165.786 84.3636 165.217 84.3636C164.672 84.3636 164.214 84.5019 163.842 84.7784C163.471 85.0511 163.191 85.4337 163.001 85.9261C162.812 86.4148 162.717 86.9848 162.717 87.6364ZM171.149 92V83.2727H172.445V84.5909H172.536C172.695 84.1591 172.982 83.8087 173.399 83.5398C173.816 83.2708 174.286 83.1364 174.808 83.1364C174.907 83.1364 175.03 83.1383 175.178 83.142C175.325 83.1458 175.437 83.1515 175.513 83.1591V84.5227C175.467 84.5114 175.363 84.4943 175.2 84.4716C175.041 84.4451 174.873 84.4318 174.695 84.4318C174.27 84.4318 173.892 84.5208 173.558 84.6989C173.229 84.8731 172.967 85.1155 172.774 85.4261C172.585 85.733 172.49 86.0833 172.49 86.4773V92H171.149ZM180.496 92.1818C179.655 92.1818 178.929 91.9962 178.32 91.625C177.714 91.25 177.246 90.7273 176.916 90.0568C176.59 89.3826 176.428 88.5985 176.428 87.7045C176.428 86.8106 176.59 86.0227 176.916 85.3409C177.246 84.6553 177.704 84.1212 178.291 83.7386C178.882 83.3523 179.571 83.1591 180.359 83.1591C180.814 83.1591 181.263 83.2348 181.706 83.3864C182.149 83.5379 182.553 83.7841 182.916 84.125C183.28 84.4621 183.57 84.9091 183.786 85.4659C184.001 86.0227 184.109 86.7083 184.109 87.5227V88.0909H177.382V86.9318H182.746C182.746 86.4394 182.647 86 182.45 85.6136C182.257 85.2273 181.981 84.9223 181.621 84.6989C181.265 84.4754 180.844 84.3636 180.359 84.3636C179.825 84.3636 179.363 84.4962 178.973 84.7614C178.587 85.0227 178.289 85.3636 178.081 85.7841C177.873 86.2045 177.768 86.6553 177.768 87.1364V87.9091C177.768 88.5682 177.882 89.1269 178.109 89.5852C178.34 90.0398 178.661 90.3864 179.07 90.625C179.479 90.8598 179.954 90.9773 180.496 90.9773C180.848 90.9773 181.166 90.928 181.45 90.8295C181.738 90.7273 181.986 90.5758 182.195 90.375C182.403 90.1705 182.564 89.9167 182.678 89.6136L183.973 89.9773C183.837 90.4167 183.607 90.803 183.286 91.1364C182.964 91.4659 182.566 91.7235 182.092 91.9091C181.619 92.0909 181.087 92.1818 180.496 92.1818ZM192.331 85.2273L191.126 85.5682C191.051 85.3674 190.939 85.1723 190.791 84.983C190.647 84.7898 190.45 84.6307 190.2 84.5057C189.95 84.3807 189.63 84.3182 189.24 84.3182C188.706 84.3182 188.261 84.4413 187.905 84.6875C187.553 84.9299 187.376 85.2386 187.376 85.6136C187.376 85.947 187.498 86.2102 187.74 86.4034C187.982 86.5966 188.361 86.7576 188.876 86.8864L190.172 87.2045C190.952 87.3939 191.534 87.6837 191.916 88.0739C192.299 88.4602 192.49 88.9583 192.49 89.5682C192.49 90.0682 192.346 90.5152 192.058 90.9091C191.774 91.303 191.376 91.6136 190.865 91.8409C190.354 92.0682 189.759 92.1818 189.081 92.1818C188.191 92.1818 187.454 91.9886 186.871 91.6023C186.287 91.2159 185.918 90.6515 185.763 89.9091L187.036 89.5909C187.157 90.0606 187.386 90.4129 187.723 90.6477C188.064 90.8826 188.509 91 189.058 91C189.683 91 190.179 90.8674 190.547 90.6023C190.918 90.3333 191.104 90.0114 191.104 89.6364C191.104 89.3333 190.998 89.0795 190.786 88.875C190.573 88.6667 190.248 88.5114 189.808 88.4091L188.354 88.0682C187.554 87.8788 186.967 87.5852 186.592 87.1875C186.221 86.786 186.036 86.2841 186.036 85.6818C186.036 85.1894 186.174 84.7538 186.45 84.375C186.731 83.9962 187.111 83.6989 187.592 83.483C188.077 83.267 188.626 83.1591 189.24 83.1591C190.104 83.1591 190.782 83.3485 191.274 83.7273C191.77 84.1061 192.123 84.6061 192.331 85.2273ZM194.509 92V83.2727H195.849V92H194.509ZM195.19 81.8182C194.929 81.8182 194.704 81.7292 194.514 81.5511C194.329 81.3731 194.236 81.1591 194.236 80.9091C194.236 80.6591 194.329 80.4451 194.514 80.267C194.704 80.089 194.929 80 195.19 80C195.452 80 195.675 80.089 195.861 80.267C196.05 80.4451 196.145 80.6591 196.145 80.9091C196.145 81.1591 196.05 81.3731 195.861 81.5511C195.675 81.7292 195.452 81.8182 195.19 81.8182ZM201.851 92.1818C201.063 92.1818 200.372 91.9943 199.777 91.6193C199.186 91.2443 198.724 90.7197 198.391 90.0455C198.061 89.3712 197.896 88.5833 197.896 87.6818C197.896 86.7727 198.061 85.9792 198.391 85.3011C198.724 84.6231 199.186 84.0966 199.777 83.7216C200.372 83.3466 201.063 83.1591 201.851 83.1591C202.639 83.1591 203.328 83.3466 203.919 83.7216C204.514 84.0966 204.976 84.6231 205.305 85.3011C205.639 85.9792 205.805 86.7727 205.805 87.6818C205.805 88.5833 205.639 89.3712 205.305 90.0455C204.976 90.7197 204.514 91.2443 203.919 91.6193C203.328 91.9943 202.639 92.1818 201.851 92.1818ZM201.851 90.9773C202.449 90.9773 202.942 90.8239 203.328 90.517C203.714 90.2102 204 89.8068 204.186 89.3068C204.372 88.8068 204.464 88.2652 204.464 87.6818C204.464 87.0985 204.372 86.5549 204.186 86.0511C204 85.5473 203.714 85.1402 203.328 84.8295C202.942 84.5189 202.449 84.3636 201.851 84.3636C201.252 84.3636 200.76 84.5189 200.374 84.8295C199.987 85.1402 199.701 85.5473 199.516 86.0511C199.33 86.5549 199.237 87.0985 199.237 87.6818C199.237 88.2652 199.33 88.8068 199.516 89.3068C199.701 89.8068 199.987 90.2102 200.374 90.517C200.76 90.8239 201.252 90.9773 201.851 90.9773ZM209.193 86.75V92H207.852V83.2727H209.148V84.6364H209.261C209.466 84.1932 209.777 83.8371 210.193 83.5682C210.61 83.2955 211.148 83.1591 211.807 83.1591C212.398 83.1591 212.915 83.2803 213.358 83.5227C213.801 83.7614 214.146 84.125 214.392 84.6136C214.638 85.0985 214.761 85.7121 214.761 86.4545V92H213.42V86.5455C213.42 85.8598 213.242 85.3258 212.886 84.9432C212.53 84.5568 212.042 84.3636 211.42 84.3636C210.992 84.3636 210.61 84.4564 210.273 84.642C209.939 84.8277 209.676 85.0985 209.483 85.4545C209.29 85.8106 209.193 86.2424 209.193 86.75ZM220.871 92.1818C220.03 92.1818 219.304 91.9962 218.695 91.625C218.089 91.25 217.621 90.7273 217.291 90.0568C216.965 89.3826 216.803 88.5985 216.803 87.7045C216.803 86.8106 216.965 86.0227 217.291 85.3409C217.621 84.6553 218.079 84.1212 218.666 83.7386C219.257 83.3523 219.946 83.1591 220.734 83.1591C221.189 83.1591 221.638 83.2348 222.081 83.3864C222.524 83.5379 222.928 83.7841 223.291 84.125C223.655 84.4621 223.945 84.9091 224.161 85.4659C224.376 86.0227 224.484 86.7083 224.484 87.5227V88.0909H217.757V86.9318H223.121C223.121 86.4394 223.022 86 222.825 85.6136C222.632 85.2273 222.356 84.9223 221.996 84.6989C221.64 84.4754 221.219 84.3636 220.734 84.3636C220.2 84.3636 219.738 84.4962 219.348 84.7614C218.962 85.0227 218.664 85.3636 218.456 85.7841C218.248 86.2045 218.143 86.6553 218.143 87.1364V87.9091C218.143 88.5682 218.257 89.1269 218.484 89.5852C218.715 90.0398 219.036 90.3864 219.445 90.625C219.854 90.8598 220.329 90.9773 220.871 90.9773C221.223 90.9773 221.541 90.928 221.825 90.8295C222.113 90.7273 222.361 90.5758 222.57 90.375C222.778 90.1705 222.939 89.9167 223.053 89.6136L224.348 89.9773C224.212 90.4167 223.982 90.803 223.661 91.1364C223.339 91.4659 222.941 91.7235 222.467 91.9091C221.994 92.0909 221.462 92.1818 220.871 92.1818ZM234.683 92.1818C233.842 92.1818 233.117 91.9962 232.507 91.625C231.901 91.25 231.433 90.7273 231.104 90.0568C230.778 89.3826 230.615 88.5985 230.615 87.7045C230.615 86.8106 230.778 86.0227 231.104 85.3409C231.433 84.6553 231.892 84.1212 232.479 83.7386C233.07 83.3523 233.759 83.1591 234.547 83.1591C235.001 83.1591 235.45 83.2348 235.893 83.3864C236.337 83.5379 236.74 83.7841 237.104 84.125C237.467 84.4621 237.757 84.9091 237.973 85.4659C238.189 86.0227 238.297 86.7083 238.297 87.5227V88.0909H231.57V86.9318H236.933C236.933 86.4394 236.835 86 236.638 85.6136C236.445 85.2273 236.168 84.9223 235.808 84.6989C235.452 84.4754 235.032 84.3636 234.547 84.3636C234.013 84.3636 233.551 84.4962 233.161 84.7614C232.774 85.0227 232.477 85.3636 232.268 85.7841C232.06 86.2045 231.956 86.6553 231.956 87.1364V87.9091C231.956 88.5682 232.07 89.1269 232.297 89.5852C232.528 90.0398 232.848 90.3864 233.257 90.625C233.666 90.8598 234.142 90.9773 234.683 90.9773C235.036 90.9773 235.354 90.928 235.638 90.8295C235.926 90.7273 236.174 90.5758 236.382 90.375C236.59 90.1705 236.751 89.9167 236.865 89.6136L238.161 89.9773C238.024 90.4167 237.795 90.803 237.473 91.1364C237.151 91.4659 236.753 91.7235 236.28 91.9091C235.806 92.0909 235.274 92.1818 234.683 92.1818ZM241.678 80.3636V92H240.337V80.3636H241.678ZM248.815 92V80.3636H250.156V84.6591H250.27C250.368 84.5076 250.505 84.3144 250.679 84.0795C250.857 83.8409 251.111 83.6288 251.44 83.4432C251.774 83.2538 252.224 83.1591 252.793 83.1591C253.527 83.1591 254.175 83.3428 254.736 83.7102C255.296 84.0777 255.734 84.5985 256.048 85.2727C256.363 85.947 256.52 86.7424 256.52 87.6591C256.52 88.5833 256.363 89.3845 256.048 90.0625C255.734 90.7367 255.298 91.2595 254.741 91.6307C254.185 91.9981 253.543 92.1818 252.815 92.1818C252.255 92.1818 251.806 92.089 251.469 91.9034C251.132 91.714 250.872 91.5 250.69 91.2614C250.509 91.0189 250.368 90.8182 250.27 90.6591H250.111V92H248.815ZM250.134 87.6364C250.134 88.2955 250.23 88.8769 250.423 89.3807C250.616 89.8807 250.899 90.2727 251.27 90.5568C251.641 90.8371 252.096 90.9773 252.634 90.9773C253.194 90.9773 253.662 90.8295 254.037 90.5341C254.416 90.2348 254.7 89.8333 254.889 89.3295C255.082 88.822 255.179 88.2576 255.179 87.6364C255.179 87.0227 255.084 86.4697 254.895 85.9773C254.709 85.4811 254.427 85.089 254.048 84.8011C253.673 84.5095 253.202 84.3636 252.634 84.3636C252.088 84.3636 251.63 84.5019 251.259 84.7784C250.887 85.0511 250.607 85.4337 250.418 85.9261C250.228 86.4148 250.134 86.9848 250.134 87.6364ZM262.116 92.1818C261.329 92.1818 260.637 91.9943 260.043 91.6193C259.452 91.2443 258.99 90.7197 258.656 90.0455C258.327 89.3712 258.162 88.5833 258.162 87.6818C258.162 86.7727 258.327 85.9792 258.656 85.3011C258.99 84.6231 259.452 84.0966 260.043 83.7216C260.637 83.3466 261.329 83.1591 262.116 83.1591C262.904 83.1591 263.594 83.3466 264.185 83.7216C264.779 84.0966 265.241 84.6231 265.571 85.3011C265.904 85.9792 266.071 86.7727 266.071 87.6818C266.071 88.5833 265.904 89.3712 265.571 90.0455C265.241 90.7197 264.779 91.2443 264.185 91.6193C263.594 91.9943 262.904 92.1818 262.116 92.1818ZM262.116 90.9773C262.715 90.9773 263.207 90.8239 263.594 90.517C263.98 90.2102 264.266 89.8068 264.452 89.3068C264.637 88.8068 264.73 88.2652 264.73 87.6818C264.73 87.0985 264.637 86.5549 264.452 86.0511C264.266 85.5473 263.98 85.1402 263.594 84.8295C263.207 84.5189 262.715 84.3636 262.116 84.3636C261.518 84.3636 261.026 84.5189 260.639 84.8295C260.253 85.1402 259.967 85.5473 259.781 86.0511C259.596 86.5549 259.503 87.0985 259.503 87.6818C259.503 88.2652 259.596 88.8068 259.781 89.3068C259.967 89.8068 260.253 90.2102 260.639 90.517C261.026 90.8239 261.518 90.9773 262.116 90.9773ZM271.913 83.2727V84.4091H267.391V83.2727H271.913ZM268.709 81.1818H270.05V89.5C270.05 89.8788 270.105 90.1629 270.214 90.3523C270.328 90.5379 270.472 90.6629 270.646 90.7273C270.824 90.7879 271.012 90.8182 271.209 90.8182C271.357 90.8182 271.478 90.8106 271.572 90.7955C271.667 90.7765 271.743 90.7614 271.8 90.75L272.072 91.9545C271.982 91.9886 271.855 92.0227 271.692 92.0568C271.529 92.0947 271.322 92.1136 271.072 92.1136C270.694 92.1136 270.322 92.0322 269.959 91.8693C269.599 91.7064 269.3 91.4583 269.061 91.125C268.826 90.7917 268.709 90.3712 268.709 89.8636V81.1818ZM277.382 92.1818C276.594 92.1818 275.903 91.9943 275.308 91.6193C274.717 91.2443 274.255 90.7197 273.922 90.0455C273.592 89.3712 273.428 88.5833 273.428 87.6818C273.428 86.7727 273.592 85.9792 273.922 85.3011C274.255 84.6231 274.717 84.0966 275.308 83.7216C275.903 83.3466 276.594 83.1591 277.382 83.1591C278.17 83.1591 278.859 83.3466 279.45 83.7216C280.045 84.0966 280.507 84.6231 280.837 85.3011C281.17 85.9792 281.337 86.7727 281.337 87.6818C281.337 88.5833 281.17 89.3712 280.837 90.0455C280.507 90.7197 280.045 91.2443 279.45 91.6193C278.859 91.9943 278.17 92.1818 277.382 92.1818ZM277.382 90.9773C277.981 90.9773 278.473 90.8239 278.859 90.517C279.246 90.2102 279.532 89.8068 279.717 89.3068C279.903 88.8068 279.996 88.2652 279.996 87.6818C279.996 87.0985 279.903 86.5549 279.717 86.0511C279.532 85.5473 279.246 85.1402 278.859 84.8295C278.473 84.5189 277.981 84.3636 277.382 84.3636C276.784 84.3636 276.291 84.5189 275.905 84.8295C275.518 85.1402 275.232 85.5473 275.047 86.0511C274.861 86.5549 274.768 87.0985 274.768 87.6818C274.768 88.2652 274.861 88.8068 275.047 89.3068C275.232 89.8068 275.518 90.2102 275.905 90.517C276.291 90.8239 276.784 90.9773 277.382 90.9773ZM276.768 82.0909L278.155 79.4545H279.723L277.95 82.0909H276.768ZM284.724 86.75V92H283.384V83.2727H284.679V84.6364H284.793C284.997 84.1932 285.308 83.8371 285.724 83.5682C286.141 83.2955 286.679 83.1591 287.338 83.1591C287.929 83.1591 288.446 83.2803 288.889 83.5227C289.332 83.7614 289.677 84.125 289.923 84.6136C290.17 85.0985 290.293 85.7121 290.293 86.4545V92H288.952V86.5455C288.952 85.8598 288.774 85.3258 288.418 84.9432C288.062 84.5568 287.573 84.3636 286.952 84.3636C286.524 84.3636 286.141 84.4564 285.804 84.642C285.471 84.8277 285.207 85.0985 285.014 85.4545C284.821 85.8106 284.724 86.2424 284.724 86.75ZM300.538 92.1818C299.811 92.1818 299.169 91.9981 298.612 91.6307C298.055 91.2595 297.62 90.7367 297.305 90.0625C296.991 89.3845 296.834 88.5833 296.834 87.6591C296.834 86.7424 296.991 85.947 297.305 85.2727C297.62 84.5985 298.057 84.0777 298.618 83.7102C299.179 83.3428 299.826 83.1591 300.561 83.1591C301.129 83.1591 301.578 83.2538 301.908 83.4432C302.241 83.6288 302.495 83.8409 302.669 84.0795C302.847 84.3144 302.985 84.5076 303.084 84.6591H303.197V80.3636H304.538V92H303.243V90.6591H303.084C302.985 90.8182 302.845 91.0189 302.663 91.2614C302.482 91.5 302.222 91.714 301.885 91.9034C301.548 92.089 301.099 92.1818 300.538 92.1818ZM300.72 90.9773C301.258 90.9773 301.713 90.8371 302.084 90.5568C302.455 90.2727 302.737 89.8807 302.93 89.3807C303.124 88.8769 303.22 88.2955 303.22 87.6364C303.22 86.9848 303.125 86.4148 302.936 85.9261C302.747 85.4337 302.466 85.0511 302.095 84.7784C301.724 84.5019 301.266 84.3636 300.72 84.3636C300.152 84.3636 299.679 84.5095 299.3 84.8011C298.925 85.089 298.643 85.4811 298.453 85.9773C298.268 86.4697 298.175 87.0227 298.175 87.6364C298.175 88.2576 298.269 88.822 298.459 89.3295C298.652 89.8333 298.936 90.2348 299.311 90.5341C299.69 90.8295 300.16 90.9773 300.72 90.9773ZM310.839 92.1818C309.999 92.1818 309.273 91.9962 308.663 91.625C308.057 91.25 307.589 90.7273 307.26 90.0568C306.934 89.3826 306.771 88.5985 306.771 87.7045C306.771 86.8106 306.934 86.0227 307.26 85.3409C307.589 84.6553 308.048 84.1212 308.635 83.7386C309.226 83.3523 309.915 83.1591 310.703 83.1591C311.158 83.1591 311.607 83.2348 312.05 83.3864C312.493 83.5379 312.896 83.7841 313.26 84.125C313.624 84.4621 313.913 84.9091 314.129 85.4659C314.345 86.0227 314.453 86.7083 314.453 87.5227V88.0909H307.726V86.9318H313.089C313.089 86.4394 312.991 86 312.794 85.6136C312.601 85.2273 312.324 84.9223 311.964 84.6989C311.608 84.4754 311.188 84.3636 310.703 84.3636C310.169 84.3636 309.707 84.4962 309.317 84.7614C308.93 85.0227 308.633 85.3636 308.425 85.7841C308.216 86.2045 308.112 86.6553 308.112 87.1364V87.9091C308.112 88.5682 308.226 89.1269 308.453 89.5852C308.684 90.0398 309.004 90.3864 309.413 90.625C309.822 90.8598 310.298 90.9773 310.839 90.9773C311.192 90.9773 311.51 90.928 311.794 90.8295C312.082 90.7273 312.33 90.5758 312.538 90.375C312.747 90.1705 312.908 89.9167 313.021 89.6136L314.317 89.9773C314.18 90.4167 313.951 90.803 313.629 91.1364C313.307 91.4659 312.91 91.7235 312.436 91.9091C311.963 92.0909 311.43 92.1818 310.839 92.1818ZM82.7145 116.182C81.8736 116.182 81.1482 115.996 80.5384 115.625C79.9323 115.25 79.4645 114.727 79.1349 114.057C78.8092 113.383 78.6463 112.598 78.6463 111.705C78.6463 110.811 78.8092 110.023 79.1349 109.341C79.4645 108.655 79.9228 108.121 80.5099 107.739C81.1009 107.352 81.7902 107.159 82.5781 107.159C83.0327 107.159 83.4815 107.235 83.9247 107.386C84.3679 107.538 84.7713 107.784 85.1349 108.125C85.4986 108.462 85.7884 108.909 86.0043 109.466C86.2202 110.023 86.3281 110.708 86.3281 111.523V112.091H79.6009V110.932H84.9645C84.9645 110.439 84.866 110 84.669 109.614C84.4759 109.227 84.1993 108.922 83.8395 108.699C83.4834 108.475 83.063 108.364 82.5781 108.364C82.044 108.364 81.5819 108.496 81.1918 108.761C80.8054 109.023 80.508 109.364 80.2997 109.784C80.0914 110.205 79.9872 110.655 79.9872 111.136V111.909C79.9872 112.568 80.1009 113.127 80.3281 113.585C80.5592 114.04 80.8793 114.386 81.2884 114.625C81.6974 114.86 82.1728 114.977 82.7145 114.977C83.0668 114.977 83.3849 114.928 83.669 114.83C83.9569 114.727 84.205 114.576 84.4134 114.375C84.6217 114.17 84.7827 113.917 84.8963 113.614L86.1918 113.977C86.0554 114.417 85.8262 114.803 85.5043 115.136C85.1823 115.466 84.7846 115.723 84.3111 115.909C83.8376 116.091 83.3054 116.182 82.7145 116.182ZM89.7088 110.75V116H88.3679V107.273H89.6634V108.636H89.777C89.9815 108.193 90.2921 107.837 90.7088 107.568C91.1255 107.295 91.6634 107.159 92.3224 107.159C92.9134 107.159 93.4304 107.28 93.8736 107.523C94.3168 107.761 94.6615 108.125 94.9077 108.614C95.1539 109.098 95.277 109.712 95.277 110.455V116H93.9361V110.545C93.9361 109.86 93.758 109.326 93.402 108.943C93.0459 108.557 92.5573 108.364 91.9361 108.364C91.508 108.364 91.1255 108.456 90.7884 108.642C90.455 108.828 90.1918 109.098 89.9986 109.455C89.8054 109.811 89.7088 110.242 89.7088 110.75ZM101.273 116.182C100.455 116.182 99.75 115.989 99.1591 115.602C98.5682 115.216 98.1136 114.684 97.7955 114.006C97.4773 113.328 97.3182 112.553 97.3182 111.682C97.3182 110.795 97.4811 110.013 97.8068 109.335C98.1364 108.653 98.5947 108.121 99.1818 107.739C99.7727 107.352 100.462 107.159 101.25 107.159C101.864 107.159 102.417 107.273 102.909 107.5C103.402 107.727 103.805 108.045 104.119 108.455C104.434 108.864 104.629 109.341 104.705 109.886H103.364C103.261 109.489 103.034 109.136 102.682 108.83C102.333 108.519 101.864 108.364 101.273 108.364C100.75 108.364 100.292 108.5 99.8977 108.773C99.5076 109.042 99.2027 109.422 98.983 109.915C98.767 110.403 98.6591 110.977 98.6591 111.636C98.6591 112.311 98.7652 112.898 98.9773 113.398C99.1932 113.898 99.4962 114.286 99.8864 114.562C100.28 114.839 100.742 114.977 101.273 114.977C101.621 114.977 101.938 114.917 102.222 114.795C102.506 114.674 102.746 114.5 102.943 114.273C103.14 114.045 103.28 113.773 103.364 113.455H104.705C104.629 113.97 104.441 114.434 104.142 114.847C103.847 115.256 103.455 115.581 102.966 115.824C102.481 116.062 101.917 116.182 101.273 116.182ZM106.665 116V107.273H107.96V108.591H108.051C108.21 108.159 108.498 107.809 108.915 107.54C109.331 107.271 109.801 107.136 110.324 107.136C110.422 107.136 110.545 107.138 110.693 107.142C110.841 107.146 110.953 107.152 111.028 107.159V108.523C110.983 108.511 110.879 108.494 110.716 108.472C110.557 108.445 110.388 108.432 110.21 108.432C109.786 108.432 109.407 108.521 109.074 108.699C108.744 108.873 108.483 109.116 108.29 109.426C108.1 109.733 108.006 110.083 108.006 110.477V116H106.665ZM112.618 116V107.273H113.959V116H112.618ZM113.3 105.818C113.038 105.818 112.813 105.729 112.624 105.551C112.438 105.373 112.345 105.159 112.345 104.909C112.345 104.659 112.438 104.445 112.624 104.267C112.813 104.089 113.038 104 113.3 104C113.561 104 113.785 104.089 113.97 104.267C114.16 104.445 114.254 104.659 114.254 104.909C114.254 105.159 114.16 105.373 113.97 105.551C113.785 105.729 113.561 105.818 113.3 105.818ZM116.415 119.273V107.273H117.71V108.659H117.869C117.968 108.508 118.104 108.314 118.278 108.08C118.456 107.841 118.71 107.629 119.04 107.443C119.373 107.254 119.824 107.159 120.392 107.159C121.127 107.159 121.775 107.343 122.335 107.71C122.896 108.078 123.333 108.598 123.648 109.273C123.962 109.947 124.119 110.742 124.119 111.659C124.119 112.583 123.962 113.384 123.648 114.062C123.333 114.737 122.898 115.259 122.341 115.631C121.784 115.998 121.142 116.182 120.415 116.182C119.854 116.182 119.405 116.089 119.068 115.903C118.731 115.714 118.472 115.5 118.29 115.261C118.108 115.019 117.968 114.818 117.869 114.659H117.756V119.273H116.415ZM117.733 111.636C117.733 112.295 117.83 112.877 118.023 113.381C118.216 113.881 118.498 114.273 118.869 114.557C119.241 114.837 119.695 114.977 120.233 114.977C120.794 114.977 121.261 114.83 121.636 114.534C122.015 114.235 122.299 113.833 122.489 113.33C122.682 112.822 122.778 112.258 122.778 111.636C122.778 111.023 122.684 110.47 122.494 109.977C122.309 109.481 122.027 109.089 121.648 108.801C121.273 108.509 120.801 108.364 120.233 108.364C119.688 108.364 119.229 108.502 118.858 108.778C118.487 109.051 118.206 109.434 118.017 109.926C117.828 110.415 117.733 110.985 117.733 111.636ZM129.96 107.273V108.409H125.438V107.273H129.96ZM126.756 105.182H128.097V113.5C128.097 113.879 128.152 114.163 128.261 114.352C128.375 114.538 128.519 114.663 128.693 114.727C128.871 114.788 129.059 114.818 129.256 114.818C129.403 114.818 129.525 114.811 129.619 114.795C129.714 114.777 129.79 114.761 129.847 114.75L130.119 115.955C130.028 115.989 129.902 116.023 129.739 116.057C129.576 116.095 129.369 116.114 129.119 116.114C128.741 116.114 128.369 116.032 128.006 115.869C127.646 115.706 127.347 115.458 127.108 115.125C126.873 114.792 126.756 114.371 126.756 113.864V105.182ZM134.545 116.205C133.992 116.205 133.491 116.1 133.04 115.892C132.589 115.68 132.231 115.375 131.966 114.977C131.701 114.576 131.568 114.091 131.568 113.523C131.568 113.023 131.667 112.617 131.864 112.307C132.061 111.992 132.324 111.746 132.653 111.568C132.983 111.39 133.347 111.258 133.744 111.17C134.146 111.08 134.549 111.008 134.955 110.955C135.485 110.886 135.915 110.835 136.244 110.801C136.578 110.763 136.82 110.701 136.972 110.614C137.127 110.527 137.205 110.375 137.205 110.159V110.114C137.205 109.553 137.051 109.117 136.744 108.807C136.441 108.496 135.981 108.341 135.364 108.341C134.723 108.341 134.222 108.481 133.858 108.761C133.494 109.042 133.239 109.341 133.091 109.659L131.818 109.205C132.045 108.674 132.348 108.261 132.727 107.966C133.11 107.667 133.527 107.458 133.977 107.341C134.432 107.22 134.879 107.159 135.318 107.159C135.598 107.159 135.92 107.193 136.284 107.261C136.652 107.326 137.006 107.46 137.347 107.665C137.691 107.869 137.977 108.178 138.205 108.591C138.432 109.004 138.545 109.557 138.545 110.25V116H137.205V114.818H137.136C137.045 115.008 136.894 115.21 136.682 115.426C136.47 115.642 136.188 115.826 135.835 115.977C135.483 116.129 135.053 116.205 134.545 116.205ZM134.75 115C135.28 115 135.727 114.896 136.091 114.688C136.458 114.479 136.735 114.21 136.92 113.881C137.11 113.551 137.205 113.205 137.205 112.841V111.614C137.148 111.682 137.023 111.744 136.83 111.801C136.64 111.854 136.42 111.902 136.17 111.943C135.924 111.981 135.684 112.015 135.449 112.045C135.218 112.072 135.03 112.095 134.886 112.114C134.538 112.159 134.212 112.233 133.909 112.335C133.61 112.434 133.367 112.583 133.182 112.784C133 112.981 132.909 113.25 132.909 113.591C132.909 114.057 133.081 114.409 133.426 114.648C133.775 114.883 134.216 115 134.75 115ZM140.993 116V107.273H142.288V108.591H142.379C142.538 108.159 142.826 107.809 143.243 107.54C143.66 107.271 144.129 107.136 144.652 107.136C144.75 107.136 144.874 107.138 145.021 107.142C145.169 107.146 145.281 107.152 145.357 107.159V108.523C145.311 108.511 145.207 108.494 145.044 108.472C144.885 108.445 144.716 108.432 144.538 108.432C144.114 108.432 143.735 108.521 143.402 108.699C143.072 108.873 142.811 109.116 142.618 109.426C142.429 109.733 142.334 110.083 142.334 110.477V116H140.993ZM154.991 116.182C154.204 116.182 153.512 115.994 152.918 115.619C152.327 115.244 151.865 114.72 151.531 114.045C151.202 113.371 151.037 112.583 151.037 111.682C151.037 110.773 151.202 109.979 151.531 109.301C151.865 108.623 152.327 108.097 152.918 107.722C153.512 107.347 154.204 107.159 154.991 107.159C155.779 107.159 156.469 107.347 157.06 107.722C157.654 108.097 158.116 108.623 158.446 109.301C158.779 109.979 158.946 110.773 158.946 111.682C158.946 112.583 158.779 113.371 158.446 114.045C158.116 114.72 157.654 115.244 157.06 115.619C156.469 115.994 155.779 116.182 154.991 116.182ZM154.991 114.977C155.59 114.977 156.082 114.824 156.469 114.517C156.855 114.21 157.141 113.807 157.327 113.307C157.512 112.807 157.605 112.265 157.605 111.682C157.605 111.098 157.512 110.555 157.327 110.051C157.141 109.547 156.855 109.14 156.469 108.83C156.082 108.519 155.59 108.364 154.991 108.364C154.393 108.364 153.901 108.519 153.514 108.83C153.128 109.14 152.842 109.547 152.656 110.051C152.471 110.555 152.378 111.098 152.378 111.682C152.378 112.265 152.471 112.807 152.656 113.307C152.842 113.807 153.128 114.21 153.514 114.517C153.901 114.824 154.393 114.977 154.991 114.977ZM168.788 116.182C168.061 116.182 167.419 115.998 166.862 115.631C166.305 115.259 165.87 114.737 165.555 114.062C165.241 113.384 165.084 112.583 165.084 111.659C165.084 110.742 165.241 109.947 165.555 109.273C165.87 108.598 166.307 108.078 166.868 107.71C167.429 107.343 168.076 107.159 168.811 107.159C169.379 107.159 169.828 107.254 170.158 107.443C170.491 107.629 170.745 107.841 170.919 108.08C171.097 108.314 171.235 108.508 171.334 108.659H171.447V104.364H172.788V116H171.493V114.659H171.334C171.235 114.818 171.095 115.019 170.913 115.261C170.732 115.5 170.472 115.714 170.135 115.903C169.798 116.089 169.349 116.182 168.788 116.182ZM168.97 114.977C169.508 114.977 169.963 114.837 170.334 114.557C170.705 114.273 170.987 113.881 171.18 113.381C171.374 112.877 171.47 112.295 171.47 111.636C171.47 110.985 171.375 110.415 171.186 109.926C170.997 109.434 170.716 109.051 170.345 108.778C169.974 108.502 169.516 108.364 168.97 108.364C168.402 108.364 167.929 108.509 167.55 108.801C167.175 109.089 166.893 109.481 166.703 109.977C166.518 110.47 166.425 111.023 166.425 111.636C166.425 112.258 166.519 112.822 166.709 113.33C166.902 113.833 167.186 114.235 167.561 114.534C167.94 114.83 168.41 114.977 168.97 114.977ZM179.089 116.182C178.249 116.182 177.523 115.996 176.913 115.625C176.307 115.25 175.839 114.727 175.51 114.057C175.184 113.383 175.021 112.598 175.021 111.705C175.021 110.811 175.184 110.023 175.51 109.341C175.839 108.655 176.298 108.121 176.885 107.739C177.476 107.352 178.165 107.159 178.953 107.159C179.408 107.159 179.857 107.235 180.3 107.386C180.743 107.538 181.146 107.784 181.51 108.125C181.874 108.462 182.163 108.909 182.379 109.466C182.595 110.023 182.703 110.708 182.703 111.523V112.091H175.976V110.932H181.339C181.339 110.439 181.241 110 181.044 109.614C180.851 109.227 180.574 108.922 180.214 108.699C179.858 108.475 179.438 108.364 178.953 108.364C178.419 108.364 177.957 108.496 177.567 108.761C177.18 109.023 176.883 109.364 176.675 109.784C176.466 110.205 176.362 110.655 176.362 111.136V111.909C176.362 112.568 176.476 113.127 176.703 113.585C176.934 114.04 177.254 114.386 177.663 114.625C178.072 114.86 178.548 114.977 179.089 114.977C179.442 114.977 179.76 114.928 180.044 114.83C180.332 114.727 180.58 114.576 180.788 114.375C180.997 114.17 181.158 113.917 181.271 113.614L182.567 113.977C182.43 114.417 182.201 114.803 181.879 115.136C181.557 115.466 181.16 115.723 180.686 115.909C180.213 116.091 179.68 116.182 179.089 116.182ZM190.925 109.227L189.72 109.568C189.644 109.367 189.533 109.172 189.385 108.983C189.241 108.79 189.044 108.631 188.794 108.506C188.544 108.381 188.224 108.318 187.834 108.318C187.3 108.318 186.855 108.441 186.499 108.688C186.146 108.93 185.97 109.239 185.97 109.614C185.97 109.947 186.091 110.21 186.334 110.403C186.576 110.597 186.955 110.758 187.47 110.886L188.766 111.205C189.546 111.394 190.127 111.684 190.51 112.074C190.893 112.46 191.084 112.958 191.084 113.568C191.084 114.068 190.94 114.515 190.652 114.909C190.368 115.303 189.97 115.614 189.459 115.841C188.947 116.068 188.353 116.182 187.675 116.182C186.785 116.182 186.048 115.989 185.464 115.602C184.881 115.216 184.512 114.652 184.357 113.909L185.629 113.591C185.75 114.061 185.98 114.413 186.317 114.648C186.658 114.883 187.103 115 187.652 115C188.277 115 188.773 114.867 189.141 114.602C189.512 114.333 189.697 114.011 189.697 113.636C189.697 113.333 189.591 113.08 189.379 112.875C189.167 112.667 188.841 112.511 188.402 112.409L186.947 112.068C186.148 111.879 185.561 111.585 185.186 111.188C184.815 110.786 184.629 110.284 184.629 109.682C184.629 109.189 184.768 108.754 185.044 108.375C185.324 107.996 185.705 107.699 186.186 107.483C186.671 107.267 187.22 107.159 187.834 107.159C188.697 107.159 189.375 107.348 189.868 107.727C190.364 108.106 190.716 108.606 190.925 109.227ZM196.761 116.182C195.92 116.182 195.195 115.996 194.585 115.625C193.979 115.25 193.511 114.727 193.182 114.057C192.856 113.383 192.693 112.598 192.693 111.705C192.693 110.811 192.856 110.023 193.182 109.341C193.511 108.655 193.97 108.121 194.557 107.739C195.148 107.352 195.837 107.159 196.625 107.159C197.08 107.159 197.528 107.235 197.972 107.386C198.415 107.538 198.818 107.784 199.182 108.125C199.545 108.462 199.835 108.909 200.051 109.466C200.267 110.023 200.375 110.708 200.375 111.523V112.091H193.648V110.932H199.011C199.011 110.439 198.913 110 198.716 109.614C198.523 109.227 198.246 108.922 197.886 108.699C197.53 108.475 197.11 108.364 196.625 108.364C196.091 108.364 195.629 108.496 195.239 108.761C194.852 109.023 194.555 109.364 194.347 109.784C194.138 110.205 194.034 110.655 194.034 111.136V111.909C194.034 112.568 194.148 113.127 194.375 113.585C194.606 114.04 194.926 114.386 195.335 114.625C195.744 114.86 196.22 114.977 196.761 114.977C197.114 114.977 197.432 114.928 197.716 114.83C198.004 114.727 198.252 114.576 198.46 114.375C198.669 114.17 198.83 113.917 198.943 113.614L200.239 113.977C200.102 114.417 199.873 114.803 199.551 115.136C199.229 115.466 198.831 115.723 198.358 115.909C197.884 116.091 197.352 116.182 196.761 116.182ZM203.756 110.75V116H202.415V107.273H203.71V108.636H203.824C204.028 108.193 204.339 107.837 204.756 107.568C205.172 107.295 205.71 107.159 206.369 107.159C206.96 107.159 207.477 107.28 207.92 107.523C208.364 107.761 208.708 108.125 208.955 108.614C209.201 109.098 209.324 109.712 209.324 110.455V116H207.983V110.545C207.983 109.86 207.805 109.326 207.449 108.943C207.093 108.557 206.604 108.364 205.983 108.364C205.555 108.364 205.172 108.456 204.835 108.642C204.502 108.828 204.239 109.098 204.045 109.455C203.852 109.811 203.756 110.242 203.756 110.75ZM215.32 116.182C214.501 116.182 213.797 115.989 213.206 115.602C212.615 115.216 212.161 114.684 211.842 114.006C211.524 113.328 211.365 112.553 211.365 111.682C211.365 110.795 211.528 110.013 211.854 109.335C212.183 108.653 212.642 108.121 213.229 107.739C213.82 107.352 214.509 107.159 215.297 107.159C215.911 107.159 216.464 107.273 216.956 107.5C217.448 107.727 217.852 108.045 218.166 108.455C218.481 108.864 218.676 109.341 218.751 109.886H217.411C217.308 109.489 217.081 109.136 216.729 108.83C216.38 108.519 215.911 108.364 215.32 108.364C214.797 108.364 214.339 108.5 213.945 108.773C213.554 109.042 213.25 109.422 213.03 109.915C212.814 110.403 212.706 110.977 212.706 111.636C212.706 112.311 212.812 112.898 213.024 113.398C213.24 113.898 213.543 114.286 213.933 114.562C214.327 114.839 214.789 114.977 215.32 114.977C215.668 114.977 215.984 114.917 216.268 114.795C216.553 114.674 216.793 114.5 216.99 114.273C217.187 114.045 217.327 113.773 217.411 113.455H218.751C218.676 113.97 218.488 114.434 218.189 114.847C217.893 115.256 217.501 115.581 217.013 115.824C216.528 116.062 215.964 116.182 215.32 116.182ZM220.712 116V107.273H222.007V108.591H222.098C222.257 108.159 222.545 107.809 222.962 107.54C223.378 107.271 223.848 107.136 224.371 107.136C224.469 107.136 224.592 107.138 224.74 107.142C224.888 107.146 225 107.152 225.075 107.159V108.523C225.03 108.511 224.926 108.494 224.763 108.472C224.604 108.445 224.435 108.432 224.257 108.432C223.833 108.432 223.454 108.521 223.121 108.699C222.791 108.873 222.53 109.116 222.337 109.426C222.147 109.733 222.053 110.083 222.053 110.477V116H220.712ZM226.665 116V107.273H228.006V116H226.665ZM227.347 105.818C227.085 105.818 226.86 105.729 226.67 105.551C226.485 105.373 226.392 105.159 226.392 104.909C226.392 104.659 226.485 104.445 226.67 104.267C226.86 104.089 227.085 104 227.347 104C227.608 104 227.831 104.089 228.017 104.267C228.206 104.445 228.301 104.659 228.301 104.909C228.301 105.159 228.206 105.373 228.017 105.551C227.831 105.729 227.608 105.818 227.347 105.818ZM230.462 119.273V107.273H231.757V108.659H231.916C232.015 108.508 232.151 108.314 232.325 108.08C232.503 107.841 232.757 107.629 233.087 107.443C233.42 107.254 233.871 107.159 234.439 107.159C235.174 107.159 235.821 107.343 236.382 107.71C236.943 108.078 237.38 108.598 237.695 109.273C238.009 109.947 238.166 110.742 238.166 111.659C238.166 112.583 238.009 113.384 237.695 114.062C237.38 114.737 236.945 115.259 236.388 115.631C235.831 115.998 235.189 116.182 234.462 116.182C233.901 116.182 233.452 116.089 233.115 115.903C232.778 115.714 232.518 115.5 232.337 115.261C232.155 115.019 232.015 114.818 231.916 114.659H231.803V119.273H230.462ZM231.78 111.636C231.78 112.295 231.876 112.877 232.07 113.381C232.263 113.881 232.545 114.273 232.916 114.557C233.287 114.837 233.742 114.977 234.28 114.977C234.84 114.977 235.308 114.83 235.683 114.534C236.062 114.235 236.346 113.833 236.536 113.33C236.729 112.822 236.825 112.258 236.825 111.636C236.825 111.023 236.731 110.47 236.541 109.977C236.356 109.481 236.073 109.089 235.695 108.801C235.32 108.509 234.848 108.364 234.28 108.364C233.734 108.364 233.276 108.502 232.905 108.778C232.534 109.051 232.253 109.434 232.064 109.926C231.875 110.415 231.78 110.985 231.78 111.636ZM244.007 107.273V108.409H239.484V107.273H244.007ZM240.803 105.182H242.143V113.5C242.143 113.879 242.198 114.163 242.308 114.352C242.422 114.538 242.566 114.663 242.74 114.727C242.918 114.788 243.106 114.818 243.303 114.818C243.45 114.818 243.571 114.811 243.666 114.795C243.761 114.777 243.837 114.761 243.893 114.75L244.166 115.955C244.075 115.989 243.948 116.023 243.786 116.057C243.623 116.095 243.416 116.114 243.166 116.114C242.787 116.114 242.416 116.032 242.053 115.869C241.693 115.706 241.393 115.458 241.155 115.125C240.92 114.792 240.803 114.371 240.803 113.864V105.182ZM248.592 116.205C248.039 116.205 247.537 116.1 247.087 115.892C246.636 115.68 246.278 115.375 246.013 114.977C245.748 114.576 245.615 114.091 245.615 113.523C245.615 113.023 245.714 112.617 245.911 112.307C246.107 111.992 246.371 111.746 246.7 111.568C247.03 111.39 247.393 111.258 247.791 111.17C248.193 111.08 248.596 111.008 249.001 110.955C249.532 110.886 249.962 110.835 250.291 110.801C250.625 110.763 250.867 110.701 251.018 110.614C251.174 110.527 251.251 110.375 251.251 110.159V110.114C251.251 109.553 251.098 109.117 250.791 108.807C250.488 108.496 250.028 108.341 249.411 108.341C248.77 108.341 248.268 108.481 247.905 108.761C247.541 109.042 247.286 109.341 247.138 109.659L245.865 109.205C246.092 108.674 246.395 108.261 246.774 107.966C247.157 107.667 247.573 107.458 248.024 107.341C248.479 107.22 248.926 107.159 249.365 107.159C249.645 107.159 249.967 107.193 250.331 107.261C250.698 107.326 251.053 107.46 251.393 107.665C251.738 107.869 252.024 108.178 252.251 108.591C252.479 109.004 252.592 109.557 252.592 110.25V116H251.251V114.818H251.183C251.092 115.008 250.941 115.21 250.729 115.426C250.517 115.642 250.234 115.826 249.882 115.977C249.53 116.129 249.1 116.205 248.592 116.205ZM248.797 115C249.327 115 249.774 114.896 250.138 114.688C250.505 114.479 250.782 114.21 250.967 113.881C251.157 113.551 251.251 113.205 251.251 112.841V111.614C251.195 111.682 251.07 111.744 250.876 111.801C250.687 111.854 250.467 111.902 250.217 111.943C249.971 111.981 249.731 112.015 249.496 112.045C249.265 112.072 249.077 112.095 248.933 112.114C248.585 112.159 248.259 112.233 247.956 112.335C247.657 112.434 247.414 112.583 247.229 112.784C247.047 112.981 246.956 113.25 246.956 113.591C246.956 114.057 247.128 114.409 247.473 114.648C247.821 114.883 248.263 115 248.797 115ZM255.04 116V107.273H256.335V108.591H256.426C256.585 108.159 256.873 107.809 257.29 107.54C257.706 107.271 258.176 107.136 258.699 107.136C258.797 107.136 258.92 107.138 259.068 107.142C259.216 107.146 259.328 107.152 259.403 107.159V108.523C259.358 108.511 259.254 108.494 259.091 108.472C258.932 108.445 258.763 108.432 258.585 108.432C258.161 108.432 257.782 108.521 257.449 108.699C257.119 108.873 256.858 109.116 256.665 109.426C256.475 109.733 256.381 110.083 256.381 110.477V116H255.04ZM260.97 116.091C260.69 116.091 260.449 115.991 260.249 115.79C260.048 115.589 259.947 115.348 259.947 115.068C259.947 114.788 260.048 114.547 260.249 114.347C260.449 114.146 260.69 114.045 260.97 114.045C261.25 114.045 261.491 114.146 261.692 114.347C261.893 114.547 261.993 114.788 261.993 115.068C261.993 115.254 261.946 115.424 261.851 115.58C261.76 115.735 261.637 115.86 261.482 115.955C261.33 116.045 261.16 116.091 260.97 116.091Z" fill="#495057"/>
</svg>
