<?xml version="1.0" encoding="UTF-8" standalone="no"?>
<!-- Created with Inkscape (http://www.inkscape.org/) -->

<svg
   width="200"
   height="200"
   viewBox="0 0 52.916667 52.916668"
   version="1.1"
   id="svg5"
   xml:space="preserve"
   inkscape:version="1.2.2 (732a01da63, 2022-12-09)"
   sodipodi:docname="logo_GitHub.svg"
   inkscape:export-filename="logo.png"
   inkscape:export-xdpi="96"
   inkscape:export-ydpi="96"
   xmlns:inkscape="http://www.inkscape.org/namespaces/inkscape"
   xmlns:sodipodi="http://sodipodi.sourceforge.net/DTD/sodipodi-0.dtd"
   xmlns="http://www.w3.org/2000/svg"
   xmlns:svg="http://www.w3.org/2000/svg"><sodipodi:namedview
     id="namedview7"
     pagecolor="#ffffff"
     bordercolor="#000000"
     borderopacity="0.25"
     inkscape:showpageshadow="2"
     inkscape:pageopacity="0.0"
     inkscape:pagecheckerboard="0"
     inkscape:deskcolor="#d1d1d1"
     inkscape:document-units="px"
     showgrid="false"
     inkscape:zoom="1.4503086"
     inkscape:cx="406.46522"
     inkscape:cy="104.46053"
     inkscape:window-width="1920"
     inkscape:window-height="1001"
     inkscape:window-x="-9"
     inkscape:window-y="-9"
     inkscape:window-maximized="1"
     inkscape:current-layer="layer1" /><defs
     id="defs2" /><g
     inkscape:label="Capa 1"
     inkscape:groupmode="layer"
     id="layer1"><circle
       id="path5050"
       style="fill:#0a3871;stroke:#000000;stroke-width:0.264583"
       cx="61.297298"
       cy="134.63515"
       r="0.048599649" /><path
       style="fill:#000000;stroke-width:0.237513"
       d="M 16.152528,52.129346 C 9.6192186,49.320989 4.3300996,43.870063 1.7636646,37.300296 0.25707663,33.443616 -0.01215837,31.871868 4.1063008e-4,27.00674 0.01089063,22.951133 0.06757063,22.349174 0.64492263,20.162104 2.9316956,11.499558 9.4345696,4.3463046 17.706982,1.3935973 20.548561,0.37934119 22.798137,0.01347028 26.273515,3.3681808e-4 29.838725,-0.01313548 32.22026,0.3772245 35.192102,1.4621952 48.678402,6.38582 55.983909,21.320067 51.685638,35.179003 c -2.249976,7.254582 -6.961782,12.851963 -13.677141,16.247735 -3.172378,1.604185 -3.879289,1.772406 -4.55219,1.083272 -0.469899,-0.481233 -0.494107,-0.747627 -0.499003,-5.493243 -0.0044,-4.494222 -0.05234,-5.094029 -0.482309,-6.064786 -0.262426,-0.592516 -0.63647,-1.257598 -0.831204,-1.477961 -0.325851,-0.368754 -0.217355,-0.424003 1.362434,-0.69377 6.885806,-1.175825 10.28009,-5.373526 10.297556,-12.734954 0.008,-3.214891 -0.639042,-5.325062 -2.181487,-7.118464 -0.389381,-0.452738 -0.406811,-0.632844 -0.15888,-1.641243 0.310283,-1.261966 0.169818,-4.124831 -0.263055,-5.361483 -0.242379,-0.692443 -0.37329,-0.781172 -1.152531,-0.781172 -1.186426,0 -3.268615,0.761365 -4.960155,1.813705 L 33.19483,13.823151 31.042342,13.444485 C 28.26331,12.9556 24.51982,12.96223 21.793931,13.460865 c -2.148364,0.39299 -2.163373,0.392297 -2.883696,-0.132988 -1.314525,-0.958604 -3.86624,-1.997718 -5.212796,-2.122765 l -1.31802,-0.122396 -0.252562,1.051641 c -0.482087,2.007366 -0.559181,3.242095 -0.295442,4.731624 0.261592,1.477376 0.255516,1.511207 -0.45332,2.522039 -2.2959604,3.274184 -2.5057494,8.903561 -0.495739,13.302453 1.405448,3.075816 4.312065,5.139798 8.442222,5.99479 l 2.084771,0.43157 -0.542842,0.855323 c -0.298555,0.470427 -0.65586,1.297746 -0.793992,1.838488 -0.217932,0.85311 -0.371321,1.02004 -1.159548,1.261893 -1.395699,0.428249 -3.210725,0.344693 -4.244444,-0.195395 -0.49911,-0.260768 -1.313416,-0.982833 -1.809581,-1.604588 -1.741348,-2.18217 -2.854618,-3.178994 -3.8599604,-3.456236 -1.058867,-0.291999 -2.088177,-0.149155 -2.088177,0.289791 0,0.15069 0.660092,0.932805 1.466867,1.738036 1.014692,1.012744 1.7585044,2.055049 2.4129104,3.381239 0.792582,1.606207 1.132102,2.035073 2.093162,2.643967 1.094846,0.69366 1.276355,0.729016 3.982658,0.775779 l 2.835528,0.04899 0.06626,2.647263 c 0.05988,2.392308 0.02031,2.694314 -0.410723,3.135784 -0.635131,0.650452 -0.966179,0.614525 -3.204969,-0.347826 z"
       id="path3719" /></g></svg>
