<?xml version="1.0" encoding="UTF-8" standalone="no"?>
<!-- Created with Inkscape (http://www.inkscape.org/) -->

<svg
   width="360"
   height="144"
   viewBox="0 0 95.25 38.100001"
   version="1.1"
   id="svg5"
   xml:space="preserve"
   inkscape:version="1.2.2 (732a01da63, 2022-12-09)"
   sodipodi:docname="logo.svg"
   inkscape:export-filename="logo.png"
   inkscape:export-xdpi="96"
   inkscape:export-ydpi="96"
   xmlns:inkscape="http://www.inkscape.org/namespaces/inkscape"
   xmlns:sodipodi="http://sodipodi.sourceforge.net/DTD/sodipodi-0.dtd"
   xmlns="http://www.w3.org/2000/svg"
   xmlns:svg="http://www.w3.org/2000/svg"><sodipodi:namedview
     id="namedview7"
     pagecolor="#ffffff"
     bordercolor="#000000"
     borderopacity="0.25"
     inkscape:showpageshadow="2"
     inkscape:pageopacity="0.0"
     inkscape:pagecheckerboard="0"
     inkscape:deskcolor="#d1d1d1"
     inkscape:document-units="px"
     showgrid="false"
     inkscape:zoom="1.4503086"
     inkscape:cx="407.49947"
     inkscape:cy="104.46052"
     inkscape:window-width="1920"
     inkscape:window-height="1001"
     inkscape:window-x="-9"
     inkscape:window-y="-9"
     inkscape:window-maximized="1"
     inkscape:current-layer="layer1" /><defs
     id="defs2" /><g
     inkscape:label="Capa 1"
     inkscape:groupmode="layer"
     id="layer1"><circle
       id="path5050"
       style="fill:#0a3871;stroke:#000000;stroke-width:0.264583"
       cx="61.297298"
       cy="134.63515"
       r="0.048599649" /><path
       style="fill:#0a3871;fill-opacity:1;stroke-width:0.0981035"
       d="m 43.645957,37.951486 c -0.986658,-0.174784 -2.608415,-0.645833 -3.344948,-0.971564 -1.52781,-0.675668 -3.526358,-2.387004 -4.13377,-3.539708 -0.594699,-1.12856 -0.636827,-1.434666 -0.687573,-4.995765 -0.05122,-3.593932 0.02468,-4.617559 0.406168,-5.48023 0.362042,-0.818639 1.191128,-1.979076 1.972019,-2.760135 1.060933,-1.061167 2.616558,-1.761742 8.485948,-3.821635 5.472657,-1.920656 6.532632,-2.5051 7.407047,-4.084072 0.290087,-0.523831 0.293975,-0.55035 0.286565,-1.953541 C 54.025913,8.1748897 53.713771,7.2577747 52.688462,6.3818272 51.758725,5.5875254 50.455797,5.1401455 48.503972,4.9450175 47.280793,4.8227346 45.910826,4.9350575 44.770155,5.2511558 43.861667,5.5029105 43.572999,5.6567079 42.996083,6.1963466 42.412798,6.7419407 42.152454,7.1800262 41.634478,8.4875437 41.411486,9.0504213 41.145699,9.5960873 41.043827,9.7001356 40.92432,9.8222054 40.651939,9.9136847 40.276015,9.9580093 39.655139,10.031216 35.49626,9.9289664 35.405558,9.8382608 35.302362,9.7350647 35.558966,7.0528838 35.748615,6.2523481 35.853642,5.8090363 36.08423,5.1472739 36.261038,4.7817654 c 0.805737,-1.6656733 3.31304,-3.3878235 6.109574,-4.19637915 1.744053,-0.504253 2.437552,-0.579464 5.395689,-0.58516900071 2.98513,-0.005799999 3.873458,0.10132100071 5.774524,0.69605860071 1.055291,0.33014175 2.934706,1.30474595 3.624869,1.87973955 1.016228,0.8466494 1.922076,2.151435 2.321779,3.3442954 0.356887,1.0650889 0.413457,3.3039046 0.366342,14.4996282 -0.04794,11.387514 -0.03548,11.160392 -0.686764,12.522235 -0.916626,1.916646 -2.415116,3.211676 -4.827816,4.172319 -1.04912,0.417718 -2.529403,0.710942 -4.512759,0.893912 -1.573916,0.145199 -5.229607,0.111532 -6.180519,-0.05692 z m 6.665693,-5.090095 c 0.905224,-0.256224 1.516492,-0.611932 2.221958,-1.293001 1.378514,-1.330841 1.466304,-1.721904 1.53261,-6.826735 0.05212,-4.013249 0.01138,-5.02581 -0.214604,-5.33488 -0.123376,-0.168724 -0.187349,-0.150515 -1.145922,0.326156 -0.558388,0.277671 -1.809889,0.795841 -2.78111,1.151488 -5.219048,1.911134 -6.372502,2.431442 -7.145578,3.223272 -0.558966,0.572529 -1.133588,1.57917 -1.379973,2.4175 -0.552475,1.879773 0.317164,4.734164 1.701803,5.585754 0.569005,0.349953 1.447352,0.680994 2.261933,0.852505 0.909176,0.191427 4.147991,0.124633 4.948883,-0.102059 z"
       id="path5152" /><path
       style="fill:#0a3871;fill-opacity:1;stroke-width:0.105603"
       d="M 15.764411,37.430504 C 15.013321,37.184187 13.476321,36.387891 12.521066,35.750181 9.9091486,34.006517 7.4233488,30.960512 5.5247906,27.177189 3.6655577,23.472233 2.3050639,19.102941 1.0373157,12.765441 0.41349333,9.6469419 0.17308658,8.0899007 0.06812884,6.4883263 L 0,5.4487239 1.3084143,5.3848597 C 4.8495963,5.2120128 10.592796,3.5097066 14.998786,1.326981 L 16.609233,0.52916673 18.219679,1.326981 c 4.405531,2.182496 10.149203,3.88503 13.68954,4.0578393 l 1.307587,0.06383 -0.07149,1.0657227 c -0.198798,2.9636343 -1.585021,9.792705 -2.820534,13.894978 -2.438831,8.097705 -6.448359,13.903617 -11.26223,16.308035 -1.734343,0.866264 -2.395361,1.009187 -3.298145,0.713122 z"
       id="path5154" /><path
       style="fill:#0a3871;fill-opacity:1;stroke-width:0.105603"
       d="M 77.797563,37.430504 C 77.046473,37.184187 75.509473,36.387891 74.554218,35.750181 71.9423,34.006517 69.456501,30.960512 67.557942,27.177189 65.698709,23.472233 64.338216,19.102941 63.070468,12.765441 62.446645,9.646942 62.206238,8.0899008 62.101281,6.4883264 L 62.033151,5.448724 63.341565,5.38486 C 66.882748,5.2120129 72.625948,3.5097067 77.031938,1.3269811 l 1.610447,-0.79781433 1.610446,0.79781433 c 4.405531,2.182496 10.149203,3.88503 13.68954,4.0578393 l 1.307587,0.06383 -0.07149,1.0657227 c -0.198798,2.9636343 -1.585021,9.7927049 -2.820534,13.8949779 -2.438831,8.097705 -6.448359,13.903617 -11.26223,16.308035 -1.734343,0.866264 -2.395361,1.009187 -3.298145,0.713122 z"
       id="path5154-2" /><path
       style="fill:#ffffff;stroke-width:0.206706"
       d="m 72.275019,27.377991 c -0.175145,-0.175144 -0.248048,-1.378037 -0.248048,-4.092772 0,-2.714735 0.07291,-3.917629 0.248048,-4.092773 0.136425,-0.136426 0.601513,-0.248047 1.033528,-0.248047 0.785481,0 0.785481,0 0.786634,-2.325439 6.42e-4,-1.278991 0.09873,-2.676798 0.217982,-3.106236 0.119256,-0.429439 0.513263,-1.118418 0.875572,-1.531065 0.362309,-0.412648 1.031613,-0.919659 1.487341,-1.126692 0.455727,-0.207032 1.303058,-0.378466 1.882955,-0.380962 0.579898,-0.0025 1.370548,0.104507 1.756999,0.237787 0.386451,0.133281 0.949631,0.423316 1.251511,0.644523 0.30188,0.221207 0.790223,0.845634 1.085204,1.387615 0.452286,0.830998 0.536333,1.248271 0.536333,2.662769 0,1.677349 0,1.677349 -0.826823,1.677349 -0.826822,0 -0.826822,0 -0.826822,-1.457205 0,-0.843565 -0.121657,-1.692463 -0.288897,-2.015869 -0.158892,-0.307265 -0.4612,-0.71205 -0.671792,-0.899522 -0.210595,-0.187471 -0.77201,-0.455912 -1.247594,-0.596536 -0.786006,-0.232411 -0.955301,-0.210752 -1.860351,0.237994 -0.675779,0.335067 -1.111769,0.726101 -1.35707,1.21714 -0.279716,0.559932 -0.361485,1.249132 -0.361735,3.04891 -3.21e-4,2.325439 -3.21e-4,2.325439 4.505864,2.325439 3.229201,0 4.576476,0.07029 4.754233,0.248047 0.175141,0.175144 0.248047,1.378038 0.248047,4.092773 0,2.714735 -0.07289,3.917628 -0.248047,4.092772 -0.181757,0.181752 -1.883322,0.248048 -6.366538,0.248048 -4.483217,0 -6.184784,-0.0663 -6.366534,-0.248048 z m 7.000241,-1.619576 c 0.318698,-0.170562 0.399823,-0.438044 0.399823,-1.318278 0,-0.729427 0.105254,-1.191651 0.310058,-1.361624 0.170532,-0.141529 0.310058,-0.542247 0.310058,-0.890487 0,-0.365592 -0.189931,-0.835333 -0.449444,-1.11157 -0.291163,-0.309931 -0.686253,-0.478411 -1.121878,-0.478411 -0.480242,0 -0.794883,0.155667 -1.10085,0.54464 -0.235627,0.299552 -0.428413,0.752096 -0.428413,1.005652 0,0.253557 0.186035,0.697518 0.41341,0.98658 0.270893,0.344383 0.413412,0.83856 0.413412,1.433474 0,0.49935 0.111622,1.01953 0.248047,1.155955 0.136426,0.136425 0.328576,0.248047 0.427001,0.248047 0.09842,0 0.358873,-0.09629 0.578776,-0.213978 z"
       id="path5236" /><path
       style="fill:#ffffff;stroke-width:0.203525"
       d="M 10.129504,27.422111 C 10.054888,27.347488 9.9938194,25.473184 9.9938194,23.256998 V 19.227567 L 10.387496,19.01688 c 0.216516,-0.115876 0.628654,-0.210686 0.915862,-0.210686 h 0.522188 v -1.702188 c 0,-0.936205 0.09224,-2.195518 0.20497,-2.798474 0.112735,-0.60296 0.459993,-1.461861 0.77169,-1.90867 0.311697,-0.446805 0.920788,-1.010985 1.353552,-1.253734 0.43275,-0.242747 1.166485,-0.498292 1.6305,-0.567877 0.464023,-0.06958 1.314015,-0.02564 1.888869,0.09764 0.72597,0.155693 1.32297,0.468666 1.954698,1.024735 0.604487,0.532086 1.018237,1.11968 1.233707,1.752051 0.217993,0.639778 0.324203,1.672993 0.324203,3.153996 v 2.202525 h 0.610575 c 0.339207,0 0.791485,0.180913 1.017624,0.407051 l 0.407053,0.40705 v 3.575079 c 0,2.075182 -0.08839,3.74024 -0.210685,3.968748 L 22.801619,27.5578 h -6.268217 c -3.447514,0 -6.329268,-0.06104 -6.403898,-0.135685 z m 7.191239,-2.841378 c 0,-0.619307 0.135252,-1.09943 0.407053,-1.444966 0.223876,-0.284614 0.407052,-0.738258 0.407052,-1.008098 0,-0.269842 -0.224807,-0.715423 -0.49956,-0.99018 -0.274763,-0.274762 -0.636803,-0.499566 -0.80453,-0.499566 -0.167733,0 -0.532045,0.103468 -0.809598,0.229928 -0.277548,0.126459 -0.61572,0.498103 -0.751485,0.825878 l -0.246848,0.595951 0.436613,0.590559 c 0.293258,0.39664 0.436624,0.889232 0.436624,1.50013 0,0.555026 0.124507,1.034077 0.319421,1.228992 0.24112,0.241111 0.41575,0.26787 0.712341,0.10914 0.299962,-0.160538 0.392917,-0.429704 0.392917,-1.137768 z m 2.035259,-7.934727 c 0,-1.837595 -0.06576,-2.277207 -0.440383,-2.943751 -0.242217,-0.430959 -0.736884,-0.924254 -1.099271,-1.096218 -0.362386,-0.171963 -0.947243,-0.312666 -1.29969,-0.312666 -0.352445,0 -0.903801,0.135998 -1.225233,0.302222 -0.321432,0.166217 -0.792432,0.594336 -1.046659,0.951374 -0.398311,0.559361 -0.474447,0.967996 -0.550469,2.954192 l -0.08823,2.305035 h 2.874969 2.874969 z"
       id="path5268" /></g></svg>
